/* XPM */
static char *c519c43c41f147b9bdc7aaa2fd497711o1UD6df3LjhRU1ZH[] = {
/* columns rows colors chars-per-pixel */
"30 32 192 2 ",
"   c None",
".  c #883E00",
"X  c #985F00",
"o  c #BD7E00",
"O  c #B17300",
"+  c #9B5E31",
"@  c #AA6F3B",
"#  c #BC793E",
"$  c #C77700",
"%  c #CA7900",
"&  c #C47E11",
"*  c #C67B27",
"=  c #C07A33",
"-  c #C78000",
";  c #CD8200",
":  c #D48700",
">  c #DA8900",
",  c #CB9305",
"<  c #D29700",
"1  c #D29F00",
"2  c #DD9608",
"3  c #CD8B1D",
"4  c #CF9817",
"5  c #CF901A",
"6  c #E09600",
"7  c #E29E00",
"8  c #CDAC07",
"9  c #DCA800",
"0  c #D6A302",
"q  c #DEA81E",
"w  c #E3A502",
"e  c #E3AB00",
"r  c #E8AB00",
"t  c #E5B200",
"y  c #EAB100",
"u  c #EABC0C",
"i  c #F6BA00",
"p  c #E7A716",
"a  c #F2AB11",
"s  c #E7BB1A",
"d  c #F0BC1E",
"f  c #C98824",
"g  c #D3883E",
"h  c #E39E22",
"j  c #E39D2B",
"k  c #E5B925",
"l  c #EAB52E",
"z  c #E8B927",
"x  c #E6B633",
"c  c #EFBB3F",
"v  c #EABB37",
"b  c #F1BA30",
"n  c #DFC700",
"m  c #EEC20C",
"M  c #FFCF00",
"N  c #FFDA03",
"B  c #F6D308",
"V  c #FED50C",
"C  c #FFD90B",
"Z  c #FAD406",
"A  c #F3C81A",
"S  c #F4D618",
"D  c #FBD31C",
"F  c #FFDC1C",
"G  c #FAD918",
"H  c #FFE003",
"J  c #FFE513",
"K  c #EFC327",
"L  c #F2C424",
"P  c #F8CF26",
"I  c #FBCC29",
"U  c #FCD024",
"Y  c #FFDB25",
"T  c #F7D328",
"R  c #E0C830",
"E  c #E9C539",
"W  c #F2C236",
"Q  c #F3CA35",
"!  c #F1C73B",
"~  c #E8D034",
"^  c #FAD331",
"/  c #FCD13B",
"(  c #FFE828",
")  c #FFE326",
"_  c #FFE331",
"`  c #FFE23C",
"'  c #FFEC3C",
"]  c #FFF33E",
"[  c #B28049",
"{  c #B08556",
"}  c #BA935F",
"|  c #C79A44",
" . c #D09D46",
".. c #D4A94E",
"X. c #D5A755",
"o. c #ECAD4B",
"O. c #E5B743",
"+. c #F2B245",
"@. c #C4AA6D",
"#. c #CBB070",
"$. c #F1BC6D",
"%. c #E6C044",
"&. c #F5C048",
"*. c #FFCF4A",
"=. c #F8CE42",
"-. c #ECD741",
";. c #F7D840",
":. c #FBDC42",
">. c #F6D64A",
",. c #FFD14F",
"<. c #FFDA49",
"1. c #F4D747",
"2. c #EECE50",
"3. c #EEC859",
"4. c #F4C154",
"5. c #F6CE50",
"6. c #EFD256",
"7. c #F4DD5D",
"8. c #FDDE58",
"9. c #F7D853",
"0. c #FFE645",
"q. c #FFEC4E",
"w. c #F8E647",
"e. c #FFF24A",
"r. c #F3E051",
"t. c #FEE557",
"y. c #FFE55F",
"u. c #FFE85C",
"i. c #FFE954",
"p. c #FFF253",
"a. c #FFF15C",
"s. c #DCC266",
"d. c #DCC46A",
"f. c #DCC472",
"g. c #ECDA6F",
"h. c #F4DB64",
"j. c #FED360",
"k. c #F8D87F",
"l. c #FCDF76",
"z. c #FFE764",
"x. c #FEE66D",
"c. c #FFEB6C",
"v. c #F5E165",
"b. c #FFF263",
"n. c #FDE374",
"m. c #F7EB77",
"M. c #FCEB74",
"N. c #FFEA79",
"B. c #F3E679",
"V. c #EDF679",
"C. c #FFF075",
"Z. c #F6F078",
"A. c #FFFA78",
"S. c #DEBF93",
"D. c #DDCA81",
"F. c #EDDF8E",
"G. c #CBFC87",
"H. c #CDFD8C",
"J. c #D9F787",
"K. c #DDF688",
"L. c #D2FC8E",
"P. c #DCFB8D",
"I. c #D4FB87",
"U. c #D6FF90",
"Y. c #DBFE90",
"T. c #FCEF88",
"R. c #FDE984",
"E. c #EAF68C",
"W. c #E4FD8F",
"Q. c #EDFA8B",
"!. c #E6F68D",
"~. c #F3F786",
"^. c #FCF583",
"/. c #F3F986",
"(. c #F3F58B",
"). c #FFF38D",
"_. c #F1F98C",
"`. c #FFED99",
"'. c #FCE796",
"]. c #E3FB93",
"[. c #EAFB90",
"{. c #FCF394",
"}. c #FBF39C",
"|. c #FFFE9E",
" X c #F2F697",
".X c #FEF9A6",
"XX c #FFF8BF",
"oX c #FBF7BB",
"OX c #FFFBC6",
"+X c #FFF7C8",
"@X c #FFFFCE",
"#X c #FEFBD4",
/* pixels */
"                                                            ",
"                                                            ",
"                                                            ",
"                                                            ",
"                                                            ",
"                      A.p.)..X' _ _ ` :.                    ",
"                  |.{.a.h.3.t t t u B J ) /                 ",
"                ^.^.O.: * &  .X.D.5 3 q A H I               ",
"              e.1.: $ < t Q ;.R.XX9.s 0 4 z V F ^           ",
"            ' B % f u 1.c.^._._.E.~.M.8.s 1 k C G           ",
"          e.( 5 3 A y.~.].U.H.  G.U.W.(.x.Q 9 L C D         ",
"          e.k f r z.Q.P.              H.!.N.! e P J S       ",
"        p.` | % 5.~.L.                  H.E.n.j k Y S       ",
"        q.2.[ 3 B.U.                      P.(.+.7 ^ (       ",
"        p.s.+ ..E.H.                        [.l.h Q _ r.    ",
"      b.b.#.. s.W.                          P.R.+.=.:.r.    ",
"      b.a.@.X g.].                          J.{.j.8.9.r.    ",
"      ^.|.f.8 m.W.                          J.}.n.x.h.-.    ",
"      `.@XF.n Z.W.                          K.}.x.N.s.8     ",
"        ,.7.R 1.Q.                          !.}.y.n.{ O     ",
"        $.n.~ E Z.P.                      I. XR.i.f.@       ",
"        +.4.h.K 2.Q.L.                  G.E.{.t.c.} o       ",
"          a Q T u v.Q.H.              H.]..Xx.0.d.= e       ",
"          O.i U N d h./.Y.U.      L.W.V.oX#Xq.-.# 0         ",
"            W y P V i *.N.~.Q.[.[._.).+X#X{.K % p           ",
"              W e I Y M U <.y.c.c.u.).+X'.a  .+.0.          ",
"                %.y r K D C C F F F 9.O.> j R..X            ",
"                  3.v r 7 7 w e w 2 > 6 b >.                ",
"                      6.%.x x l l l E >.                    ",
"                                                            ",
"                                                            ",
"                                                            "
};
