/* XPM */
static char *ee3a3dcd88964ec3d03b53f9965997e5yoRSx8WHtqhzlgrN[] = {
/* columns rows colors chars-per-pixel */
"32 25 169 2 ",
"   c None",
".  c #660505",
"X  c #700000",
"o  c #7F2424",
"O  c #005505",
"+  c #005A00",
"@  c #1A5F06",
"#  c #005513",
"$  c #1A5E15",
"%  c #086B09",
"&  c #0A6C07",
"*  c #1E6F00",
"=  c #0A7A03",
"-  c #09780C",
";  c #0A770A",
":  c #177000",
">  c #096B17",
",  c #067819",
"<  c #11781E",
"1  c #256300",
"2  c #207C00",
"3  c #002C71",
"4  c #004859",
"5  c #006D54",
"6  c #005163",
"7  c #224E73",
"8  c #22567D",
"9  c #860000",
"0  c #950000",
"q  c #A60000",
"w  c #AA0303",
"e  c #B40000",
"r  c #BD0000",
"t  c #B81717",
"y  c #B62F03",
"u  c #B62E0B",
"i  c #923839",
"p  c #AE2A2A",
"a  c #CA0000",
"s  c #DC0000",
"d  c #D61300",
"f  c #DD0017",
"g  c #E10003",
"h  c #E1000A",
"j  c #E10014",
"k  c #D22318",
"l  c #D17A3E",
"z  c #CD7737",
"x  c #B31B4F",
"c  c #B62B57",
"v  c #853E72",
"b  c #8F5555",
"n  c #9B5D5D",
"m  c #854949",
"M  c #AF5451",
"N  c #A37171",
"B  c #B3767F",
"V  c #A86571",
"C  c #0A840B",
"Z  c #068604",
"A  c #009D00",
"S  c #009000",
"D  c #048118",
"F  c #2B8D00",
"G  c #279800",
"H  c #218713",
"J  c #12A200",
"K  c #0E8F27",
"L  c #008122",
"P  c #159124",
"I  c #008A55",
"U  c #00836D",
"Y  c #DB8E00",
"T  c #DB8A2D",
"R  c #CED500",
"E  c #EDF000",
"W  c #FEFE00",
"Q  c #FDFD0E",
"!  c #DADA26",
"~  c #E0E031",
"^  c #FAF83B",
"/  c #B9BC59",
"(  c #A1A165",
")  c #B8B866",
"_  c #AFB67A",
"`  c #BDC16E",
"'  c #D3D356",
"]  c #F6F741",
"[  c #CECF6E",
"{  c #CDD261",
"}  c #C8CB7B",
"|  c #E6E668",
" . c #F7F76A",
".. c #FAFA74",
"X. c #003386",
"o. c #00518D",
"O. c #315AA1",
"+. c #147BA6",
"@. c #3266AE",
"#. c #2E66BE",
"$. c #784890",
"%. c #517198",
"&. c #667597",
"*. c #587CB8",
"=. c #6A7AB3",
"-. c #3759F5",
";. c #456EC7",
":. c #677EDD",
">. c #506BEB",
",. c #8E718F",
"<. c #BD7B8F",
"1. c #5E83BD",
"2. c #7B8CCF",
"3. c #798BD6",
"4. c #978787",
"5. c #9F9F8F",
"6. c #939599",
"7. c #8A8195",
"8. c #A99090",
"9. c #BB909F",
"0. c #B0B48B",
"q. c #AFB491",
"w. c #AAAD9A",
"e. c #949CB8",
"r. c #929CA5",
"t. c #AF88A1",
"y. c #9AA5B7",
"u. c #B3A2A2",
"i. c #B3B7A8",
"p. c #BEB8B8",
"a. c #DCB8B8",
"s. c #CAA4A4",
"d. c #EAA6A8",
"f. c #ECA9A9",
"g. c #EBA8A7",
"h. c #F1B0AE",
"j. c #CFCF8A",
"k. c #DDDF8A",
"l. c #DCDE9B",
"z. c #EBEC82",
"x. c #E6E794",
"c. c #C9CDAC",
"v. c #D8DCA3",
"b. c #8C9BC6",
"n. c #8D9BCF",
"m. c #9AA4C8",
"M. c #A7ADD1",
"N. c #8795EE",
"B. c #A1A8E2",
"V. c #A4AFF4",
"C. c #AFB5E8",
"Z. c #CEB4C0",
"A. c #CDCDCD",
"S. c #E6C7C7",
"D. c #E7D8D8",
"F. c #DADEEA",
"G. c #CFD3FE",
"H. c #D1D7FF",
"J. c #DCE3F4",
"K. c #EEEEEE",
"L. c #E5E8EE",
"P. c #F5E3E2",
"I. c #EBEEFC",
"U. c #E2E8FB",
"Y. c #ECF3FC",
"T. c #F4F4F5",
"R. c #F4F6FE",
"E. c #F7F8FE",
"W. c #FEFFFF",
/* pixels */
"                                                                ",
"                                                                ",
"                                                                ",
"                          >.:.3.2.>.                            ",
"  I.                  >.b.k.W W W ] c.3.                    Y.  ",
"  J.W.U.R.          3. .` | ..x.x. .[ ' v.-.          E.Y.W.J.  ",
"    J.W.W.W.W.W.J.n.Q W l.b.*.+.+.1.m.z.W k.N.W.W.W.W.W.W.U.    ",
"      F.Y.R.W.W.V.j.W c.#.I A J J J U ;.l.W y.H.W.W.W.T.F.      ",
"        L.W.W.G.q.) i.@.S G P K K P G Z *.w./ M.R.W.W.L.        ",
"      W.W.R.W.B.~ ^ =., H , C C C C L F 5 e.W 0.G.W.E.W.W.      ",
"        W.W.R.y.W j.o.* < ; - ; ; - = < = O.| ~ C.W.W.W.        ",
"          E.I.r.} w.6 * > % % & % % & > * 8 q._ M.W.T.          ",
"          T.I.6.) 6.4 1 $ @ @ @ * @ @ $ 1 7 5.( m.W.T.          ",
"          K.E.r.E _ 3 + # O O O O O O # + X.{ R M.W.K.          ",
"              V Y l x y u u u u u u u u y c T l t.              ",
"            q d f a g h h h h g h h h h h g s j a 0             ",
"            <.a.P.P.P.P.P.P.P.P.P.P.P.P.P.P.P.D.9.V             ",
"            %.b.W.W.W.W.W.W.W.W.W.W.W.W.W.W.W.Y.%.6.            ",
"          4.7.<.h.f.g.f.f.g.f.f.d.g.g.g.g.g.f.f.,.8.            ",
"    e e w b M s g g g g s s s s s s s s g s g g k n m e r t     ",
"      D.D.8.0           v $.,.4.4.,.$.          w i p.D.S.      ",
"      W.W.u..                                     m A.W.        ",
"      S.s.n X                                     o N a.a.      ",
"    p a w X .                                     X 0 q e       ",
"                                                                "
};
