/* XPM */
static char *ad9e5ed4340b4b3ffe0ed777009b45fcY6zOuooaAQEizQzo[] = {
/* columns rows colors chars-per-pixel */
"32 32 94 2 ",
"   c #00B500",
".  c #01BC00",
"X  c #0ABE00",
"o  c #14BC00",
"O  c #1CBD00",
"+  c #22BD00",
"@  c #2EBE01",
"#  c #32BC00",
"$  c #3CBD04",
"%  c #45BF06",
"&  c #4BBF07",
"*  c #50BF04",
"=  c #03C200",
"-  c #0BC300",
";  c #0DCA00",
":  c #13C400",
">  c #1AC600",
",  c #14C900",
"<  c #1DCA00",
"1  c #1DD200",
"2  c #1BDD00",
"3  c #22C400",
"4  c #2DC200",
"5  c #24CC00",
"6  c #2ACE00",
"7  c #33C501",
"8  c #3BC300",
"9  c #33CD00",
"0  c #3BCB02",
"q  c #25D200",
"w  c #2CD200",
"e  c #22DD00",
"r  c #2BDA00",
"t  c #34D400",
"y  c #3BD400",
"u  c #33DA00",
"i  c #3CDA00",
"p  c #1EE400",
"a  c #24E600",
"s  c #2AE200",
"d  c #32E400",
"f  c #43C503",
"g  c #4CC405",
"h  c #45CA03",
"j  c #4BCC03",
"k  c #52C506",
"l  c #59C507",
"z  c #53CB04",
"x  c #5ACC05",
"c  c #55C408",
"v  c #5BC609",
"b  c #5CC909",
"n  c #44D400",
"m  c #4DD602",
"M  c #42DA00",
"N  c #46DB00",
"B  c #42DC00",
"V  c #46DF00",
"C  c #4ADD00",
"Z  c #4CDF00",
"A  c #55D303",
"S  c #57D104",
"D  c #5AD601",
"F  c #5CD106",
"G  c #54DA00",
"H  c #57D802",
"J  c #55DF02",
"K  c #5CDB01",
"L  c #5FD804",
"P  c #5EDB04",
"I  c #60C809",
"U  c #66C809",
"Y  c #62CE0D",
"T  c #68C909",
"R  c #60DC04",
"E  c #65D10C",
"W  c #47E000",
"Q  c #46E200",
"!  c #49E100",
"~  c #4AE300",
"^  c #4CE200",
"/  c #4AE400",
"(  c #4EE500",
")  c #53E300",
"_  c #55E200",
"`  c #51E500",
"'  c #53E700",
"]  c #54E500",
"[  c #59E700",
"{  c #53E800",
"}  c #56EB00",
"|  c #56EC00",
" . c #5AE900",
".. c #5BEA00",
/* pixels */
"S H n m L x x U U T I F K n S D x l c c l & % x k g c v v c b v ",
"V ) y y / H h A P S n ^ ` y i ) j 8 k h 9 # # 8 @ + 7 h f $ f g ",
"Z _ y y ~ C w Q ] i w Q _ t M ^ t 7 4 6 w : o 6 5 . - q , X 5 0 ",
"` _ y i ( C w / ..y y ( ) w M ` w 5 + 3 w - . w 6 . - w > . < 9 ",
"} ` t i } V 6 ~ ..y w } [ w M } t > . > w : . 5 5 . - w > . < 6 ",
"J ` 5 w | C w Q [ t < { ` w i ( w 3 . > 6 - . 6 5 . X w > . 5 6 ",
"m N < u } N < t _ 6 < ..] 6 5 V w 6 . 5 y , . 5 6 - : y 5 . > 6 ",
"m M : w ] t = t Q < , ( M , 6 C y t = 6 V 5 - y y - : ^ t : 6 y ",
"m y : < / t - r B > = ~ N > 6 i N y = y ` 5 ; i i = 5 { y , y N ",
"m N : t } y - t ^ < < { Q < 6 ~ y w . 6 ~ 5 - t y = : ~ t - 6 y ",
"m V < u | C 5 y _ w < } ` w 6 ~ w 6 . 5 y , X 5 q X - y 5 . < 9 ",
"_ [ 6 r | C w / ..y 1 { ` t i ` w 3 . < 6 : . w 6 . X w > . < 6 ",
"` _ t i ] C 6 Q ..y t } ] w B } w 5 . > w - . 5 5 . - w <   < 5 ",
") _ y i ^ C t ~ ..n t ~ ) t i ^ w 3 O > 6 -   5 5 . = 5 >   > 9 ",
"C _ y i ~ C 9 B ` M w Q J t n V r 5 > 5 5 o o 6 5 . , p ; - 1 t ",
"M Q 9 w B n 7 j z h 0 N V 6 y i u 5 w s 1 3 5 u 3 : r d 1 1 u h ",
"j 0 0 0 6 7 # 8 # + @ h n 7 0 u Q 9 w i i > w Q w < u N 6 w Q x ",
"0 7 4 7 5 O O 5 6 . = q < o 3 s ~ t u Q N 6 ~ } y t ~ ^ 9 i ` E ",
"0 6 + 3 w >   < w X . q < = : a ~ y i ..V 6 ~ ..i r ..] w M ..E ",
"8 5 X : q > . < w X . 6 5 . - p / 9 r } N w ( ..y < ` ` t i } E ",
"0 5 . : w , . 5 6 X . 6 5 . , 2 i 5 u | C 5 u _ w < ..` w w ~ Y ",
"0 6 - , y < . 3 w : . t 9 . o 2 i , t ..y - y ( 5 < } M < 5 ^ Y ",
"h t > : V 9 = w t < . B y , 5 e w : < ^ t - u i > = ~ M , 6 M Y ",
"H y : 5 ( t - t V < = ( V > 5 s i , w ] w = t Q , : ( M > 6 C Y ",
"m t : , ~ t - w i > . V M , 3 s i < u } N < t _ 6 5 } _ 6 5 / Y ",
"0 6 o > i 5 . 5 6 , . i t X : p Q w w } C w C [ t 1 | _ w y ] E ",
"0 5 . : w > . 5 w X . 6 5 . , p / t i } N w ~ ..y q } ` w Q ..E ",
"0 5 . : w > . > w - . 5 5 . : p Q y i } V 6 ~ ..y t } ) w i ..E ",
"0 5 + > 5 > . < q X . q 5 . : p ~ n y ~ C 9 Q ..y t C ) t M ` E ",
"0 6 4 3 w > . < 6 X . 1 , . < 2 ^ y i ( C t i ` y t ~ ) t M ) R ",
"g 8 f h 5 4 # 7 4 o 3 0 0 @ 7 e ~ y y ^ n 7 y n 9 9 ^ _ y i _ L ",
"b c c c g g $ k g % g c x c k f x x x x k * l z g k z F g x H P "
};
