/* XPM */
static char *cd60c72732c74464c5b8b075c639b2b9QdjA2HesCoz0zz8p[] = {
/* columns rows colors chars-per-pixel */
"32 26 178 2 ",
"   c None",
".  c black",
"X  c #282729",
"o  c #2E3336",
"O  c #373737",
"+  c #6F2300",
"@  c #4F3B35",
"#  c #545243",
"$  c #6B6A65",
"%  c #616475",
"&  c #7B7B7A",
"*  c #767676",
"=  c #D67C48",
"-  c #D57F71",
";  c #C8767A",
":  c #DC835F",
">  c #EF8D4A",
",  c #F59346",
"<  c #EB8B55",
"1  c #E98959",
"2  c #EE915E",
"3  c #F5995B",
"4  c #F69859",
"5  c #FDA25C",
"6  c #D58460",
"7  c #E58A64",
"8  c #EB8E65",
"9  c #E58C6A",
"0  c #EC9265",
"q  c #ED946B",
"w  c #EF996D",
"e  c #F39764",
"r  c #F29C6D",
"t  c #F29967",
"y  c #E28D73",
"u  c #E69378",
"i  c #F39D71",
"p  c #FC9E73",
"a  c #F5A374",
"s  c #FEA474",
"d  c #F9A26B",
"f  c #071F9E",
"g  c #07219F",
"h  c #0003AD",
"j  c #081EA1",
"k  c #001DB2",
"l  c #0625A3",
"z  c #0822A2",
"x  c #0529A6",
"c  c #0726A9",
"v  c #042DA9",
"b  c #0823A8",
"n  c #0233AC",
"m  c #1B35AC",
"M  c #052EB5",
"N  c #072AB5",
"B  c #0434B4",
"V  c #0539B7",
"C  c #0237BB",
"Z  c #023ABA",
"A  c #1535B4",
"S  c #2138B4",
"D  c #5035A5",
"F  c #4932A6",
"G  c #0542BE",
"H  c #5C638A",
"J  c #7A7E81",
"K  c #745ABE",
"L  c #002EC0",
"P  c #003CCD",
"I  c #033BC6",
"U  c #053ED5",
"Y  c #0342C5",
"T  c #0144CA",
"R  c #0448CE",
"E  c #0A4BCA",
"W  c #0845C6",
"Q  c #1646C6",
"!  c #0046D3",
"~  c #054DD4",
"^  c #084FD5",
"/  c #0045DA",
"(  c #014ADB",
")  c #084FD9",
"_  c #124DD2",
"`  c #0A51D6",
"'  c #0052DC",
"]  c #0C54DA",
"[  c #0F58DD",
"{  c #125ADF",
"}  c #1B5ADD",
"|  c #1655D8",
" . c #2A47CA",
".. c #254DD1",
"X. c #2758D9",
"o. c #3A53D5",
"O. c #3161DF",
"+. c #0044E4",
"@. c #034DE1",
"#. c #0054E4",
"$. c #015CE3",
"%. c #0054EC",
"&. c #075CE9",
"*. c #135DE2",
"=. c #1B5FE3",
"-. c #005FF2",
";. c #225EE1",
":. c #0064EC",
">. c #1561E5",
",. c #1A63E6",
"<. c #1563E9",
"1. c #1966EA",
"2. c #1C6AEE",
"3. c #0064F3",
"4. c #0069F4",
"5. c #006CFB",
"6. c #1D6CF2",
"7. c #1B6DFB",
"8. c #0070F7",
"9. c #1F72F6",
"0. c #1972F8",
"q. c #2863E5",
"w. c #2B6BEC",
"e. c #2565E7",
"r. c #366AE5",
"t. c #206EF1",
"y. c #2A6BF1",
"u. c #2371F4",
"i. c #207AFC",
"p. c #2A79FA",
"a. c #3578F7",
"s. c #515CDC",
"d. c #5F76CE",
"f. c #4B74EE",
"g. c #5578E5",
"h. c #6175E8",
"j. c #AC709A",
"k. c #B4729B",
"l. c #8059BC",
"z. c #8F65B5",
"x. c #9568B2",
"c. c #C87D90",
"v. c #9277CC",
"b. c #8A74D2",
"n. c #3981FB",
"m. c #4C85F9",
"M. c #728DEB",
"N. c #6E9BF9",
"B. c #7F9DF6",
"V. c #8D8B8A",
"C. c #AE8B81",
"Z. c #A39895",
"A. c gray63",
"S. c gray",
"D. c #CD8288",
"F. c #DF9083",
"G. c #D08793",
"H. c #F6AD8C",
"J. c #F5B291",
"K. c #D7AFBA",
"L. c #F6CEBD",
"P. c #95A4EE",
"I. c #89A1F2",
"U. c #97BCFE",
"Y. c #A3B3F4",
"T. c #D2D1D0",
"R. c #F9D5C7",
"E. c #F7DCD3",
"W. c #D5DCF7",
"Q. c #CAD3F8",
"!. c #DFE4FF",
"~. c #E6E6E7",
"^. c #FAF0EA",
"/. c #EDEEF8",
"(. c #E3E6F6",
"). c #F3F2F7",
"_. c #FCFCFC",
"`. c #F6F8F9",
/* pixels */
"                        >.*.*.*.} ] ) ) ] ~ R R                 ",
"                  <.,.7.6.<.=.q.$.*.] ] ` ' ( ( ( R T T T       ",
"              1.2.7.6.2.<.e.:.@.} Q ] ] ^ ^ ^ R I B B M N       ",
"  n         1.7.2.2.2.2.w.3.o.j.- F ' X.] ] W n n x l z         ",
"  n v   1.6.6.6.t.t.u.w.4.s.u 5 q D ~ =.] E n n n n M           ",
"  n x { 7.1.2.6.u.u.4.8.b.e a a y D T ;.[ G n n v N x           ",
"  B E 6.1.2.6.u.9.p.N.i.h.F.4 t D.h Q =.[ E n n B v             ",
"  R ,.<.1.2.u.u.0.n.U.m.5.f.G., ; h S =.[ ] G B n               ",
"  } ,.,.2.2.u.u.i.a.i.p.a.8.4.v.x.k A *.] ] ] V                 ",
"  :.,.<.,.2.6.u.a.5.5.5.3.a.t.4.:.,.| *.[ ] ` ~ ~               ",
"O.y.#.,.1.2.6.a.3.I.Q.!.B.-.w.w.w.,.*.{ [ [ ` ~ ) ( T           ",
"/.!./ e.,.2.w.%.U._._._._.I.-.w.<.*.{ { ] G W W T T ! / T       ",
"_._.g.#.,.w.#.Y._.T.~.`._.W.%.w.>.>.[ [ ] x l x x v C Y ( T     ",
"_._.d.#.r.#.M._.`.. & _._.).r.$.,.{ [ [ [ V x x l l g l C ! !   ",
"_.`.% ! +.#.(._.`.@ & _._./.e.$.*.{ [ ] ` B x x x l l z j b U   ",
"_._.# H P.W._._.`.o & _._./.O.$.} [ ] ] ` B x x x c N b z f z   ",
"_._.X $ _._.`._._.X * _._.W.+.} } ] ] ` ^ n x x c x             ",
"_._.$ & _.).`._.`.X V._.^.K.l.X.' | ^ ~ T x x v                 ",
"  A.T.)._._._.`._.~.`.E.1 < > c.o.( _ ~ Z x x T                 ",
"  . o C.Z.T._._._._.R.2 q q 7 > z.! ..Y v x v R @.              ",
"  @ . . + = H.L.E.J.4 r w 7 7 < x.!  .v v v x I ! T             ",
"    6 6 i i 0 3 3 d a t 7 7 9 < K P m v v v x B T /             ",
"    8 s 0 q i a a a q 8 q q , k.P m n n v v v x I ( T           ",
"      9 0 p r a a i i r r r c. .C A B B B M v v v R R           ",
"          q t s s s s p y j.L B m n       n x x l I T           ",
"                q q                               f Z           "
};
