/* XPM */
static char *_e3039723f364caa8b10f966e16a8bb2d4YiUllxwVpJ1cAQ[] = {
/* columns rows colors chars-per-pixel */
"26 32 179 2 ",
"   c None",
".  c black",
"X  c #282729",
"o  c #2E3336",
"O  c #373737",
"+  c #6F2300",
"@  c #4F3B35",
"#  c #545243",
"$  c #6B6A65",
"%  c #616475",
"&  c #7B7B7A",
"*  c #767676",
"=  c #D67C48",
"-  c #D57F71",
";  c #C8767A",
":  c #DC835E",
">  c #EF8D4A",
",  c #F59346",
"<  c #EA8A55",
"1  c #E98959",
"2  c #EE915E",
"3  c #F5995B",
"4  c #F69859",
"5  c #FCA25C",
"6  c #D58460",
"7  c #E58A63",
"8  c #EB8E65",
"9  c #E58C6A",
"0  c #EC9265",
"q  c #ED946A",
"w  c #EF996D",
"e  c #F39764",
"r  c #F29C6D",
"t  c #F29967",
"y  c #E28D73",
"u  c #E69378",
"i  c #F39E71",
"p  c #FB9E73",
"a  c #F5A375",
"s  c #FEA474",
"d  c #F8A26B",
"f  c #071F9E",
"g  c #07219F",
"h  c #0003AD",
"j  c #081EA1",
"k  c #001DB2",
"l  c #0625A3",
"z  c #0822A2",
"x  c #0529A6",
"c  c #0726A9",
"v  c #042DA9",
"b  c #0823A8",
"n  c #0233AC",
"m  c #1B35AC",
"M  c #052EB5",
"N  c #072AB5",
"B  c #0434B4",
"V  c #0539B7",
"C  c #0237BB",
"Z  c #023ABA",
"A  c #1535B4",
"S  c #2138B4",
"D  c #5035A5",
"F  c #4932A6",
"G  c #0542BE",
"H  c #5C638A",
"J  c #7A7D81",
"K  c #745ABE",
"L  c #002EC0",
"P  c #003CCD",
"I  c #033BC6",
"U  c #053ED5",
"Y  c #0342C5",
"T  c #0144CA",
"R  c #0448CE",
"E  c #0A4BCA",
"W  c #0845C6",
"Q  c #1646C6",
"!  c #0045D3",
"~  c #054DD4",
"^  c #084FD5",
"/  c #014ADB",
"(  c #084FD9",
")  c #0047D8",
"_  c #124DD2",
"`  c #0A51D6",
"'  c #0052DC",
"]  c #0C55DA",
"[  c #0F58DD",
"{  c #125ADF",
"}  c #1B5ADD",
"|  c #1655D8",
" . c #2A47CA",
".. c #254DD1",
"X. c #2758D9",
"o. c #3A53D5",
"O. c #3161DF",
"+. c #0044E3",
"@. c #034DE1",
"#. c #0054E4",
"$. c #015CE3",
"%. c #0054EC",
"&. c #075CE9",
"*. c #135DE2",
"=. c #1B5FE3",
"-. c #005FF2",
";. c #225EE1",
":. c #0064EC",
">. c #1561E5",
",. c #1A63E6",
"<. c #1563E9",
"1. c #1966EA",
"2. c #1C6AEE",
"3. c #0064F3",
"4. c #0069F4",
"5. c #006CFA",
"6. c #1D6CF1",
"7. c #1B6DFB",
"8. c #0070F7",
"9. c #1F72F5",
"0. c #1972F8",
"q. c #2863E5",
"w. c #2B6BEC",
"e. c #2565E7",
"r. c #366AE5",
"t. c #206EF1",
"y. c #2A6BF1",
"u. c #2371F4",
"i. c #207AFC",
"p. c #2A79F9",
"a. c #347BFA",
"s. c #3576F4",
"d. c #515CDC",
"f. c #5F76CE",
"g. c #4B74EE",
"h. c #5578E5",
"j. c #6175E8",
"k. c #AB709A",
"l. c #B4729B",
"z. c #8059BC",
"x. c #8F65B5",
"c. c #9568B2",
"v. c #C87D90",
"b. c #9277CC",
"n. c #8A74D2",
"m. c #3981FB",
"M. c #4C85F9",
"N. c #728DEB",
"B. c #6E9BF9",
"V. c #7F9DF6",
"C. c #8D8B8A",
"Z. c #AE8B81",
"A. c #A39795",
"S. c #A1A0A1",
"D. c gray",
"F. c #CD8288",
"G. c #DF9083",
"H. c #D08793",
"J. c #F6AD8C",
"K. c #F5B291",
"L. c #D7AFBA",
"P. c #F6CDBD",
"I. c #95A4ED",
"U. c #89A1F2",
"Y. c #97BCFE",
"T. c #A2B3F4",
"R. c #D2D1D0",
"E. c #F9D5C7",
"W. c #F7DCD3",
"Q. c #D5DCF7",
"!. c #CAD3F8",
"~. c #DFE4FF",
"^. c #E5E6E7",
"/. c #FAF0EA",
"(. c #EDEEF8",
"). c #E3E6F6",
"_. c #F3F2F7",
"`. c #FCFCFC",
"'. c #F6F8F9",
/* pixels */
"                    r._.`.`.`.`.'.`.                ",
"      n n n B E =.&.y.Q.`.`.'.`.`.`.S.. @           ",
"        v x E <.*.,.$./ h.f.% # X $ R.X . : 8       ",
"          { 2.<.<.<.,.e.#.#.) H $ J '.Z.. : s 7     ",
"        1.7.1.1.1.2.1.,.,.r.+.I.`.`.`.A.+ i 8 q     ",
"        6.1.2.2.2.2.2.1.w.#.#.Q.`.'.`.R.= i q p q   ",
"      1.6.2.6.6.u.6.t.w.%.N.).`.'.'.'.`.J.2 i i q   ",
"    1.7.6.u.u.u.u.u.s.%.T.`.`.'.`.`.`.`.E.4 i i s   ",
"    2.2.t.u.9.9.i.s.3.T.`.'.'._.'.'.'.`.W.3 a a s q ",
"  ,.7.2.t.u.p.m.a.5.U.`.R.. @ o X X ^.`.K.d s i s q ",
"  <.6.2.u.4.B.Y.0.5.!.`.^.& & & & C.'.E.4 a q i s   ",
"  7.1.2.y.5.i.M.a.5.~.`.`.`.`.`.`.`.W.2 r q 8 r p   ",
"<.6.<.y.4.n.j.5.a.5.V.`.`.`.`.'.`./.1 q w 7 q e y   ",
"*.*.q.3.d.0 G.g.5.s.-.U.Q.(.(._.Q.L.< q 7 7 q e k.  ",
"*.=.:.o.u a 3 H.4.t.w.&.#.r.e.r.+.z.> 9 9 9 , v.L   ",
"*.;.#.l.5 a r , b.4.w.w.w.:.$.' } X.v.> 1 2 l. .n   ",
"{ $...- q w F.; c.:.e.>.>.>.=.} } ' d.x.x.K P C m   ",
"] *.Q F D D h h N =.<.>.*.*.*.[ ] | ~ ! ! T m A n   ",
"` [ ] ' ) T Q A A | <.*.{ [ [ ] ] ~ E .. .m v B     ",
"` ` [ } } e.=.>.*.*.[ *.[ [ ] ` ` ~ ~ Y v v n B     ",
"` ` ` ] [ ] [ ] ] [ [ ^ ` ] ` ^ ~ W V v v v v B     ",
"~ ( ^ ` E G E [ ] ] { Z x V V V B x x x v v v M v   ",
"R #.~ W n n n Y ` ` ` W l x x x x v x v x x v M x   ",
"R / R n n n n B V ^ ~ W x x x x x x T T Y B x x v   ",
"  / I n n v B n   ~ / R x l x l v     @.~ T I v l   ",
"  T V x x B v       / T v z l l l       T ) / ! I g ",
"  T B l N x         T ! V z l N             T T T Z ",
"  T N z               / T l z b                     ",
"  T N                 T / V j z                     ",
"                        T ! b j                     ",
"                          ! U z                     ",
"                                                    "
};
