/* XPM */
static char *_52f8f8bd7d04c81f43a81bcb28c7d349lBGthSUEdQAs1aC[] = {
/* columns rows colors chars-per-pixel */
"32 26 178 2 ",
"   c None",
".  c black",
"X  c #282729",
"o  c #2E3336",
"O  c #373737",
"+  c #6F2300",
"@  c #4F3B35",
"#  c #545243",
"$  c #6B6A65",
"%  c #616475",
"&  c #7B7B7A",
"*  c #767676",
"=  c #D67C48",
"-  c #D57F71",
";  c #C8767A",
":  c #DC835F",
">  c #EF8D4A",
",  c #F59346",
"<  c #EB8B55",
"1  c #E98959",
"2  c #EE915E",
"3  c #F5995B",
"4  c #F69859",
"5  c #FDA25C",
"6  c #D58460",
"7  c #E58A64",
"8  c #EB8E65",
"9  c #E58C6A",
"0  c #EC9265",
"q  c #ED946B",
"w  c #EF996D",
"e  c #F39764",
"r  c #F29C6D",
"t  c #F29967",
"y  c #E28D73",
"u  c #E69378",
"i  c #F39D71",
"p  c #FC9E73",
"a  c #F5A374",
"s  c #FEA474",
"d  c #F9A26B",
"f  c #071F9E",
"g  c #07219F",
"h  c #0003AD",
"j  c #081EA1",
"k  c #001DB2",
"l  c #0625A3",
"z  c #0822A2",
"x  c #0529A6",
"c  c #0726A9",
"v  c #042DA9",
"b  c #0823A8",
"n  c #0233AC",
"m  c #1B35AC",
"M  c #052EB5",
"N  c #072AB5",
"B  c #0434B4",
"V  c #0539B7",
"C  c #0237BB",
"Z  c #023ABA",
"A  c #1535B4",
"S  c #2138B4",
"D  c #5035A5",
"F  c #4932A6",
"G  c #0542BE",
"H  c #5C638A",
"J  c #7A7E81",
"K  c #745ABE",
"L  c #002EC0",
"P  c #003CCD",
"I  c #033BC6",
"U  c #053ED5",
"Y  c #0342C5",
"T  c #0144CA",
"R  c #0448CE",
"E  c #0A4BCA",
"W  c #0845C6",
"Q  c #1646C6",
"!  c #0046D3",
"~  c #054DD4",
"^  c #084FD5",
"/  c #0045DA",
"(  c #014ADB",
")  c #084FD9",
"_  c #124DD2",
"`  c #0A51D6",
"'  c #0052DC",
"]  c #0C54DA",
"[  c #0F58DD",
"{  c #125ADF",
"}  c #1B5ADD",
"|  c #1655D8",
" . c #2A47CA",
".. c #254DD1",
"X. c #2758D9",
"o. c #3A53D5",
"O. c #3161DF",
"+. c #0044E4",
"@. c #034DE1",
"#. c #0054E4",
"$. c #015CE3",
"%. c #0054EC",
"&. c #075CE9",
"*. c #135DE2",
"=. c #1B5FE3",
"-. c #005FF2",
";. c #225EE1",
":. c #0064EC",
">. c #1561E5",
",. c #1A63E6",
"<. c #1563E9",
"1. c #1966EA",
"2. c #1C6AEE",
"3. c #0064F3",
"4. c #0069F4",
"5. c #006CFB",
"6. c #1D6CF2",
"7. c #1B6DFB",
"8. c #0070F7",
"9. c #1F72F6",
"0. c #1972F8",
"q. c #2863E5",
"w. c #2B6BEC",
"e. c #2565E7",
"r. c #366AE5",
"t. c #206EF1",
"y. c #2A6BF1",
"u. c #2371F4",
"i. c #207AFC",
"p. c #2A79FA",
"a. c #3578F7",
"s. c #515CDC",
"d. c #5F76CE",
"f. c #4B74EE",
"g. c #5578E5",
"h. c #6175E8",
"j. c #AC709A",
"k. c #B4729B",
"l. c #8059BC",
"z. c #8F65B5",
"x. c #9568B2",
"c. c #C87D90",
"v. c #9277CC",
"b. c #8A74D2",
"n. c #3981FB",
"m. c #4C85F9",
"M. c #728DEB",
"N. c #6E9BF9",
"B. c #7F9DF6",
"V. c #8D8B8A",
"C. c #AE8B81",
"Z. c #A39895",
"A. c gray63",
"S. c gray",
"D. c #CD8288",
"F. c #DF9083",
"G. c #D08793",
"H. c #F6AD8C",
"J. c #F5B291",
"K. c #D7AFBA",
"L. c #F6CEBD",
"P. c #95A4EE",
"I. c #89A1F2",
"U. c #97BCFE",
"Y. c #A3B3F4",
"T. c #D2D1D0",
"R. c #F9D5C7",
"E. c #F7DCD3",
"W. c #D5DCF7",
"Q. c #CAD3F8",
"!. c #DFE4FF",
"~. c #E6E6E7",
"^. c #FAF0EA",
"/. c #EDEEF8",
"(. c #E3E6F6",
"). c #F3F2F7",
"_. c #FCFCFC",
"`. c #F6F8F9",
/* pixels */
"                T ~ ~ ) ` ` ] { *.*.*.>.                        ",
"      T T T T ( ) #.) ` ] ] *.%.;.;.<.7.7.>.<.                  ",
"      N M B C Y R ~ ~ ` ] ] Q X.@.:.q.<.2.6.7.2.1.              ",
"        z l x v n Y ] ] } ' F 6 k.o.3.w.2.2.2.2.7.1.        n   ",
"          N v n n n E [ ;.( D q 5 F.s.4.w.u.6.t.6.6.6.,.  v n   ",
"          x B v n n G [ e.T D w a a 0 b.8.4.9.u.6.2.1.7.{ x n   ",
"            v B n n E ] *.Q h D.r 4 F.h.i.N.a.9.u.6.2.1.6.E V   ",
"              v B G ] { *.S h ; , G.f.8.m.U.n.0.u.9.2.1.<.<.W   ",
"                V ` ] [ >.A k x.v.4.5.a.p.i.a.i.u.u.2.1.1.>.{   ",
"              ~ ^ ^ ] [ { { } :.3.t.a.5.5.5.5.a.u.6.2.1.>.,.<.  ",
"          T ( ( ^ ] ] [ [ >.>.e.w.w.3.I.W.Q.I.3.a.2.2.1.,.$.y.;.",
"      T ( ! T R W W G ` { *.>.>.w.&.I._._._._.Y.%.w.2.,.e.+.(.).",
"    T ( T C v v l l v ` { *.>.>.e.%.W._.`.~.T._.Y.%.w.,.#.g._._.",
"  ! ! V l f l l x l V ] [ [ *.,.:.w.)._._.& . `._.M.#.r.#.d._._.",
"  U b j z l l x x x B ` ] [ [ } :.q./._._.& @ `._.(.@.+.! % `._.",
"  z f z b N c l x x B ` ` ] [ >.] O.).`._.& o `._._.W.P.H # _._.",
"            l v x x n ^ ` ] ] } } @.W._._.* o `._.`._._.$ X _.`.",
"                v v x T ^ ~ | ' X.l.K.^._.V.X )._.`.`._.J $ _._.",
"                Y v x V ~ _ ~ o.c.> < 1 E.`.~._.`.`._._.).T.A.  ",
"              @.T n x x I ..! z.> 9 q q 2 R._._._._.T.Z.C.o .   ",
"            T ! Y v v v v  ./ z.< 7 7 t i 4 J.E.L.H.= + . . @   ",
"            / T B l v v v m P K < 9 7 9 q i d 3 3 e i i : :     ",
"          T ( I l x v v v n m P k., w q 8 q a a i i e 8 s 8     ",
"          T ! v v M B n B C A C  .c.t t r i a a i w p 0 9       ",
"          T I c v v v       n m n L j.y p s s s s q q           ",
"          C f                               q q                 "
};
