/* XPM */
static char *_2dadf9d71bb4397c0540eb6d434761chi0qLieTRFY8Et2y[] = {
/* columns rows colors chars-per-pixel */
"26 32 180 2 ",
"   c None",
".  c black",
"X  c #282729",
"o  c #2E3336",
"O  c #373737",
"+  c #6F2300",
"@  c #4F3B35",
"#  c #545243",
"$  c #6B6A65",
"%  c #616475",
"&  c #7B7B7A",
"*  c #767676",
"=  c #D67C48",
"-  c #D57F71",
";  c #C8767A",
":  c #DC835E",
">  c #EF8D4A",
",  c #F59346",
"<  c #EA8A55",
"1  c #E98959",
"2  c #EE915E",
"3  c #F5995B",
"4  c #F69859",
"5  c #FCA25C",
"6  c #D58460",
"7  c #E58A63",
"8  c #EB8E65",
"9  c #E58C6A",
"0  c #EC9265",
"q  c #ED946A",
"w  c #EF996D",
"e  c #F39764",
"r  c #F29C6D",
"t  c #F29967",
"y  c #E28D73",
"u  c #E69378",
"i  c #F39E71",
"p  c #FB9E73",
"a  c #F5A375",
"s  c #FEA474",
"d  c #F8A26B",
"f  c #071F9E",
"g  c #07219F",
"h  c #0003AD",
"j  c #081EA1",
"k  c #001DB2",
"l  c #0625A3",
"z  c #0822A2",
"x  c #0529A6",
"c  c #0726A9",
"v  c #042DA9",
"b  c #0823A8",
"n  c #0233AC",
"m  c #1B35AC",
"M  c #052EB5",
"N  c #072AB5",
"B  c #0434B4",
"V  c #0539B7",
"C  c #0237BB",
"Z  c #023ABA",
"A  c #1535B4",
"S  c #2138B4",
"D  c #5035A5",
"F  c #4932A6",
"G  c #0542BE",
"H  c #5C638A",
"J  c #7A7D81",
"K  c #745ABE",
"L  c #002EC0",
"P  c #003CCD",
"I  c #033BC6",
"U  c #053ED5",
"Y  c #0342C5",
"T  c #0144CA",
"R  c #0448CE",
"E  c #0A4BCA",
"W  c #0845C6",
"Q  c #1646C6",
"!  c #0045D3",
"~  c #054DD4",
"^  c #084FD5",
"/  c #014ADB",
"(  c #084FD9",
")  c #0047D8",
"_  c #124DD2",
"`  c #0A51D6",
"'  c #0052DC",
"]  c #0C55DA",
"[  c #0F58DD",
"{  c #125ADF",
"}  c #1B5ADD",
"|  c #1655D8",
" . c #2A47CA",
".. c #254DD1",
"X. c #2758D9",
"o. c #3A53D5",
"O. c #3161DF",
"+. c #0044E3",
"@. c #034DE1",
"#. c #0054E4",
"$. c #015CE3",
"%. c #0054EC",
"&. c #075CE9",
"*. c #135DE2",
"=. c #1B5FE3",
"-. c #005FF2",
";. c #225EE1",
":. c #0064EC",
">. c #1561E6",
",. c #1561E5",
"<. c #1A63E6",
"1. c #1563E9",
"2. c #1966EA",
"3. c #1C6AEE",
"4. c #0064F3",
"5. c #0069F4",
"6. c #006CFA",
"7. c #1D6CF1",
"8. c #1B6DFB",
"9. c #0070F7",
"0. c #1F72F5",
"q. c #1972F8",
"w. c #2863E5",
"e. c #2B6BEC",
"r. c #2565E7",
"t. c #366AE5",
"y. c #206EF1",
"u. c #2A6BF1",
"i. c #2371F4",
"p. c #207AFC",
"a. c #2A79F9",
"s. c #347BFA",
"d. c #3576F4",
"f. c #515CDC",
"g. c #5F76CE",
"h. c #4B74EE",
"j. c #5578E5",
"k. c #6175E8",
"l. c #AB709A",
"z. c #B4729B",
"x. c #8059BC",
"c. c #8F65B5",
"v. c #9568B2",
"b. c #C87D90",
"n. c #9277CC",
"m. c #8A74D2",
"M. c #3981FB",
"N. c #4C85F9",
"B. c #728DEB",
"V. c #6E9BF9",
"C. c #7F9DF6",
"Z. c #8D8B8A",
"A. c #AE8B81",
"S. c #A39795",
"D. c #A1A0A1",
"F. c gray",
"G. c #CD8288",
"H. c #DF9083",
"J. c #D08793",
"K. c #F6AD8C",
"L. c #F5B291",
"P. c #D7AFBA",
"I. c #F6CDBD",
"U. c #95A4ED",
"Y. c #89A1F2",
"T. c #97BCFE",
"R. c #A2B3F4",
"E. c #D2D1D0",
"W. c #F9D5C7",
"Q. c #F7DCD3",
"!. c #D5DCF7",
"~. c #CAD3F8",
"^. c #DFE4FF",
"/. c #E5E6E7",
"(. c #FAF0EA",
"). c #EDEEF8",
"_. c #E3E6F6",
"`. c #F3F2F7",
"'. c #FCFCFC",
"]. c #F6F8F9",
/* pixels */
"                                                    ",
"                    z U !                           ",
"                    f b ! T                         ",
"                    z j B / T                 N T   ",
"                    b z l T /               g M T   ",
"Z T T T             M z g B ) T         x M l B T   ",
"g I ! ) ) T       l c l l v T /       v M v x V T   ",
"  l v I T ! @.    M l x l v R ~ ~   n B v n v Y /   ",
"  v v l n Y T T v v x x x x W ^ ^ Z B n n n n R / ! ",
"  x M v x x v v x l x l l l W ] ` ` G n n n W ~ @.R ",
"  v M v v v x x v n B B V x Y ] ] ] ] R G E ` ^ ] ~ ",
"    B v v v v V W ~ ` ] ] ` ` [ [ ] [ [ [ [ ] ` ^ ( ",
"    B n v v G ~ ^ ` ] ] ] [ *.[ *.>.*.*.;.;.} ] ] ` ",
"    B v m  ..._ ~ ] ] [ { *.*.,.] m S Q T ~ ' ] ] ` ",
"  n A m P ! ) ~ | ] [ *.*.*.,.>.=.N h h D D F Q *.] ",
"  m I P K c.c.o.' } } *.=.>.1.r.:.v.; G.u u 6 ..$.} ",
"  B  .z.1 < > b.O.} ' $.:.e.e.e.5.n., r a 5 z.#.;.{ ",
"  L b., 9 7 7 > x.@.t.;.t.%.%.e.y.5.J.4 a u o.-.;.*.",
"  l.e q 7 7 q < P.!.`.).).!.Y.-.d.9.h.H.2 f.4.r.1.*.",
"  y t q 7 w 0 1 (.'.].'.'.'.'.C.6.d.9.k.m.5.e.2.8.*.",
"  p r 8 q r 2 Q.'.'.'.'.'.'.'.^.6.s.N.q.9.a.3.2.8.  ",
"  s i q a 4 W.].Z.* J & * /.'.~.6.p.T.V.5.u.3.7.,.  ",
"q s a a d L.'./.X o o @ . E.'.Y.6.s.s.s.i.0.3.8.<.  ",
"q s a a 5 W.'.].`.].].].].'.T.4.d.p.q.i.i.3.3.3.    ",
"  s i a 3 I.'.].'.].'.'.'.R.%.d.i.i.i.i.7.7.8.2.    ",
"  t w i 0 K.'.'.'.].'._.B.%.e.7.7.y.i.7.3.7.2.      ",
"  q p q i = E.'.`.'.!.#.#.e.3.2.3.3.3.3.3.7.        ",
"    0 0 i + S.'.'.'.U.+.t.r.<.2.2.3.2.2.8.1.        ",
"    9 s 6 . A.'.J $ H ) #.#.r.<.1.<.1.7.}           ",
"      0 6 . o P.$ X # % g.j.+.%.<.,.,.E v n         ",
"          @ . D.'.'.'.].'.'._.u.:.} W B n n n       ",
"                '.].'.'.'.'.`.O.                    "
};
