/* XPM */
static char *_c4f1ade1a04446eb65a88d6393fdc49gXMOfJyynpTWmIdN[] = {
/* columns rows colors chars-per-pixel */
"32 32 27 1 ",
"  c #853700",
". c #853800",
"X c #873900",
"o c #873A00",
"O c #8B3F00",
"+ c #8B4000",
"@ c #8D4200",
"# c #8E4300",
"$ c #904500",
"% c #914600",
"& c #934800",
"* c #974D00",
"= c #984E00",
"- c #AD6400",
"; c #B96F00",
": c #BA7000",
"> c #BC7200",
", c #C27800",
"< c #C37800",
"1 c #CE8200",
"2 c #CF8400",
"3 c #D08400",
"4 c #D48800",
"5 c #D68A00",
"6 c #D88C00",
"7 c #DA8D00",
"8 c #DE9100",
/* pixels */
"555555555555547;X@O@+@+@+@+@+@+@",
"555555555555557> %@O@+@+@+@+@+@+",
"555555555555556; @@O+@+@+@+@+@+@",
"555555555555546; @@@@+@+@+@+@+@+",
"555555555555557; @O@O@+@+@+@+@+@",
"555555555555567> %@@@O@+@+@+@+@+",
"555555555555547; @@OO@O@+@+@+@+@",
"555555555555556; @@@@@@O@+@+@+@+",
"555555555555556>.#+@+@+@+@+@+@+@",
"555555555555546;.@@+@+@+@+@+@+@+",
"555555555555556; @+@+@+@+@+@+@+@",
"555555555555666>.@@+@+@+@+@+@+@+",
"555555555555556>.@@@+@+@+@+@+@+@",
"555555555555556:.@@@@+@+@+@+@+@+",
"666666666666568>.@OO++++++++O@OO",
",,,<<<<<<<<<<,<-O%@%%%#%%#%%@%%@",
"XX..XX..OX... .&1333333333333333",
"#@@@#@@@+@#@@@@=5565556556566556",
"@@O@+@+@@@@+@@.=3555555555555555",
"O@@@+@@+@+O@@@O*5555555555555555",
"@@O@+@+@+@+@@@O*5555555555555555",
"@O@+@+@+@+@+@@.=3555555555555555",
"+@+@+@+@+@+@+@O*5555555555555555",
"@+@+@+@+@+@+@@.*5555555555555555",
"+@+@+@+@@+@+@@O*5555555555555555",
"@+@+@+@++@+@+@.*3555555555555555",
"+@+@+@+@@+@+@@O*5555555555555555",
"@+@+@+@++@+@+@O*5555555555555555",
"+@+@+@+@@+@+@@O*3555555555555555",
"@+@+@+@++@+@+@.*5555555555555555",
"+@+@+@+@@+@+@@O*5555555555555555",
"@+@+@+@++@+@+@O=3555555555555555"
};
