/* XPM */
static char *f5b9f74932a34a699e068e9ec49fbccfv5YZzLemyVX7ak1D[] = {
/* columns rows colors chars-per-pixel */
"60 64 242 2 ",
"   c None",
".  c #814801",
"X  c #954800",
"o  c #985902",
"O  c #8C5219",
"+  c #8E5F00",
"@  c #A55D00",
"#  c #976303",
"$  c #A36400",
"%  c #BA6A00",
"&  c #BD7605",
"*  c #B97718",
"=  c #AC7708",
"-  c #925A27",
";  c #9B6C3E",
":  c #AC6E29",
">  c #C26A01",
",  c #C67B02",
"<  c #CB7C04",
"1  c #C67808",
"2  c #C77B16",
"3  c #A97746",
"4  c #BF821A",
"5  c #B38B03",
"6  c #AF8929",
"7  c #CC8301",
"8  c #CC8B01",
"9  c #C88708",
"0  c #D38D02",
"q  c #D88B0D",
"w  c #D68907",
"e  c #CC9901",
"r  c #D59302",
"t  c #D99502",
"y  c #DB9C00",
"u  c #D99909",
"i  c #CC8914",
"p  c #D58616",
"a  c #DB9211",
"s  c #D89D17",
"d  c #C8971A",
"f  c #E39A03",
"g  c #E59C17",
"h  c #CCA806",
"j  c #DCA302",
"k  c #D4AB01",
"l  c #DEAC02",
"z  c #D9A508",
"x  c #DDB602",
"c  c #DDA416",
"v  c #D0BC1C",
"b  c #E4A303",
"n  c #E2AB01",
"m  c #E7A50A",
"M  c #E5B200",
"N  c #E3BB01",
"B  c #ECBD00",
"V  c #E8B809",
"C  c #F8BA03",
"Z  c #E3A419",
"A  c #E7AA1B",
"S  c #E4A816",
"D  c #EBB31D",
"F  c #E9B71A",
"G  c #F5BA15",
"H  c #C48A26",
"J  c #D38722",
"K  c #C89437",
"L  c #D69836",
"P  c #CD9A23",
"I  c #E29A26",
"U  c #DEA329",
"Y  c #D6B82C",
"T  c #D7AA32",
"R  c #DDB437",
"E  c #CFB02A",
"W  c #E7AB24",
"Q  c #ECBD24",
"!  c #E7B728",
"~  c #F2BC24",
"^  c #F3BD2A",
"/  c #EABA38",
"(  c #F4BD35",
")  c #EDAC33",
"_  c #DEC303",
"`  c #EDC302",
"'  c #E4C700",
"]  c #F3C401",
"[  c #FDC502",
"{  c #F6CB02",
"}  c #FCCD01",
"|  c #F8CA0B",
" . c #FDD303",
".. c #FEDC03",
"X. c #FED30D",
"o. c #FEDB0E",
"O. c #EBC51B",
"+. c #F5CD1D",
"@. c #F9C81B",
"#. c #FFDB15",
"$. c #FDD41D",
"%. c #FEDA1B",
"&. c #F6D31D",
"*. c #EFD11C",
"=. c #FFE309",
"-. c #FEE11C",
";. c #DBC437",
":. c #ECC22D",
">. c #E6C727",
",. c #F3C424",
"<. c #F4CC22",
"1. c #FACE22",
"2. c #F7CB2B",
"3. c #FBD423",
"4. c #FEDB24",
"5. c #FEDB2B",
"6. c #F6D527",
"7. c #E9C635",
"8. c #F1CB33",
"9. c #F7C837",
"0. c #ECD539",
"q. c #F5D334",
"w. c #FCD235",
"e. c #FDDB34",
"r. c #FAD53C",
"t. c #F2DB3D",
"y. c #FDDC3B",
"u. c #F3D53A",
"i. c #FEE226",
"p. c #FFE42B",
"a. c #FFE434",
"s. c #FCE83D",
"d. c #FFF23A",
"f. c #A68954",
"g. c #AF8A4A",
"h. c #BA9D69",
"j. c #C6964A",
"k. c #D38E4A",
"l. c #D5A458",
"z. c #DCB857",
"x. c #CFAB52",
"c. c #E7AD48",
"v. c #E9B747",
"b. c #F2BF43",
"n. c #E9B756",
"m. c #F4B955",
"M. c #C8A96E",
"N. c #DAAB63",
"B. c #CEAE73",
"V. c #E6BA67",
"C. c #E3B777",
"Z. c #E8C946",
"A. c #F7CA47",
"S. c #FCDB43",
"D. c #FED54B",
"F. c #FEDC4C",
"G. c #F6D649",
"H. c #EAC85B",
"J. c #F5CE58",
"K. c #FDDD53",
"L. c #FCDA5B",
"P. c #F6D957",
"I. c #FEE242",
"U. c #FEE34C",
"Y. c #FFEB4D",
"T. c #FEEC44",
"R. c #FFF24B",
"E. c #FEF345",
"W. c #FEE453",
"Q. c #FFEB53",
"!. c #FEE45B",
"~. c #FEEB5D",
"^. c #F5E45B",
"/. c #FFF859",
"(. c #D8C46E",
"). c #EAC665",
"_. c #EAD468",
"`. c #F4DC63",
"'. c #FCDD64",
"]. c #F6D968",
"[. c #E2C877",
"{. c #F3CA77",
"}. c #ECD677",
"|. c #F9DC78",
" X c #F9CF66",
".X c #FCE464",
"XX c #FDEA64",
"oX c #FCE46C",
"OX c #FDEB6C",
"+X c #F6E368",
"@X c #FFF46B",
"#X c #FFF567",
"$X c #FDE674",
"%X c #FDEC74",
"&X c #FEE77C",
"*X c #FEEC7B",
"=X c #F4E379",
"-X c #FCF27C",
";X c #FBF377",
":X c #EEE07B",
">X c #D9C282",
",X c #E9D78A",
"<X c #F6D690",
"1X c #ECD085",
"2X c #CEFD8C",
"3X c #D4FC8C",
"4X c #DCFA8B",
"5X c #DEF78A",
"6X c #FDE584",
"7X c #FDED83",
"8X c #FDEC8A",
"9X c #F5E787",
"0X c #E4F68B",
"qX c #EBF58B",
"wX c #E4FA8C",
"eX c #ECF98B",
"rX c #ECF786",
"tX c #F6F384",
"yX c #FCF382",
"uX c #F3F38B",
"iX c #FBF48D",
"pX c #F4F98C",
"aX c #F8FA88",
"sX c #FEED94",
"dX c #FDED9D",
"fX c #F8E690",
"gX c #FDF293",
"hX c #FEF39B",
"jX c #FAF998",
"kX c #E5FA94",
"lX c #ECDAA6",
"zX c #F9EDA5",
"xX c #FFF4A2",
"cX c #FEF5AB",
"vX c #FFFAAC",
"bX c #FBECB5",
"nX c #FFF9B8",
"mX c #FEF7C8",
"MX c #FFFCDD",
"NX c #FEF7D6",
"BX c #FEFDE3",
"VX c #FFFEF8",
/* pixels */
"                                                                                                                        ",
"                                                                                                                        ",
"                                                                                                                        ",
"                                                                                                                        ",
"                                                                                                                        ",
"                                                                                                                        ",
"                                                                                                                        ",
"                                                                                                                        ",
"                                                                                                                        ",
"                                                      NXVXMX&XU.W.K.D.                                                  ",
"                                              OX~.U.~.nXBXmXY.-.a.p.5.y.D.D.F.                                          ",
"                                          %XyX@XR.Q.Y.~.OXQ.-.o.-.-.#.#.%.%.4.y.D.                                      ",
"                                      7XvXvXjXQ.=.gXsXG.] ] ] ,.2.1.&.%.-.o. .X.$.1.A.'.                                ",
"                                  -XvXvXjX%XK.+.N C.N.L L N.L 0 0 r z A O.+.%.%...} 1.2.A.                              ",
"                                yXjXhX7XD.B z e w i 7 , k.B.H K l.l.9 i q c F ,.3.$. .} @.9.                            ",
"                              @XaXiXK.B z 8 1 1 7 8 8 e T z.k [.bXlXh d 9 8 8 u D +.%.X.} | 9.D.                        ",
"                            R./.Q.} M 9 * 1 0 u j k l O.O.` +.dXMXmXZ.>.x k h e 0 c F &.#.} [ 3.w.                      ",
"                          R.d.4.{ c * 1 w u j k N <.y.F.!.XX%XsXcXdXOXU.e.+.N k h e u D 3.#. .} $.y.                    ",
"                        Y.d.i.+.c & 7 q j l ` q.U..X%X-XtXyXiXiXgXuX8X*XoX!.D.<.N k h u A 3.%. .} 3.                    ",
"                      Y.d.i.+.A * , r l ` <.F.XX;XyXuXeX0XwXwXwX0XqXeXqXtX7X$X!.u.F l h z A 3.#.}  .3.                  ",
"                      E.p.6.Y 9 , w n ` q.!.%XtXeXwXwX4X3X3X3X3X3X3X4X4XwXeXuX7XoXF.:.V c c F 3.#.}  .p.                ",
"                    Q.d.5.Q s 9 7 j ` u..X-XtXwX4X3X3X                3X3X4XwXqXyX&XL.:.` S c ,.4.X.} 3.q.              ",
"                  ~.T.p.<.Y P 9 r B q.'.yXrX4X3X3X                        2X3X5XqXtX&XL.:.M S A 2.%. . .&.              ",
"                  Q.d.6.! T 4 7 n 2..X-XeXwX3X                                2X4X0XtX*XL.^ n u ~ 5.&. .=.6.            ",
"                .XY.p.8.Z.K & 8 ~ P.*XrXwX3X                                    2X4X0XiX$XJ.m t Z 2.5.{ o.6.            ",
"                @XR.3.Z.z.: % u b.$XtX5X3X                                        3X4XqX8X'.b.t a ,.5.1.{ -.            ",
"                #Xa.9.H.x.: & L H.tX0X3X                                            3XwXuX7XJ.W 0 ! e.6.{ %.I.          ",
"              OXQ.%.G.[.g.$ & c.=XrX4X2X                                            2X3XqX8X$Xb.q g q.a.*.*.s.          ",
"              OXY.5._.(.; @ i z.7X0X3X                                                2X0XuX6XL.I w 9.y.*.*.t.          ",
"              @XT.r.}.B.- o j._.uX4X3X                                                2X4XqX6X|.) f ^ U.0.O.t.          ",
"              @Xa.L.}.h.O o j.}.qX3X2X                                                  3X0XuX&Xm.g ^ W.G.>.0.#X        ",
"              @Xi.'.,Xf.. o x.}.qX3X                                                    3X0X8X6X X) ^ ~.P.>.0.@X        ",
"            7X@Xp.].,Xf.. $ z.=XwX3X                                                    2X0XuXsX|.( ,..X+X>.0.#X        ",
"            7X@X=.+X,Xf.+ 5 ).tXwX3X                                                    2X5XuXsX6XD.1.$X=X7.0.+X        ",
"            7X@Xa..X,Xx.5 E _.rXwX3X                                                    2X5XuXdXsX!.5.$X=X7.0.^.        ",
"            8XjXcXbXkX(.h ;.+XrX0X3X                                                    2X4XuXzXdX.Xe.6X9X;.O.^.        ",
"              xXMXBXbX_.>.>.^.;XwX3X                                                    2X0XuXxXgX!.y.6X9XE h Z.        ",
"              6XcXbXfX}.;._ ^.:XeX3X                                                    3X0XsXdXiXF.K.8X1X6 5 R         ",
"              |.A.| W.}.;._ S.OXrX4X2X                                                  3XqXsXxX&Xa..XsXM.O =           ",
"              <Xm.! K.+X;._ *.!.tX0X3X                                                2X5XuXhXhXXX5.$X,Xf.O *           ",
"              V.c.C.fX.X0.' ' F.%XrX4X2X                                              3XqXuXhXsXU.a.6X>X# o 4           ",
"                m.1X<XK.t.>._ 7..XtX5X3X                                            3X4XqXgXhX%X5.W.<Xh.X * s           ",
"                v.c.c.A.&X].7.N Z.;XrX4X3X                                        2X4X0XgXhXiXI.4.$X>X; $ d             ",
"                v.f t ^ ].+X7.N ! P.;XwX4X2X                                    2X4XkXuXgXgXXX..W.6XM.X 4 A             ",
"                  ) S S 8.5.&.` N :.+XtXwX4X3X                                2X3XkXqXgXgX%Xi.5.&X}.3 @ s ~             ",
"                  b.D f n 6.4.| ` ` 9.+XtXrX4X3X3X                          2X4XkXjXcXjX;Xa...Q.|.g.X p Q               ",
"                    / G b ,.6.%.{ | ` 9..X-XrXwX3X2X2X                  3X4X4XeXxXmXMXnX~...I.+Xx.: & W u.              ",
"                    H.9.V Z ,.4.#.{ ] G 7.P.;XaXeX4XkX4X3X2X2X2X2X3X3X4X4XkXpXjXxXmXVXmX.X=.F.c.: % A 8.                ",
"                      H.@.M A ~ 4.o.} C V ^ D..XyXaXpXeXwXwXwX4XwXwXeXeXpXaXhXcXnXmXNXsXI.3.R * > f 2.                  ",
"                        A.,.n c ~ %.#.X.C C G r.L.OX;XaXaXaXpXpXpXaXpXiXyXgXmXBXBXnX*X3.] I 2 > f 1.a.                  ",
"                          J.O.b s D 1.%.#.X.[ C @.r.K..X%X$X-X-XyXyX*XOX*XcXNXVXBX8X4.9.L > 1 b 3.s.                    ",
"                            A.,.n u A ,.$.%.$.$.| } X.1.w.S.F.K.K.W.S.I.*XvXcXhXoX] V.C.k.p b.y.T.                      ",
"                              H.O.n j c D @.3.4.4.$.%.%.3.3.4.4.4.4.4.a.U.U.S.9.W J k.N.U {.vXiX                        ",
"                                _.8.V y u Z A Q 1.3.3.3.4.4.4.4.4.4.5.5.1.B b a p p J f D.hXBX                          ",
"                                  }.Z.:.b r 8 a Z A D ~ ,.,.,.,.^ ~ ! A g q p 2 w y :.y.XX                              ",
"                                      ].Z.:.M y 0 < w q q a a u q q < < < 7 0 n O.9.~.@X                                ",
"                                        |.`.G.Z./ ! j j t r r 0 t t y j V Q 7.q.s.W.                                    ",
"                                              ].`.G.u.7.7.! Y ! ! :.2.q.y.G.W.XX                                        ",
"                                                      *X+X+X+X^..XXXXX%X                                                ",
"                                                                                                                        ",
"                                                                                                                        ",
"                                                                                                                        ",
"                                                                                                                        ",
"                                                                                                                        "
};
