/* XPM */
static char *result[] = {
/* columns rows colors chars-per-pixel */
"64 50 250 2 ",
"   c #5C1010",
".  c #6B0202",
"X  c #780303",
"o  c #005201",
"O  c #035804",
"+  c #1A5504",
"@  c #135B05",
"#  c #175706",
"$  c #0C5715",
"%  c #036206",
"&  c #0A6B09",
"*  c #096705",
"=  c #09750B",
"-  c #097B0C",
";  c #0A7A00",
":  c #147704",
">  c #066717",
",  c #097618",
"<  c #156905",
"1  c #287800",
"2  c #256700",
"3  c #02722E",
"4  c #2A5F00",
"5  c #000D61",
"6  c #004D4C",
"7  c #00487A",
"8  c #005476",
"9  c #00796C",
"0  c #117B5F",
"q  c #8B0201",
"w  c #840606",
"e  c #940000",
"r  c #9C0101",
"t  c #980909",
"y  c #921919",
"u  c #AC0202",
"i  c #A40202",
"p  c #B20000",
"a  c #BC0000",
"s  c #AA1716",
"d  c #B81517",
"f  c #933C09",
"g  c #933D03",
"h  c #933B14",
"j  c #972928",
"k  c #AA2726",
"l  c #B03232",
"z  c #A41F32",
"x  c #DD0000",
"c  c #D70602",
"v  c #C31519",
"b  c #D11E13",
"n  c #DE1219",
"m  c #CA0000",
"M  c #E30000",
"N  c #E90000",
"B  c #E60D0C",
"V  c #E51010",
"C  c #E6100F",
"Z  c #D02211",
"A  c #D21432",
"S  c #C43535",
"D  c #D93535",
"F  c #D43235",
"G  c #CA242B",
"H  c #944400",
"J  c #DE610E",
"K  c #DA552A",
"L  c #D94D35",
"P  c #DC5F0E",
"I  c #8D2851",
"U  c #883273",
"Y  c #9D2463",
"T  c #D32B4D",
"R  c #D21A42",
"E  c #8C4746",
"W  c #975858",
"Q  c #8F5656",
"!  c #B74A4A",
"~  c #B05453",
"^  c #B15466",
"/  c #966767",
"(  c #9C7776",
")  c #9F6A79",
"_  c #A67678",
"`  c #B07168",
"'  c #A6655C",
"]  c #CE4445",
"[  c #DF6868",
"{  c #D96467",
"}  c #C97C7C",
"|  c #E06968",
" . c #E06767",
".. c #C35C69",
"X. c #09830E",
"o. c #088A0D",
"O. c #0A8A03",
"+. c #1D8603",
"@. c #179D04",
"#. c #099718",
"$. c #169D18",
"%. c #0C8517",
"&. c #259A00",
"*. c #208200",
"=. c #13A305",
"-. c #16A317",
";. c #058726",
":. c #029229",
">. c #008D33",
",. c #1A932F",
"<. c #259232",
"1. c #1DA22C",
"2. c #0A8D4E",
"3. c #209756",
"4. c #E1B400",
"5. c #D6AA1A",
"6. c #D4D612",
"7. c #E8E900",
"8. c #F4F300",
"9. c #FEFE00",
"0. c #F8F70E",
"q. c #E8E818",
"w. c #FAF914",
"e. c #F0EF08",
"r. c #CBC838",
"t. c #FDFD27",
"y. c #FAFB34",
"u. c #E8E832",
"i. c #B1B24E",
"p. c #B58F6D",
"a. c #96A471",
"s. c #B4B678",
"d. c #A9AB72",
"f. c #868C7D",
"g. c #C48E56",
"h. c #BEC167",
"j. c #C9CA5B",
"k. c #D7D854",
"l. c #EAEA4F",
"z. c #D7DA73",
"x. c #CBCD6F",
"c. c #E8EB70",
"v. c #DFE166",
"b. c #003A8E",
"n. c #3E3790",
"m. c #001F9F",
"M. c #084F90",
"N. c #394E94",
"B. c #006C8C",
"V. c #0051B1",
"C. c #2765AC",
"Z. c #475E90",
"A. c #516695",
"S. c #72759A",
"D. c #6E77AE",
"F. c #5669AD",
"G. c #0036FC",
"H. c #0047C6",
"J. c #004CD5",
"K. c #3B5ACC",
"L. c #376DD3",
"P. c #0047F9",
"I. c #004EEE",
"U. c #3658F5",
"Y. c #3663F9",
"T. c #4E72D8",
"R. c #6D79CD",
"E. c #5C74E7",
"W. c #4D69EC",
"Q. c #697DE8",
"!. c #893F8B",
"~. c #8F4E90",
"^. c #946F92",
"/. c #AA7C83",
"(. c #8F7CA6",
"). c #788796",
"_. c #7984AB",
"`. c #7E86B1",
"'. c #7889DA",
"]. c #6F84D5",
"[. c #778AEC",
"{. c #868B9A",
"}. c #969590",
"|. c #A49A9B",
" X c #B39798",
".X c #A3AA86",
"XX c #B6B985",
"oX c #A4A89A",
"OX c #B8BC9A",
"+X c #AEB48F",
"@X c #9699A9",
"#X c #838BB7",
"$X c #9498B5",
"%X c #8C91A9",
"&X c #9AA1A9",
"*X c #A5A5A8",
"=X c #BAB6B5",
"-X c #AFADAB",
";X c #CB8888",
":X c #D29494",
">X c #D8A8A8",
",X c #C9B5B5",
"<X c #D29FA0",
"1X c #BDC4B4",
"2X c #BDC09B",
"3X c #D3D687",
"4X c #D5D890",
"5X c #C9CC8C",
"6X c #E5E794",
"7X c #E6E987",
"8X c #C8CDB6",
"9X c #D0D3A8",
"0X c #8995C9",
"qX c #939CC9",
"wX c #8794D6",
"eX c #8C94D3",
"rX c #98A3CF",
"tX c #ACB4CA",
"yX c #8995E8",
"uX c #97A3F5",
"iX c #B2B8F1",
"pX c #BCC2F4",
"aX c #BDC7DC",
"sX c #D7C7CB",
"dX c #D6D9DD",
"fX c #CACBD4",
"gX c #F2CECD",
"hX c #F5D8D8",
"jX c #F5D6D6",
"kX c #E9CCCE",
"lX c #D8DAE4",
"zX c #CED4FE",
"xX c #D6DCF7",
"cX c #C8CFED",
"vX c #DEE4F8",
"bX c #DEE3E9",
"nX c #E8E7E8",
"mX c #F7EBEA",
"MX c #E5EBFD",
"NX c #E6E9F6",
"BX c #ECF2FE",
"VX c #EFF0F0",
"CX c #F4F3F5",
"ZX c #FDF7F7",
"AX c #F2F5FD",
"SX c #F5FAFF",
"DX c #FDFDFE",
"FX c #EAF0EC",
"GX c #FAE0DE",
"HX c None",
/* pixels */
"HXHXHXHXHXHXHXHXHXHXHXHXHXHXHXHXHXHXHXHXHXHXHXHXHXHXHXHXHXHXHXHXHXHXHXHXHXHXHXHXHXHXHXHXHXHXHXHXHXHXHXHXHXHXHXHXHXHXHXHXHXHXHXHX",
"HXHXHXHXHXHXHXHXHXHXHXHXHXHXHXHXHXHXHXHXHXHXHXHXHXHXHXHXHXHXHXHXHXHXHXHXHXHXHXHXHXHXHXHXHXHXHXHXHXHXHXHXHXHXHXHXHXHXHXHXHXHXHXHX",
"HXHXHXHXHXHXHXHXHXHXHXHXHXHXHXHXHXHXHXHXHXHXHXHXHXHXHXHXHXHXHXHXHXHXHXHXHXHXHXHXHXHXHXHXHXHXHXHXHXHXHXHXHXHXHXHXHXHXHXHXHXHXHXHX",
"HXHXHXHXHXHXHXHXHXHXHXHXHXHXHXHXHXHXHXHXHXHXHXHXHXHXHXHXHXHXHXHXHXHXHXHXHXHXHXHXHXHXHXHXHXHXHXHXHXHXHXHXHXHXHXHXHXHXHXHXHXHXHXHX",
"HXHXHXHXHXHXHXHXHXHXHXHXHXHXHXHXHXHXHXHXHXHXHXHXHXHXHXHXHXHXHXHXHXHXHXHXHXHXHXHXHXHXHXHXHXHXHXHXHXHXHXHXHXHXHXHXHXHXHXHXHXHXHXHX",
"HXHXHXHXHXHXHXHXHXHXHXHXHXHXHXHXHXHXHXHXHXHXHXHXHXHXHXHXHXHXHXHXHXHXHXHXHXHXHXHXHXHXHXHXHXHXHXHXHXHXHXHXHXHXHXHXHXHXHXHXHXHXHXHX",
"HXHXHXHXHXHXHXHXHXHXHXHXHXHXHXHXHXHXHXHXHXHXHXHXHXHXHXHXHXG.I.I.I.P.G.HXHXHXHXHXHXHXHXHXHXHXHXHXHXHXHXHXHXHXHXHXHXHXHXHXHXHXHXHX",
"HXHXHXHXHXHXHXHXHXHXHXHXHXHXHXHXHXHXHXHXHXHXHXHXHXW.Q.'.wXqXrXtXrXqXeX'.Q.E.HXHXHXHXHXHXHXHXHXHXHXHXHXHXHXHXHXHXHXHXHXHXHXHXHXHX",
"HXvXvXHXHXHXHXHXHXHXHXHXHXHXHXHXHXHXHXHXHXHXHXY.W.wX=X4Xv.7.8.8.8.8.l.3X1XrXE.Y.HXHXHXHXHXHXHXHXHXHXHXHXHXHXHXHXHXHXHXHXHXvXvXHX",
"HXcXNXSXvXHXHXHXHXHXHXHXHXHXHXHXHXHXHXHXHXHXP.qXOX5Xc.t.w.9.9.9.9.9.w.w.y.3X2XqXY.P.HXHXHXHXHXHXHXHXHXHXHXHXHXHXHXHXHXMXSXNXcXHX",
"HXHXvXDXBXBXMXMXHXHXHXHXHXHXHXHXHXHXHXHXG.E.2Xc.OX_.XX9.9.9.9.t.t.9.9.9.q.`.oXz.4X'.P.HXHXHXHXHXHXHXHXHXHXHXHXHXAXBXAXBXDXvXHXHX",
"HXHXHXvXSXSXBXBXAXDXDXSXHXHXHXHXHXHXHXP.'.9X8.9.v.d.2Xc.6X9X8X8X8X9X9X6Xc.}.h.9.9.4XeXW.HXHXHXHXHXHXHXHXDXDXDXDXAXSXSXDXvXHXHXHX",
"HXHXHXHXMXMXMXBXDXDXDXDXSXDXDXDXHXHXY.].4X9.9.9.y.v.5XtXrX].L.L.L.T.'.tX1X5Xl.t.9.9.z.rXU.HXHXDXDXDXDXDXDXDXDXDXBXBXBXBXHXHXHXHX",
"HXHXHXHXtXMXAXBXBXBXAXSXDXDXDXDXBXzXW.z.9.9.9.9.6XtXE.J.V.9 2.:.>.2.9 V.J.'.sXc.9.y.9.v.0XuXAXDXDXDXDXDXDXSXSXAXAXSXBXtXHXHXHXHX",
"HXHXHXHXHXHXlXDXDXAXAXAXSXDXDXDXxX[.XXy.9.9.9.sX'.K.3.3.1.1.=.=.=.-.1.3.3.C.L.rX6X9.9.9.z.T.zXAXDXDXDXDXDXSXSXDXDXlXHXHXHXHXHXHX",
"HXHXHXHXHXHXHXlXnXBXAXSXSXDXDXMXuXD.x.OXc.y.8XR.C.9 @.@.-.$.$.#.#.-.$.@.=.,.B.C.eX6Xl.z.-X@X[.xXDXDXDXDXDXSXCXVXlXHXHXHXHXHXHXHX",
"HXHXHXHXHXHXHXHXfXNXSXSXDXDXDXiXeXh.XX_.5X4XR.V.2.&.$.:.:.:.#.#.#.:.:.:.:.&.&.9 H.tX3XoX`.j.R.iXSXDXDXDXDXSXVXfXHXHXHXHXHXHXHXHX",
"HXHXHXHXHXvXBXHXHXNXSXDXSXDXAXuX&X8.j.i.+XqXm.<.@.;.;.X.O.O.o.o.o.o.O.O.#.;.,.&.3 J.*XXXi.q..XwXzXDXDXDXDXDXVXHXHXAXvXHXHXHXHXHX",
"HXHXHXHXHXcXCXDXDXSXSXSXDXDXzXeXXX9.0.w.=XJ.3 %.;.;.O.X.%.X.o.X.o.o.o.X.o.O.;.%.<.M.R.4X9.w.k.0XiXDXDXDXDXSXDXDXDXVXlXHXHXHXHXHX",
"HXHXHXHXHXHXNXDXAXAXSXAXDXDXuX$Xj.9.9.3X#Xb.1 ,.%.- X.X.X.X.X.X.X.X.X.X.X.; , %.+.3 V.-Xl.9.7.%XuXSXDXDXDXSXAXSXDXNXHXHXHXHXHXHX",
"HXHXHXHXHXHXHXNXDXSXAXDXDXAXyXoXq.9.9.-XF.8 : , , ; = - - - - - - - - - - - - - , *.b.#X4X9.8..XeXMXDXDXSXSXSXDXNXHXHXHXHXHXHXHX",
"HXHXHXHXHXHXHXHXAXDXSXDXDXCXQ.XX7.0.q.$XC.> : , , = = = = = = = = = - = = = = , , *.7 D.OX8.8.s.0XzXDXDXDXDXDXAXHXHXHXHXHXHXHXHX",
"HXHXHXHXHXHXHXHXHXBXSXDXDXNXR.XXu.l.k.`.M.% : & & & & & & = & & & & & & & & & , , 1 8 Z.oXu.l.i.$XcXZXDXDXDXBXHXHXHXHXHXHXHXHXHX",
"HXHXHXHXHXHXHXHXHXHXlXCXDXNX`..XoX`.s.D.8 % < < * & & * & & & & & & & & & & < > > 1 6 Z.%XoX&X{.@XiXDXDXCXlXHXHXHXHXHXHXHXHXHXHX",
"HXHXHXHXHXHXHXHXHXHXHXVXDXNX`.d.a.{.s.D.7 O @ % % % % % O % % % % % % % % % % > 3 2 6 Z.{.d.}.f.%XcXDXDXFXHXHXHXHXHXHXHXHXHXHXHX",
"HXHXHXHXHXHXHXHXHXVXCXDXDXNXD.d.6.i.h.S.7 o + @ @ @ @ @ @ @ @ @ @ @ @ @ @ @ @ $ $ 2 6 N.{.r.r.a.%XiXDXDXAXBXVXHXHXHXHXHXHXHXHXHX",
"HXHXHXHXHXHXHXHXHXdXCXDXDXNXD.d.7.8.r.S.7 + + # + + + + + + + + # # # + + # + # $ 4 6 N.}.7.8.i.%XcXDXDXDXCXlXHXHXHXHXHXHXHXHXHX",
"HXHXHXHXHXHXHXHXHXHXHXlXDXDX]..X6.7.6.).b.6 o $ o o o o o o o o o o o o o o o O $ > 5 A.d.7.7.a.#XbXDXDXdXHXHXHXHXHXHXHXHXHXHXHX",
"HXHXHXHXHXHXHXHXHXHXHXHXHXnXD.p.r.4.4.` U I g h h g f f f f f f f f f f f f f f f H Y U g.4.4.` (.fXmXHXHXHXHXHXHXHXHXHXHXHXHXHX",
"HXHXHXHXHXHXHXHXHXHXHXHXHX' Y ] K P P L G A b b b b b b b b b b b b b b b b b b b Z A G K P P ] ^ _ HXHXHXHXHXHXHXHXHXHXHXHXHXHX",
"HXHXHXHXHXHXHXHXHXHXHXHXr p m c x x x M N N M M N M M M N M M M M M M M M M M M M M N M c c M M c p i HXHXHXHXHXHXHXHXHXHXHXHXHX",
"HXHXHXHXHXHXHXHXHXHXHXq u v G F D D D D D D D D D D D D D D D D D D D D D D D D D F D D D D D D G v v y HXHXHXHXHXHXHXHXHXHXHXHX",
"HXHXHXHXHXHXHXHXHXHXHXe s ^ :XgXjXgXgXgXgXgXgXgXgXgXgXgXgXgXgXgXgXgXgXgXgXgXgXgXgXgXgXgXgXgXgXgX>X^ k r HXHXHXHXHXHXHXHXHXHXHXHX",
"HXHXHXHXHXHXHXHXHXHXHX_  X|.$XdXmXZXDXZXZXZXZXZXZXZXDXZXZXZXZXDXZXDXZXZXZXZXZXZXZXZXZXZXZXZXZXlX*X^. X_ HXHXHXHXHXHXHXHXHXHXHXHX",
"HXHXHXHXHXHXHXHXHXHXHX|.*XS.n.tXDXDXDXDXDXDXDXDXDXDXDXDXDXDXDXDXDXDXDXDXDXDXDXDXDXDXDXDXDXDXDXdX{.Z.-X@XHXHXHXHXHXHXHXHXHXHXHXHX",
"HXHXHXHXHXHXHXHXHXHXHX@X%X5 m.fXDXDXZXZXDXDXDXDXZXDXZXZXDXDXDXDXDXDXDXZXDXZXDXDXDXZXDXDXZXDXDXdX{.5 S.@XHXHXHXHXHXHXHXHXHXHXHXHX",
"HXHXHXHXHXHXHXHXHXHXHX*X@XA.S.sXGXjXhXhXhXhXhXhXjXhXhXhXhXhXhXhXhXhXhXhXjXjXhXhXhXhXhXhXhXhXmXkX@XN.@X|.HXHXHXHXHXHXHXHXHXHXHXHX",
"HXHXHXHXHXHXHXl k r E }.*X) ^ { | | | | [ [ [ |  .| | | [ [ [ [ | | [ |  . .| | | | | | | | | { ..` *X}.Q q l k k HXHXHXHXHXHXHX",
"HXHXHXHXp a p p u e j / /.! Z x N N N N N N N N M M M M M M x B x x M M x M N N N N N N N N N N c ! _ ( E q r u p a a s HXHXHXHX",
"HXHXHXHXp l ] ! ~ W Q E j p m V C V V V V V V V A A T T ] L K K K L ] T T R A n C V V V V V V B c a i E Q W ~ ! ! S G HXHXHXHXHX",
"HXHXHXHXHX} :X>X,X,X XW e s d v HXHXHXHXHXHXHXHXI U !.^./.p.p.g.p.p. X^.~.U I z HXHXHXHXHXHXHXHXd d i Q |.,X,X>X>X;X~ HXHXHXHXHX",
"HXHXHXHXHXnXCXDXZXnXfX( q y HXHXHXHXHXHXHXHXHXHXHXHXn.n.N.F.A.F.A.A.Z.n.n.HXHXHXHXHXHXHXHXHXHXHXHXHXq / -XdXnXZXDXmXHXHXHXHXHXHX",
"HXHXHXHXHXHXDXDXDXnXfX( X   HXHXHXHXHXHXHXHXHXHXHXHXHXHXHXHXHXHXHXHXHXHXHXHXHXHXHXHXHXHXHXHXHXHXHXHX. / ,XbXCXDXDXHXHXHXHXHXHXHX",
"HXHXHXHXHXHXDXDXDXbX8X( X HXHXHXHXHXHXHXHXHXHXHXHXHXHXHXHXHXHXHXHXHXHXHXHXHXHXHXHXHXHXHXHXHXHXHXHXHX. ' -XdXnXDXDXHXHXHXHXHXHXHX",
"HXHXHXHXHXHXCXDXnXsX XW X   HXHXHXHXHXHXHXHXHXHXHXHXHXHXHXHXHXHXHXHXHXHXHXHXHXHXHXHXHXHXHXHXHXHXHXHXX E  X=XsXmXCXHXHXHXHXHXHXHX",
"HXHXHXHXHXHX:X;X~ k y X X . HXHXHXHXHXHXHXHXHXHXHXHXHXHXHXHXHXHXHXHXHXHXHXHXHXHXHXHXHXHXHXHXHXHXHXHXX X q y l ` ;X;XHXHXHXHXHXHX",
"HXHXHXHXHXl S G p u e q . HXHXHXHXHXHXHXHXHXHXHXHXHXHXHXHXHXHXHXHXHXHXHXHXHXHXHXHXHXHXHXHXHXHXHXHXHX. X e r p d S S HXHXHXHXHXHX",
"HXHXHXHXHXu p u u i q X . HXHXHXHXHXHXHXHXHXHXHXHXHXHXHXHXHXHXHXHXHXHXHXHXHXHXHXHXHXHXHXHXHXHXHXHXHXHXX y t i u p p u HXHXHXHXHX",
"HXHXHXHXHXs l HXHXHXHXHXHXHXHXHXHXHXHXHXHXHXHXHXHXHXHXHXHXHXHXHXHXHXHXHXHXHXHXHXHXHXHXHXHXHXHXHXHXHXHXHXHXHXHXHXl k HXHXHXHXHXHX",
"HXHXHXHXHXHXHXHXHXHXHXHXHXHXHXHXHXHXHXHXHXHXHXHXHXHXHXHXHXHXHXHXHXHXHXHXHXHXHXHXHXHXHXHXHXHXHXHXHXHXHXHXHXHXHXHXHXHXHXHXHXHXHXHX"
};
