/* XPM */
static char *result[] = {
/* columns rows colors chars-per-pixel */
"64 64 95 2 ",
"   c #06B600",
".  c #02BC00",
"X  c #0ABE00",
"o  c #13BD00",
"O  c #1BBC00",
"+  c #27B400",
"@  c #2CB700",
"#  c #23BD00",
"$  c #2CBD00",
"%  c #34BD00",
"&  c #3BBD02",
"*  c #41BF02",
"=  c #44BD08",
"-  c #4CBF08",
";  c #04C200",
":  c #0CC200",
">  c #0CCB00",
",  c #13C500",
"<  c #1BC600",
"1  c #15CA00",
"2  c #1CCA00",
"3  c #16D100",
"4  c #1DD200",
"5  c #16DB00",
"6  c #1DDD00",
"7  c #24C300",
"8  c #2CC300",
"9  c #23CC00",
"0  c #2BCE00",
"q  c #34C300",
"w  c #3BC301",
"e  c #32CD00",
"r  c #3BCC00",
"t  c #24D200",
"y  c #2CD100",
"u  c #24DB00",
"i  c #2CDB00",
"p  c #34D300",
"a  c #3BD500",
"s  c #35DA00",
"d  c #3CDB00",
"f  c #14E100",
"g  c #1BE400",
"h  c #1BEA00",
"j  c #23E400",
"k  c #2DE400",
"l  c #25E800",
"z  c #2AE800",
"x  c #33E400",
"c  c #3CE200",
"v  c #34E900",
"b  c #38E900",
"n  c #43C403",
"m  c #4CC404",
"M  c #43CB01",
"N  c #4DCA04",
"B  c #47C108",
"V  c #4DC309",
"C  c #4EC808",
"Z  c #53C505",
"A  c #59C507",
"S  c #54CC05",
"D  c #5BCE05",
"F  c #55C508",
"G  c #5BC608",
"H  c #54CB09",
"J  c #5ACA09",
"K  c #42D500",
"L  c #4CD401",
"P  c #43DC00",
"I  c #4CDD00",
"U  c #53D301",
"Y  c #5CD203",
"T  c #52DE00",
"R  c #5BDC01",
"E  c #57D009",
"W  c #63CF04",
"Q  c #61C608",
"!  c #64CA09",
"~  c #6ACB0C",
"^  c #63D405",
"/  c #6BD707",
"(  c #64DA02",
")  c #62D108",
"_  c #69D508",
"`  c #6BCB10",
"'  c #44E100",
"]  c #4CE300",
"[  c #4FE800",
"{  c #53E400",
"}  c #5AE500",
"|  c #56EA00",
" . c #5BEA00",
".. c #60E300",
"X. c #60EC00",
/* pixels */
"F D ^ L M U Y / ) A J J F ! ! G ! ! ! ! Q A ! ^ ( R N S W W Y Y ! Q G G A F A G A Q = = - ! D G G F F F F G G G G A F G G ! A ! ",
"K { R K e a P I R W J J J ~ ~ ! ! ~ ! ! D D R T T K 0 K I I R S F A F F Z F m - F F = = & Z S n m & - = B F F F G G F F G G G Q ",
"] { { K p a d P [ ..Y S S Y Y ^ _ ) D S U I [ { { P y a d I } I Z n w m J G n 0 r 8 w % % n n & % # q % w C H H N B w B m F F J ",
"I { } K y a P ' ] I L r p a P ] } L K p a P ] } { K y a P I I K N n % w C F e 0 p 7 q % $ q r $ # X O # 8 r a M 8 $ % w q M w G ",
"I { } K 0 a P ' ] T K p e d P ' } I s p a d I } R P 0 a K I ] d r M q 7 w w 9 y 0 9 O 8 O 9 e 0 0 X . : : 4 t 9 1 X # 8 9 r r F ",
"{ } { K p a P P { { K a p P [ |  .T p e s d ] { { a 0 s P { { s y 0 q 7 O 7 9 y 0 < . . . 1 0 0 0 : ; . ; 4 4 t 1 . . : 2 p e J ",
"| } T a e a P P [ { K p p P {  .} I p p d ' [ { I a y s '  .| u 0 0 8 8 # 8 2 y t 2 X   . < 0 p 0 X . . ; 9 y t < . . : 2 0 e J ",
"{  .I K p a P [ { ] d y y d [ | } I p y a ' {  .{ a y s ' { | i e 0 < 7 # < 2 y y 2 X . . 2 0 y 9 : . . ; t y 9 2 . . : 2 0 9 J ",
"| { I a s a ' | | { a y p d | |  .I p y a [ X.X.{ d y s d  .| i e 0 < X   : 2 y t 2 X . . < 0 y 9 , . . ; t y 0 2 . . ; 2 0 2 J ",
" . .T a 0 t d | | { a p y d | |  .K y 2 y ' | | ] a y p '  .| i e 0 2 . . , 9 0 y 2 X . . < t 0 9 : . . ; 9 0 9 2 . . : 1 0 4 C ",
" .} ] a 2 2 s [ | { a p y d | | } P 0 1 4 ' |  .} s p s d |  .i e 0 2 . . . 2 y 0 2 X . . 2 0 y 0 : . . : 9 0 0 2 . . : 2 y 4 H ",
"{ { P s 2 t c | | | d p y y ] } } P 0 2 4 ] X.| T a y y y ] | u 0 0 2 . . : 2 0 y 2 X . . , y 0 0 , . . ; 9 0 0 < . . , 2 y 2 C ",
"] ] s 0 2 t d [ | } K p 0 2 a { T a 0 9 4 ] X. .] a y 9 1 P [ t 0 e 9 , . : 9 s p 9 , . . < 0 y 9 < . . : y a p 9 X . : 2 e 9 H ",
"I I a 9 1 t c | | I p 9 9 1 d { I p 2 1 4 ]  .{ P p 9 9 2 I ] t 8 e y < . : y P s 0 2 . . 2 0 0 0 2 : . . s d p 9 1 . X 2 e t H ",
"I } a 9 ; 9 d  .{ a 9 < 1 2 d { ] y : : 4 ]  .' s 9 1 < 2 { } u a p 0 < . : t I P e 2 , : 2 s p p 2 : ; ; s ] d 0 < : 1 9 a y J ",
"I K e 9 . < i [ { d 2 1 1 1 s ] P 0 > : > d { ] s 9 < 2 2 L I s I e e < . ; 2 ] I s 9 < 1 9 d P p 9 : . ; s } I e 9 7 2 0 P p E ",
"T K 0 9 X . 1 ' [ d 9 2 2 1 a ' a 9 1 . ; t  .{ a 9 7 9 9 P d y T a e < . 2 s ] { p 9 2 , 4 d I a 9 : ; 1 ' | ' s 7 2 9 0 I P J ",
"I K e 9 . 1 y ] { K 9 < 1 1 s ' d y : ; ; s { [ s 9 < 9 9 L P i ] K p 2 ; 9 s { ] p 2 2 , 4 d ] d 9 : : 2 ] | P p 2 < 2 0 T ' J ",
"] I a 9 ; 9 d | { d < 1 , 1 d { ] y : : 2 ]  .' s 9 1 1 2 I { s T e 0 7 . ; t ] ] s 2 2 1 4 d K s 2 : . ; s  .I p 9 2 9 0 P p H ",
"I { a 9 : 9 c | | P e 9 2 1 d | ] p 2 , 4 [ | ] P 0 9 9 2 ] { y K p 0 2 . ; 4 I I e 2 , : 2 s s p 2 : . ; p ] P y < , < 9 a y E ",
"I I p t 2 t c | | | P p 9 2 d { T a 0 2 2 ] X.| ] a 0 9 1 P [ t 0 e 0 < . : y I s 0 , X . < y 0 0 2 : . ; s P p 0 1 . : 2 e y H ",
"{ ] P p 2 t c | | { K p 0 y P { R a y 2 t ] X.| [ a y 9 t ] { u 0 e 0 , . : 9 d p 9 ,   . < 0 t 9 < . . ; y s p 9 : . : < 0 4 H ",
" .{ ] a 2 2 s [ | { a p y d {  .| P y 1 4 ' | | { a y s d { | i 0 0 < . . . 2 y y 2 : X . < y y 0 , . . X 9 y 0 < . . : 2 y 2 H ",
" . .T a t t c [ | { a p y ' | |  .P y 4 t ] |  .{ a y p '  .| i e 0 < . . : 2 9 y 2 X . . 1 0 0 9 : . . . 9 0 0 < . . : 2 y 2 C ",
"| } I a p a ' | | ] a y y P [ |  .L y y s [  . .{ a y p d  .| i e 0 2 . . ; 2 0 y 2 X . . < 0 y 9 , . . ; 2 y 9 < . . X 1 y 2 C ",
"{  .I a p a P | | ] d p y d | |  .I p p a ]  . .{ a y s P } | i 0 0 < . . X < 0 y 2 X . . < 9 y 9 : . . > 9 0 0 2 . . . , y 3 H ",
"{ } T K p a P P [ { K p p P | | } I e p s P [ { [ a y p c { { i 8 0 < O O o , 9 y 1 X . . < 9 y 9 X . . ; 9 0 9 < . .   1 y 9 H ",
"} } { a p a P d ] { K p p d [ | } I p p s P I } T a y s P T { s 0 9 7 # # 7 o 9 y 2 X . . , y y 0 X . . ; 2 9 9 ,     . < y 0 J ",
"] { } a e a P ' ] { K a p P P ]  .I p e a c ] { { K y a P I I s u 9 7 < , 0 2 2 9 2     . < 0 e 9 . . . > 1 u 4 1 . . : 2 i a J ",
"K } R K y a P ' ] T K e 0 d d ' } I a p s d P { { K 0 a P L a t k y 9 , 9 y 4 9 2 <   O < , p 0 9 X . 1 5 6 g 5 > ; 1 2 1 i r H ",
"' ] P p 0 p s d c I K e q K L U U N M p r d P I K p 9 p s d d s d y 1 1 y x 6 u t < O 8 8 0 c y 7 o , 4 u k k j > 3 4 t u s w F ",
"d I ] s 0 0 y s P N M q & C J C C n n w r M I ] ] a 7 y d d c c c y 2 9 i d j l t 2 7 9 t y c y 9 , 2 4 j c d s 2 4 4 i x I C G ",
"w a a e e a a t r $ % % + w n % & @ % & $ w N L L a 8 q K a a c ' s < y p d s i s 7 < 2 t i b d 9 2 2 t i ' P a 9 p p s d I G Q ",
"m r q 8 n C M t y 7 # % @ % r @ # o o # # r r K s 8 % w w i i c { d 0 0 s i c ' a p 7 9 s c ] d y 9 y i d ' ' K 9 0 s d ' { F ` ",
"r w q # w B 0 0 0 9 < % # 7 r 0 8 , . X 1 9 y t 2 o # $ 7 u x c I a 0 p s s ' ] a p 0 y ' [ { I p 0 y s d P P a 0 y s ' { T G ~ ",
"0 e r 7 O 7 2 9 7 9 : X . : t 0 0 1 ; . ; 1 4 t 1 . . X < u z b } K r a P ' ] { K p p c [ | } } p p s ' ] { } P 0 p d { X.} ` ` ",
"y y 0 q # 8 2 y y 9 : . . , 9 e 0 , . . ; 1 y t 2 : . ; < 6 l ' T K p a P [ | { K p 0 a [ |  .T a 0 s P  . .{ d y p c {  .{ ` ` ",
"e e < 7 # # < y y 2 , . . , 9 y 0 , . . ; 2 y 9 2 : . ; 1 6 h c T a p s d | | [ P y y a ]  . .I p 0 s '  .X.} d y s d {  .{ ` ` ",
"8 0 9 o o . 1 y 9 2 , . . o 0 y 0 , . . ; 2 y 0 7 . . . , 6 h v } a y 9 s [ | { P p y s | |  .I y 9 9 ' |  .{ P y p P { X.{ ` ` ",
"0 0 2 X . . < 9 0 7 : . . 1 9 y 0 , . . ; 2 0 0 2 X . X , 6 h v } d t 1 s [ | { a a y s { |  .I y 2 1 c |  .} a y s s {  .R ` ` ",
"0 e < , . X < 9 y 9 : . . , 0 0 0 1 . . ; 2 y 0 2 : . : < 4 g k P p 9 4 s [ | | P e e t P { } K y 9 2 P  . .{ P y 0 2 I { I ` ` ",
"0 0 2 X . . 1 0 y 9 : . . : 0 y 0 < . . . 2 y 9 9 . . . 2 4 f u a 9 2 9 s [ | | K s 0 2 p ] T a 0 4 2 c  . .{ a y 9 1 a { P ` ` ",
"e e 9 , . : < p p 9 , . . , 0 0 0 < . . . 9 s e 9 , . X 2 2 f k K t 1 2 s |  .' e 9 2 1 s { { a 2 , 1 '  .{ ] p 9 9 2 P | L ` ` ",
"0 0 e < . . 9 d s y 7 X   1 9 0 9 9 , . . p a s 0 < . . 1 2 f x K 0 . 2 d { | P 9 1 , 1 s ] ] p : > 2 c | [ s 9 , 1 2 P } P ` ` ",
"p e 0 7 : . 2 P P p 9 , : 1 p p p 9 1 . ; t ' P y 9 X , 2 4 u i p 0 X , t P { P 9 2 2 1 y ' P y , ; ; p { ] d 9 2 2 2 K I a ` ` ",
"I a 0 9 X ; 1 P [ a 9 < 1 1 s d p 9 , . ; 9 { { p 9 < 2 9 t l u r 9 : . > a { P 0 2 < > s P P y 1 . . 4 { | P 0 7 9 9 a P a ` ` ",
"I K e 9 : : t ' { d 9 2 < 1 a ' d 0 1 . ; s } ] a 9 2 9 0 y z c p 0 X , u ] { P 9 1 1 1 p ' P y , ; > s { [ d 9 < 2 2 K T K ` ` ",
"] L p 9 ; 2 s { { a 9 2 1 1 s ] P 0 > : 1 d { ] a 9 1 2 0 i v b K 9 X 2 d | | P 9 2 1 , s [ { p , > 1 P  .] d 9 1 2 1 I } L ` ` ",
"I K e 9 X ; 4 ' { d 9 2 2 1 a ' d 9 , . ; t { { a 9 7 2 9 t z x d y 1 2 s | | ] a 0 9 1 p ] { a 9 1 1 P  .| ] s 9 9 2 d } L ` ` ",
"K a 0 9 X ; 1 d ] a 9 < : 1 s a p 9 , . . y { I s 7 1 2 9 t j k a y 2 4 s [ |  .K p 0 2 s { R d 0 9 2 P X. .{ d y 9 2 s { P ` ` ",
"0 e 0 2 X . 9 K d p 2 : . , y y y 9 : . . y ' a 0 2 X X < 4 h v I s 9 2 x [ | | P p 0 y P } } K y 9 3 ' |  .{ P p 0 y ' | I ` ` ",
"0 e y < . : 2 d a 9 < X . 1 9 t 0 2 : . . t d s 9 < . . 2 t h v } K 9 1 s [ | { K a p s | |  .I y 2 1 c | } } d 0 s d {  .{ ` ` ",
"0 0 9 , . . 1 0 p 9 , . . , 0 y 0 < . . . 2 y y 9 , . : < 6 h v T K y y c [ | | d p y a { |  .I p 9 y ' |  .{ d y p c { X.R ` ` ",
"0 e < X . . 1 0 0 2 , .   : 0 0 0 , . . . 2 0 0 2 X . : < 6 h x T a p p d { | { P y y d ] |  .{ p t y '  . .{ P y p c {  .{ ` ` ",
"0 0 < X . . < 9 y 2 o . . , 9 y 0 1 . . ; 2 0 0 2 X . . 1 6 g v { a p s c { | { P y y a ] |  .T p 0 s I  .X.} P y s d {  .{ ` ` ",
"0 e 9 X . . 1 0 y 9 X . . 1 9 y 9 1 . . ; 2 t 0 9 X . . , 6 h x T K e a P ] | { P y y d [ |  .T p p s P { | ] P y y P { X.{ ` ` ",
"e 0 < , O : 1 t t 2 : . . , 9 0 9 , . . . 2 y y 2 : . . 1 6 h b R d e a P d ] | K a p d [  .} { p p s d ] { { P y p d {  .} ~ ` ",
"0 0 7 8 # $ 1 0 y 9 o . . , 9 y 0 , . . ; 2 y 9 2 : . ; 1 6 g x } P e p P P ] { K a p d ] {  .T a p a P I { ] P y s P ] } } ~ ` ",
"y 0 e 8 < 8 9 9 y 9 X . . , 9 p y , . . ; 3 t t 2 X . . < u f c } P p a P ' ] ] L s e a d ' | ] a e s d ' } { L 0 a P I I } R ~ ",
"y r w 7 # 8 < y t 9 X o X : 0 0 y , . . ; 1 4 4 2 ; X O < 6 g d R L e s P P ] { K p e K P P { I p y s a ] { { I 0 a P I T } { ` ",
"M M q 8 B C 0 y 0 9 < % $ 7 0 q 8 o . o O 0 e p 9 O $ q 8 u l c { K e s a P [ { K q 0 a K K I K 7 e p P [ { I ' y s d ' } } R ` ",
"Z n w & F F B t p 8 q & % w w % $ o # $ 8 M L N r w % & w y u s } L a a d I T T M w % w K a L r 8 r r M L { R L e a P L R } } ~ ",
"F Z n m A F m q C & n & % n M n = % & B & V F F G F V B Z n e m ^ L M M U ^ D U m * & - S N M M B n r n U Y ^ U M N D Y U R } ` ",
"Q Q Q G - F F A G G - & = F A Z C V V V V F G A J G F F G A m - Q G Q Q Q ~ F Z Q Q - Q ! Q A Z A F A A A A A F F G Q S I } R ` "
};
