/* XPM */
static char *result[] = {
/* columns rows colors chars-per-pixel */
"64 53 220 2 ",
"   c #000000",
".  c #04030D",
"X  c #16060A",
"o  c #080A13",
"O  c #19171A",
"+  c #281716",
"@  c #3D1F19",
"#  c #232324",
"$  c #513328",
"%  c #3F3F40",
"&  c #565656",
"*  c #595959",
"=  c gray31",
"-  c DimGray",
";  c #717172",
":  c #706F6A",
">  c #874D38",
",  c #B47153",
"<  c #BA7F6B",
"1  c #CC7A57",
"2  c #C7757B",
"3  c #F68C00",
"4  c #F1882A",
"5  c #ED8A4B",
"6  c #EA8347",
"7  c #F4964A",
"8  c #EB8B53",
"9  c #E1825E",
"0  c #EA8C5C",
"q  c #E88759",
"w  c #F4965C",
"e  c #F29454",
"r  c #F08E56",
"t  c #D88967",
"y  c #DD8777",
"u  c #CF8C72",
"i  c #E38662",
"p  c #E68A64",
"a  c #E98E65",
"s  c #E68E6C",
"d  c #EB9166",
"f  c #EC946A",
"g  c #EF986C",
"h  c #F49B65",
"j  c #F3946A",
"k  c #F29B6D",
"l  c #F59866",
"z  c #EF9A72",
"x  c #EB9773",
"c  c #F29E71",
"v  c #FA9E77",
"b  c #F7A069",
"n  c #F5A272",
"m  c #FDA473",
"M  c #F9A877",
"N  c #08139D",
"B  c #081D9E",
"V  c #07039B",
"C  c #07229F",
"Z  c #0013AB",
"A  c #041AA8",
"S  c #0004B7",
"D  c #000BAF",
"F  c #0625A3",
"G  c #0821A2",
"H  c #052AA6",
"J  c #0824AA",
"K  c #042DA9",
"L  c #0829AE",
"P  c #1629AD",
"I  c #0233AC",
"U  c #0039AF",
"Y  c #1437AC",
"T  c #052CB3",
"R  c #062CB9",
"E  c #132FB0",
"W  c #0335B4",
"Q  c #023AB4",
"!  c #0434B9",
"~  c #033CBD",
"^  c #0939B3",
"/  c #1838B5",
"(  c #2529AB",
")  c #252BB1",
"_  c #523CAC",
"`  c #4936B3",
"'  c #0741BD",
"]  c #254AAA",
"[  c #674DBC",
"{  c #7157B6",
"}  c #7079A4",
"|  c #0002DC",
" . c #023CC2",
".. c #013ACD",
"X. c #0138D5",
"o. c #0026D1",
"O. c #0018E2",
"+. c #003AE8",
"@. c #0241C6",
"#. c #0D43C1",
"$. c #0044CB",
"%. c #0448CE",
"&. c #0A4CCD",
"*. c #0748C7",
"=. c #1647CB",
"-. c #0045D3",
";. c #054BD2",
":. c #094ED4",
">. c #0046DA",
",. c #014ADC",
"<. c #0A51D6",
"1. c #0D55DA",
"2. c #0F58DD",
"3. c #0451DC",
"4. c #105ADE",
"5. c #1856D9",
"6. c #1550D1",
"7. c #2549CD",
"8. c #224ED1",
"9. c #245ADC",
"0. c #3555D3",
"q. c #014CE2",
"w. c #0043E3",
"e. c #0052E4",
"r. c #0054E9",
"t. c #005EED",
"y. c #045BE4",
"u. c #135DE2",
"i. c #195EE4",
"p. c #005AF6",
"a. c #0048F3",
"s. c #205FE0",
"d. c #0164EC",
"f. c #1661E6",
"g. c #1C62E5",
"h. c #1664E9",
"j. c #1965EA",
"k. c #1C6AED",
"l. c #1169EE",
"z. c #006CF4",
"x. c #006CF9",
"c. c #0368F4",
"v. c #1D6DF1",
"b. c #1A6DFD",
"n. c #156AF4",
"m. c #0072F9",
"M. c #1D72F5",
"N. c #1775FA",
"B. c #1971EB",
"V. c #2362E4",
"C. c #246BEC",
"Z. c #2C69EA",
"A. c #2765E6",
"S. c #336AE7",
"D. c #216FF2",
"F. c #2A6FF0",
"G. c #2272F5",
"H. c #2B74F5",
"J. c #2476F9",
"K. c #2779FB",
"L. c #2A7AFC",
"P. c #387BF9",
"I. c #3B70EC",
"U. c #6860CD",
"Y. c #535FE2",
"T. c #4970E2",
"R. c #6472E2",
"E. c #965B9B",
"W. c #99609C",
"Q. c #BB7696",
"!. c #8A5CAF",
"~. c #A76EA7",
"^. c #A972AC",
"/. c #AF77B2",
"(. c #C67A8B",
"). c #C27B94",
"_. c #885EC1",
"`. c #8071D1",
"'. c #3784FC",
"]. c #548EFA",
"[. c #6687ED",
"{. c #738CE8",
"}. c #6394FA",
"|. c #989898",
" X c #A2A094",
".X c #B481AF",
"XX c #ACACAC",
"oX c #A3A3A3",
"OX c #8B91B8",
"+X c #CD828B",
"@X c #ED9580",
"#X c #F0AD91",
"$X c #C285A8",
"%X c #EDBAA4",
"&X c #F4CCBD",
"*X c #8D9FED",
"=X c #9FACEC",
"-X c #91ADF7",
";X c #AAB6EF",
":X c #B7C3FA",
">X c #AACAFE",
",X c #DCDBDB",
"<X c #D1D1D2",
"1X c #CCCDCD",
"2X c #F4CDC0",
"3X c #C3CBF5",
"4X c #C8D6F7",
"5X c #D9DEF7",
"6X c #DADFF9",
"7X c #E7E7E7",
"8X c #F9EBE6",
"9X c #E6E9F7",
"0X c #E8EAF7",
"qX c #F6F6F6",
"wX c #F6F6F9",
"eX c #F7F8F9",
"rX c #FBFBFB",
"tX c #F9F6F4",
"yX c #F9F1EF",
"uX c None",
/* pixels */
"uXuXuXuXuXuXuXuXuXuXuXuXuXuXuXuXuXuXuXuXuX:.:.:.:.<.<.1.1.1.2.2.4.4.u.u.i.u.uXuXuXuXuXuXuXuXuXuXuXuXuXuXuXuXuXuXuXuXuXuXuXuXuXuX",
"uXuXuXuXuXuXuXuXuXuXuXuXuXuX$.$.$.q.,.e.,.:.:.:.<.<.<.2.1.2.2.2.4.4.u.u.u.l.n.b.f.u.uXuXuXuXuXuXuXuXuXuXuXuXuXuXuXuXuXuXuXuXuXuX",
"uXuXuXuXuXuXuXuXuXuX$.$.$.-.,.,.;.-.%.%.:.:.:.:.:.1.1.2.2.2.4.4.u.u.u.u.u.f.i.h.n.b.h.h.uXuXuXuXuXuXuXuXuXuXuXuXuXuXuXuXuXuXuXuX",
"uXuXuXuXuX$.$.,.,.;.-.$.$.$.$.$.%.%.&.%.:.:.:.<.<.1.1.2.4.4.u.4.u.u.f.f.h.i.h.h.h.g.h.k.b.g.h.uXuXuXuXuXuXuXuXuXuXuXuXuXuXuXuXuX",
"uXuXuXuXuXR L H K K K  .$.@.$.%.$.%.;.;.;.<.<.<.1.1.2.1.1.5.V.A.g.g.i.h.h.h.h.j.j.j.j.j.j.j.N.h.j.uXuXuXuXuXuXuXuXuXuXuXuXuXuXuX",
"uXuXuXuXuXuXA G G G F H F K ~  .%.;.;.:.:.<.1.1.1.2.2.6.A T -.>.,.i.Z.h.h.j.j.j.k.j.k.j.k.k.j.k.v.n.uXuXuXuXuXuXuXuXuXuXuXuXuXuX",
"uXuXuXuXuXuXuXF F F F H H K K K Q Q ;.;.<.<.1.<.1.1.u.1.Z ` 2 2 ` X.>.Z.j.j.k.k.k.k.k.k.k.j.j.k.j.v.h.j.uXuXuXuXuXuXuXuXuXuXuXuX",
"uXuXuXuXuXuXuXuXG J F H K H I I I I Q *.<.<.1.<.2.2.u.5.Z _ 8 d d Q.[ w.Z.j.k.k.k.k.v.k.v.v.D.k.k.j.j.b.j.uXuXuXuXuXuXuX .uXuXuX",
"uXuXuXuXuXuXuXuXuXF F H H K K I I I I I &.<.<.2.2.4.4.5.Z _ p f j h h !.w.T.D.k.v.v.D.k.D.k.D.k.k.k.k.j.n.h.uXuXuXuXuXK ! I uXuX",
"uXuXuXuXuXuXuXuXuXuXR H H H K I I Q U U ' 1.1.2.2.4.u./ Z _ d g k c n k _.+.n.G.M.v.G.G.k.G.D.k.k.v.k.k.k.k.j.h.uXuXK I I Q uXuX",
"uXuXuXuXuXuXuXuXuXuXH T H K K K I I I U U &.1.1.2.4.u.E Z _ d g c M n b g /.Y.x.C.G.G.G.G.k.G.G.D.v.k.k.k.h.j.N.j.uXR K W U uXuX",
"uXuXuXuXuXuXuXuXuXuXuXH K K K I I I I U U *.2.1.4.4.f.E Z _ h g n n n n k 7 y G.M.G.H.G.G.G.G.B.D.D.v.C.k.j.j.f.v.1.K I I Q Q uX",
"uXuXuXuXuXuXuXuXuXuXuXuXK W K K I I U U Q 2.1.2.4.4.u.E A ) (.h k c k k z e $Xm.G.G.m.N.N.K.G.G.D.G.v.k.k.k.h.j.f.k.#.F I ~ Q uX",
"uXuXuXuXuXuXuXuXuXuXuXuXuXK W I I I U I ' 1.1.2.u.u.u.T ( S E.w g g k g 7 $Xm.G.G.P.}.}.K.J.J.G.G.v.D.k.D.k.j.j.h.f.u.^ K ~ U uX",
"uXuXuXuXuXuXuXuXuXuXuXuXuXuXK W I I I Q <.1.1.4.4.f.#.N ( S W.w s f f 7 $Xx.G.H.N.].4X>X'.M.K.J.G.G.G.v.k.k.k.j.h.f.f.4.Q ~ Q uX",
"uXuXuXuXuXuXuXuXuXuXuXuXuXuXuXK I I U <.1.1.2.4.4.f.#.N ( S E.p p r 0 .Xx.G.H.K.N.'.>X-X'.J.J.J.G.G.D.v.k.k.k.j.h.f.f.h.&.W Q uX",
"uXuXuXuXuXuXuXuXuXuXuXuXuXuXuXI ~ I @.1.<.1.4.4.2.f.#.N ( S E.3 i ).R.z.n.H.J.J.K.K.'.N.K.K.J.J.G.G.v.D.M.k.j.k.j.f.f.4.f.;.U uX",
"uXuXuXuXuXuXuXuXuXuXuXuXuXuXuXuXH @.<.<.<.1.1.4.2.f.#.V P D [ /.`.z.z.G.H.G.J.J.N.K.N.L.L.K.K.J.G.G.G.v.C.k.j.j.j.f.f.f.f.4.uXuX",
"uXuXuXuXuXuXuXuXuXuXuXuXuXuXuX&.&.:.<.<.1.1.4.4.4.f.=.F &.g.y.c.z.Z.C.G.M.G.G.J.L.'.L.L.L.K.K.G.G.G.v.D.k.k.k.j.j.f.f.f.u.u.uXuX",
"uXuXuXuXuXuXuXuXuXuXuXuXuX$.,.,.3.:.:.<.<.1.1.4.4.4.f.f.j.j.C.Z.Z.v.k.v.M.G.H.P.N.m.m.P.P.K.K.G.G.G.G.k.k.k.k.j.f.f.f.f.u.n.4.uX",
"uXuXuXuXuXuXuXuXuXuXuX$.$.e.%.;.;.:.:.1.1.1.2.4.4.u.f.f.f.f.f.j.v.k.v.v.G.G.H.p.P.}.].c.p.J.K.G.G.M.D.k.k.k.j.j.j.f.g.u.u.A.9.uX",
"uXuXuXuXuXuXuXuXuX$.-.-.%.$.%.;.;.:.:.:.<.1.1.2.4.u.4.f.f.f.j.k.j.v.k.v.C.G.z.-X9XrXrX;X;XP.x.H.G.k.M.v.k.k.k.j.f.g.u.u.u.X.a.uX",
"uXuXuXuXuXuXuX$.$.,.$.$.$.$.%.%.;.:.:.1.<.1.1.4.4.4.4.u.g.f.j.j.j.k.k.C.v.p.3XrXrXeXrXrXrX6Xz.n.H.v.k.k.k.j.j.f.j.f.u.V.e.4X:XuX",
"uXuXuXuXuXuX$.q. .$.$.$.$.%.-.;.&.@.*.&.*.H :.2.4.4.u.f.f.f.f.f.j.j.k.D.c.3XrXeXrXrXrXrXeXrX6Xd.l.F.k.k.k.j.j.j.f.u.S.O.;XrXrXuX",
"uXuXuXuXuX$.-.$.$.$.$.$.$.~ W ^ W G F F H F &.2.2.u.4.f.f.f.f.f.j.j.C.t.[.rXeXrXeXrXqXrXrXrXrX5Xd.l.C.h.j.j.h.h.f.g.y.T.9XrXrXuX",
"uXuXuXuX$.,.$.$.$.$. .K L F C F G K H K K K :.1.1.2.u.2.u.f.f.f.j.j.C.t.*XrXeXrXrXrXrX7X7X7XrXrX6Xt.d.C.j.j.f.f.f.V.,.{.rXeXrXuX",
"uXuXuXuX$.$.$.$. .K A F F F H H H H H K F ' 2.1.1.4.2.u.f.u.f.f.g.j.A.r.0XrXeXrXrXrX,X    = qXeXrX6Xc.C.j.j.f.f.u.V.,.{.rXrXrXuX",
"uXuXuX$.-.$. .K G C F F F F F H H H H K F @.1.1.1.2.2.2.4.u.u.f.f.j.C.r.0XrXeXrXrXrXoX  O * eXeXrXrX{.q.A.f.f.f.u.V.,.} rXrXrXrX",
"uXuX$.%.~ T B C F F F G H F G H H H H K F ~ 2.<.1.2.2.4.4.f.f.u.f.f.V.r.0XrXrXrXrXrXXX    & rXrXeXrXwX[.r.V.u.u.u.V. .; rXrXrXrX",
"uX-.-.L B B G G F G F F F F H H H H H K F ' <.<.1.1.2.2.4.4.u.u.u.f.A.e.0XrXeXrXrXrXXX    & rXrXrXeXrX3XO.I.u.V.V.5.  : rXrXrXrX",
" .-.J N G G C G G G F F F H H H F H H K F ~ <.<.<.1.1.4.4.4.4.u.u.f.V.e.0XrXrXeXrXrXXX    & rXeXtXrXtXrX=XX.A.q.r.]   ; rXrXrXrX",
"uXuXK R B G J J J F G G H G G H H H H K F ' <.<.<.1.1.1.2.4.4.u.4.4.V.q.9XrXrXeXrXrXXX    & rXrXrXrXeXrXrX=X| *XOX    ; rXrXrXrX",
"uXuXuXuXuXuXG G G L T L F F F H H H H H H ~ :.:.<.<.<.1.1.2.2.2.u.u.s.,.wXrXrXrXrXrXXX    & rXeXrXrXrXwXrXrX0XrX X    ; rXrXrXrX",
"uXuXuXuXuXuXuXuXuXuXuXF L L K F H H H K H ~ :.<.:.:.1.1.1.1.2.2.4.4.i.,.;XrXeXrXrXrXXX    & rXrXtXrXrXrXqXrXeXrX|.    ; rXrXrXuX",
"uXuXuXuXuXuXuXuXuXuXuXuXuXJ F K H H H K K K %.;.:.:.<.1.1.1.1.2.1.s.S.,.B.rXtXrXeXrXXX    * rXrXrXeXeXrXeXrXrXrXoX    ; rXrXrXuX",
"uXuXuXuXuXuXuXuXuXuXuXuXuXuXuXuXF H H H K H *.;.;.:.:.<.:.1.<.5.5.3.q.U..X8XrXrXrXrXoX    = rXrXrXrXtXrXrXrXrXrX|.    * rXrXrXuX",
"uXuXuXuXuXuXuXuXuXuXuXuXuXuXuXuX~ H H H H K U %.;.:.:.:.<.<.1.9.e.^.(.y 4 x %X&XrXrX0X- # : rXeXrXeXrXrXeXrXeXrX7X& # ,XrXrXrXuX",
"uXuXuXuXuXuXuXuXuXuXuXuXuXuXuX$.-.~ H K K K K *.;.;.:.:.:.3.5.,.~.5 8 p f a 5 1 2XrXrXeXrXtXrXrXrXrXeXrXrXeXrXrXrXeXrX<X  ,XrXuX",
"uXuXuXuXuXuXuXuXuXuXuXuXuXuX$.-.$.$.K H H K H ! ;.;.;.;.;.8.;.~.5 i p p a d j j 5 &XrXrXrXrXeXrXwXeXrXrXrXrXrXrXrXrX<X    o |.uX",
"uXuXuXuXuXuXuXuXuXuXuXuXuX$.>.$.$.$.K H K K K K ~ ;.%.;.;.8.>.(.8 p p a a d d j g r 2XyXrXeXrXrXeXrXeXrXrX,X,Xu u <     O .   uX",
"uXuXuXuXuXuXuXuXuXuXuXuXuX$.$.$.$.$.K H K H K K H ' %.%.-.8.>.).8 i p p d d f g g k w h 8XrXeXrXrXrXrX8X%X.         . O X o # uX",
"uXuXuXuXuXuXuXuXuXuXuXuX$.,.$.$.$. .K H K K K K K U %.%.%.8.X.(.8 i p i i d j g k k n k h &X8X8XyX&X#Xz 8 , $   . @ +     X uXuX",
"uXuXuXuXuXuXuXuXuXuXuXuX>.$.$.$.$.W F K K K K I I K Q %.%.7.-.(.8 p p p 9 i f g k g n n n b b b h h h f z k f , $     @ > uXuXuX",
"uXuXuXuXuXuXuXuXuXuXuX$.$.$.$.$.$.K H H K K K K K K K Q %.=.-.Q.0 p p d p 9 i g k n n n n M M M n n n g g g f k 9 1 1 p j uXuXuX",
"uXuXuXuXuXuXuXuXuXuXuX$.-.$.$.$.Q H H H K H K K K I I K Q $...0.q p p a f a i 9 p g f n n M M n n n c g g g f p d d a j uXuXuXuX",
"uXuXuXuXuXuXuXuXuXuXuX$.$.$.$.@.H H H K K K K K I K K I I ! =.$.~.0 a d a g g d p 9 9 c n n n b n b k k g f f d a p j uXuXuXuXuX",
"uXuXuXuXuXuXuXuXuXuX$.,.$.@.@.I H H H H K K K K K K K I I K ^ =.X.(.e s d f f g g g k n n n n n n k k g g f d d a v p uXuXuXuXuX",
"uXuXuXuXuXuXuXuXuXuX$.,.$.$.~ C H H H H K K K K K I I I I I I /  .{ a 0 a f g g k k n k n n n n k n k g j j d j d uXuXuXuXuXuXuX",
"uXuXuXuXuXuXuXuXuXuX$.>.$.@.H H J H H K K H T ! ! ! ! I I I I I Y  .7.~.e d d g g g k k n k k k k k g g f f j d uXuXuXuXuXuXuXuX",
"uXuXuXuXuXuXuXuXuXuX$.,. .J F K K K T T K ~ ! uXK I uXI ! ! Q Q ! / ~ ..^.w j h j g g k k k k k k g g k j m d uXuXuXuXuXuXuXuXuX",
"uXuXuXuXuXuXuXuXuXuX$.-.F L R F H uXuXuXuXuXuXuXuXuXuXuXuXuXuXuXuXuXY ^ ~ { +Xz v m m g f g k k m m k f d uXuXuXuXuXuXuXuXuXuXuX",
"uXuXuXuXuXuXuXuXuXuX,. .L H F uXuXuXuXuXuXuXuXuXuXuXuXuXuXuXuXuXuXuXuXuXuXuXuXo.).w g j m m m v k f uXuXuXuXuXuXuXuXuXuXuXuXuXuX",
"uXuXuXuXuXuXuXuXuXuX..uXuXuXuXuXuXuXuXuXuXuXuXuXuXuXuXuXuXuXuXuXuXuXuXuXuXuXuXuXuXuXuXuXuXuXuXuXuXuXuXuXuXuXuXuXuXuXuXuXuXuXuXuX"
};
