/* XPM */
static char *result[] = {
/* columns rows colors chars-per-pixel */
"53 64 220 2 ",
"   c #000000",
".  c #04030D",
"X  c #16060A",
"o  c #080A13",
"O  c #19171A",
"+  c #281716",
"@  c #3D1F19",
"#  c #232324",
"$  c #513328",
"%  c #3F3F40",
"&  c #565656",
"*  c #595959",
"=  c gray31",
"-  c DimGray",
";  c #717172",
":  c #706F6A",
">  c #874D38",
",  c #B47153",
"<  c #BA7F6B",
"1  c #CC7A57",
"2  c #C7757B",
"3  c #F68C00",
"4  c #F1882A",
"5  c #ED8A4B",
"6  c #EA8347",
"7  c #F4964A",
"8  c #EB8B53",
"9  c #E1825E",
"0  c #EA8C5C",
"q  c #E88759",
"w  c #F4965C",
"e  c #F29454",
"r  c #F08E56",
"t  c #D88967",
"y  c #DD8777",
"u  c #CF8C72",
"i  c #E28662",
"p  c #E68A64",
"a  c #E98E65",
"s  c #E68E6C",
"d  c #EB9166",
"f  c #EC946A",
"g  c #EF986C",
"h  c #F49B65",
"j  c #F3946A",
"k  c #F29B6D",
"l  c #F69966",
"z  c #EF9A72",
"x  c #EB9773",
"c  c #F29E71",
"v  c #FA9E77",
"b  c #F7A069",
"n  c #F5A272",
"m  c #FDA473",
"M  c #F9A877",
"N  c #08139D",
"B  c #081D9E",
"V  c #07039B",
"C  c #07229F",
"Z  c #0013AB",
"A  c #041AA8",
"S  c #0004B7",
"D  c #000BAF",
"F  c #0625A3",
"G  c #0821A1",
"H  c #052AA6",
"J  c #0824AA",
"K  c #042DA9",
"L  c #0729AD",
"P  c #1629AD",
"I  c #0233AC",
"U  c #0039AF",
"Y  c #1337AC",
"T  c #052CB3",
"R  c #062CB9",
"E  c #132FB0",
"W  c #0335B4",
"Q  c #023AB4",
"!  c #0434B9",
"~  c #033CBD",
"^  c #0939B3",
"/  c #1838B5",
"(  c #2529AB",
")  c #252BB1",
"_  c #523CAC",
"`  c #4936B3",
"'  c #0741BD",
"]  c #254AAA",
"[  c #674DBC",
"{  c #7157B6",
"}  c #7079A4",
"|  c #0002DC",
" . c #023CC2",
".. c #013ACD",
"X. c #0138D5",
"o. c #0026D0",
"O. c #0018E2",
"+. c #003AE8",
"@. c #0241C6",
"#. c #0D43C1",
"$. c #0044CB",
"%. c #0448CE",
"&. c #0A4CCD",
"*. c #0748C7",
"=. c #1647CB",
"-. c #0045D3",
";. c #054BD2",
":. c #094ED4",
">. c #0046DA",
",. c #014ADC",
"<. c #0A51D6",
"1. c #0D55DA",
"2. c #0F58DD",
"3. c #0451DC",
"4. c #105ADE",
"5. c #1856D9",
"6. c #1550D1",
"7. c #2549CD",
"8. c #224ED1",
"9. c #245ADC",
"0. c #3555D3",
"q. c #014CE2",
"w. c #0043E3",
"e. c #0052E4",
"r. c #0054E9",
"t. c #005EED",
"y. c #045BE4",
"u. c #135DE2",
"i. c #195EE4",
"p. c #005AF6",
"a. c #0048F3",
"s. c #205FE0",
"d. c #0164EC",
"f. c #1661E6",
"g. c #1B62E6",
"h. c #1664E9",
"j. c #1966EA",
"k. c #1C6AED",
"l. c #1169EE",
"z. c #006CF3",
"x. c #006CF9",
"c. c #0368F4",
"v. c #1E6DF1",
"b. c #1A6DFD",
"n. c #1569F4",
"m. c #0072F9",
"M. c #1D72F5",
"N. c #1775FA",
"B. c #1971EA",
"V. c #2362E4",
"C. c #246AEC",
"Z. c #2C69EA",
"A. c #2765E6",
"S. c #336AE7",
"D. c #216FF2",
"F. c #2A6FF0",
"G. c #2372F5",
"H. c #2B74F5",
"J. c #2476F9",
"K. c #2779FB",
"L. c #2A7AFC",
"P. c #387BF9",
"I. c #3B70EC",
"U. c #6860CD",
"Y. c #535EE2",
"T. c #4970E2",
"R. c #6472E2",
"E. c #965B9B",
"W. c #99609C",
"Q. c #BB7696",
"!. c #8A5CAF",
"~. c #A76EA7",
"^. c #A972AC",
"/. c #AF77B2",
"(. c #C67A8B",
"). c #C27B94",
"_. c #885EC1",
"`. c #8070D1",
"'. c #3784FB",
"]. c #548EFA",
"[. c #6687ED",
"{. c #738CE8",
"}. c #6394FA",
"|. c #989898",
" X c #A2A094",
".X c #B481AF",
"XX c #ACACAC",
"oX c #A3A3A3",
"OX c #8A91B8",
"+X c #CD828B",
"@X c #ED9580",
"#X c #F0AD91",
"$X c #C285A8",
"%X c #EDBAA4",
"&X c #F4CCBD",
"*X c #8D9FED",
"=X c #9FACEC",
"-X c #91ADF7",
";X c #AAB6EF",
":X c #B7C3FA",
">X c #AACAFE",
",X c #DCDBDB",
"<X c #D1D1D2",
"1X c #CCCDCD",
"2X c #F4CDC0",
"3X c #C2CBF5",
"4X c #C8D6F7",
"5X c #D9DEF7",
"6X c #DADFF9",
"7X c #E7E7E7",
"8X c #F9EBE6",
"9X c #E6E9F7",
"0X c #E8EAF7",
"qX c #F7F7F6",
"wX c #F6F6F9",
"eX c #F7FAFB",
"rX c #FBFBFB",
"tX c #F9F6F4",
"yX c #F9F1EF",
"uX c None",
/* pixels */
"uXuXuXuXuXuXuXuXuXuXuXuXuXuXuXuXuXuXuXuXuXuXuXuXuXuXuXrXrXrXrXrXrXuXuXuXuXuXuXuXuXuXuXuXuXuXuXuXuXuXuXuXuX",
"uXuXuXuXuXuXuXuXuXuXuXQ Q U Q Q U uXuX4.9.a.:XrXrXrXrXrXrXrXrXrXrXrXrXrXrXrX|.  # uXuXuXuXuXuXuXuXuXuXuXuX",
"uXuXuXuXuXuXuXuXU W U Q ~ ~ ~ W <.u.u.n.A.X.4XrXrXrXrXrXrXrXrXrXrXrXrXrXrX,Xo . o X uXuXuXuXuXuXuXuXuXuXuX",
"uXuXuXuXuXuXuX~ W I W I U K Q &.u.u.u.u.u.u.,.;X0XrXrXrXrXrXrXrXrXrXrXrXrX    O X   > l uXuXuXuXuXuXuXuXuX",
"uXuXuXuXuXuXuXuXK K H I C ^ 4.f.u.u.f.u.f.u.V.o.T.{.{.} ; : ; ; ; ; ; * ,X<X    O   @ p j uXuXuXuXuXuXuXuX",
"uXuXuXuXuXuXuXuXuXK ! H *.4.f.f.f.f.f.f.u.i.u.S.y.q.,.q. .              # rX1X  o +   1 a j p uXuXuXuXuXuX",
"uXuXuXuXuXuXuXuXuXuXuX4.k.j.f.f.f.f.f.f.h.h.f.f.g.V.V.s.j.5.]           & rXrX<   +   1 d p v uXuXuXuXuXuX",
"uXuXuXuXuXuXuXuXuXuXh.n.f.f.j.j.j.j.j.j.h.h.f.j.f.u.u.u.u.s.q.OX X|.|.|.7XrXrXu   . $ i d a s d uXuXuXuXuX",
"uXuXuXuXuXuXuXuXuXj.b.h.j.j.j.j.k.j.j.f.j.j.f.f.f.f.f.f.u.9.,.*XrXrXrXrXrXtXrXu     , j a d d j d uXuXuXuX",
"uXuXuXuXuXuXuXuXuXj.j.j.j.j.k.k.k.k.k.k.k.j.j.j.f.f.f.f.f.2.S.| 0XrXrXrXeXeXrX,X  $ d g d d d d j d uXuXuX",
"uXuXuXuXuXuXuXuXh.k.k.h.k.k.k.k.k.k.k.k.k.k.k.j.j.j.h.f.V.S.+.=XrXeXrXrXrXeXrX,X  , k g g g d g f m uXuXuX",
"uXuXuXuXuXuXuXj.n.k.k.k.k.k.k.k.k.v.C.k.k.k.k.j.k.j.h.Z.y.O.=XrXtXeXeXrXrXrXrXrX%Xr c f g g g g g j f uXuX",
"uXuXuXuXuXuXj.b.j.k.k.k.k.v.v.D.k.G.k.k.v.k.k.k.j.C.C.q.[.3XrXrXrXrXeXeXtXrXeXrX8Xz j g c k k g g j d uXuX",
"uXuXuXuXuXuXj.j.k.v.k.k.v.D.D.D.v.G.G.M.G.v.C.n.C.d.d.{.wXrXeXtXeXrXrXrXrXrXrXrXrX#Xh c k c c k g g k uXuX",
"uXuXuXuXuXn.k.j.k.k.v.D.D.M.D.D.G.G.D.G.M.D.v.F.l.t.6XrXrXqXrXqXtXrXeXrXeXrXrXtXrX&Xh n c c k k k g m j uX",
"uXuXuXuXj.n.j.k.k.D.v.D.D.G.G.G.G.G.G.G.G.M.F.l.c.6XrXrXqXrXrXrXrXrXtXrXrXtXrXeXrXtXh n n n n k k k m g uX",
"uXuXuXuXj.k.k.k.M.k.G.C.G.J.J.J.J.J.J.J.G.H.n.c.6XrXrXrXrXrXrXrXqXrXrXqXqXrXrXqXrX8Xb M n n n n c k k v uX",
"uXuXuXg.b.k.k.k.k.C.M.G.G.J.J.J.J.J.J.J.H.z.c.6XrXrXrXrXrXrXrXrXrXrXrXrXrXrXrXrXrX8Xb M M n n n c k j m uX",
"uXuXuXg.j.k.k.k.B.G.M.G.G.J.M.J.K.K.K.L.M.P.6XrXrX7X= * & & & & & & * & : rXrXqXrX&Xb M M n n k n k g m uX",
"uXuXuXb.j.j.k.k.v.v.G.G.J.J.'.'.K.L.K.P.c.;XrXqXrX,X  O                 # qXrXrX8Xh b M M n n n k k j m uX",
"uXuXg.n.j.j.k.v.v.D.G.H.'.}.>X-XN.L.L.P.x.;XrXrXrX7X                    - qXrXtXw g n n n k n n k g f k uX",
"uXuXh.h.j.k.k.k.D.v.G.G.m.}.4X>X'.L.L.m.].rXrXrXrXrX,XoXXXXXXXXXXXXXXXoX0XrXrX&Xw n n n f 9 g c k g M f uX",
"uXf.b.h.j.j.k.k.v.D.G.G.N.L.].L.N.N.L.x.}.rXrXrXrXrXrXrXrXrXrXrXrXrXrXrXrXrX2X8 n k k n g 9 k k g g m w uX",
"uXf.j.j.j.k.k.k.v.v.F.M.G.J.N.J.K.L.H.b.P.9XrXrXrXrXrXqXrXrXqXqXrXqXrXrXrX&X5 g g g g k a p g g g h v ).uX",
"uXb.h.h.j.j.k.k.k.G.z.G.m.M.H.K.K.K.J.P.p.-XrXeXrXrXrXeXrXrXqXrXrXrXrXrX&X6 x g f g j g 9 g g g f h x o.uX",
"uXn.i.f.j.j.j.k.C.n.Y.y $Xx.J.H.M.J.J.J.H.c.4XrXeXtXrXtXrXrXrXrXqXrXrXrX#Xq f d f g g 9 i g f f f h +XuXuX",
"u.j.f.f.h.j.k.k.I.+./.7 r $Xm.H.H.G.M.G.G.D.p.3XrXrXrXrXrXrXrXrXrXrXrX8Xx a d d d f q 9 a g d d a w { uXuX",
"n.u.u.f.h.h.h.S.w._.k h z 7 $Xz.M.G.v.G.G.C.n.d.[.*X0X0X0X9X0X9XwX;XB..X4 s a s a i i p d d d a e ^.! uXuX",
"u.u.u.i.h.h.Z.w._.h k n k z 7 .Xz.D.D.D.D.k.D.C.c.t.r.r.e.e.q.q.q.q.q.U.y a p a p i p a a d s 0 ~...Y uXuX",
"u.u.u.u.i.C.>.[ h n n n k g f r R.z.D.D.v.k.k.C.C.C.C.C.A.V.V.V.V.g.0.e.(.8 p p p p a p a a r a 7.~ Y uXuX",
"1.u.u.u.i.i.o.Q.h c M M n g f 8 +Xx.Z.n.k.k.k.k.j.j.j.h.f.f.f.u.4.4.5.y.^.5 i i p i p p p 0 (.{  ./ uXuXuX",
"u.1.u.u.h.,._ f g k k n k f s s t `.c.Z.k.j.j.j.j.h.i.i.f.u.u.u.u.4.2.5.q.~.5 8 8 8 8 q q ~.X.$.Y ! uXuXuX",
"1.u.1.u.V.-.2 d s h g j h e e a 3 /.c.Z.j.j.j.j.f.g.f.f.f.u.4.4.2.2.2.1.9.,.~.(.).(.(.Q.0...=./ I W uXuXuX",
"1.1.u.u.V.-.2 q a d f w +X!.W.E.E.[ y.C.j.f.j.f.f.f.f.f.4.f.4.4.2.2.1.1.<.8.,.,.>.-.X...$.=.^ I U W uXuXuX",
"1.4.1.u.5.T ` _ _ _ _ _ ) S S S S D V.h.g.f.f.f.f.u.f.4.f.4.4.4.2.1.1.1.<.<.8.8.8.8.7.=.%.W I I U W uXuXuX",
"1.1.1.u.1.A A Z Z Z Z Z A ( ( ( ) P &.h.f.f.f.f.f.u.f.4.4.4.2.2.1.1.1.<.<.<.;.;.%.%.%.%.W I I I I ! uXuXuX",
"1.1.1.1.2.<.5.5.5.Y E E E K N N N V J f.u.f.u.u.u.u.4.4.2.2.2.2.1.1.<.<.<.<.;.;.%.%.%.Q K I K I I I uXuXuX",
"<.1.1.1.1.u.2.u.u.u.u.i.f.f.#.#.#.#.=.u.u.u.u.u.4.u.4.4.2.2.2.1.1.<.<.<.;.;.;.%.%.%.Q K I I K I ! uXuXuXuX",
"<.<.1.1.1.1.1.u.1.u.u.u.f.2.f.f.f.f.f.u.u.u.u.4.4.4.4.2.2.<.2.<.<.<.<.;.;.;.%.;.' I K I K I I K ! K uXuXuX",
":.<.<.1.1.1.1.1.1.1.u.1.2.2.2.u.2.4.2.2.4.4.2.4.2.4.1.1.1.1.<.<.<.:.<.;.;.;.;.' K K K K I K K K ! K uXuXuX",
":.:.<.<.<.1.1.1.1.1.1.2.2.2.2.2.2.2.2.4.4.4.2.2.2.2.1.1.<.<.<.:.:.:.:.;.;.@.Q I K H I H K K K K ! uXuXuXuX",
":.:.:.:.<.<.1.<.1.1.2.2.1.1.1.1.2.2.2.1.1.1.2.&.&.<.1.1.1.1.<.3.<.:.%.$.W K H H H I K K K K K I T W uXuXuX",
";.:.:.:.:.<.<.<.<.1.&.*.2.1.1.1.2.1.1.1.1.1.1.H F H ' ~ ' ' ~ ' ' ~ K H H K K K K K K H K K K K H  .uXuXuX",
"uXq.;.:.:.:.<.:.&.' U I Q ' <.1.<.1.1.1.1.<.1.*.H H H H H F F F F F K H K K K H H H H I K K H K K L uXuXuX",
"uXe.%.;.;.:.:.$.K I U U I I Q <.1.<.<.1.<.<.<.%.F H K K K K H H K K K K H K H H H H H H K H H K H T uXuXuX",
"uX,.%.%.%.;.&.^ U U U U U U I U  .<.:.:.:.:.<.*.F H H H H H K L K F H H K F K H K I H H K H H H H W uXuXuX",
"uXq.%.%.$.;.Q I I I U I I I I I I @.:.:.;.:.<.@.C H H H H H H H H H F H F ~ $.$.$.@.W H F H H H H K uXuXuX",
"uX%.,.$.%.%.Q I I I I I I I I W ~ H ;.<.;.;.;.;.^ F H H H H F H F K K H ~ ;.$.$.$.$.$.@.W H H H H H H uXuX",
"uX$.,.$.;. .K I K K I K I K W I I uX;.,.;.;.%.;.! F H F H H F H F H H uXuX$.>.$.$.$.$.$.$.$.I C J H J uXuX",
"uX$.,.$.$.~ H I K K K I K W K uXuXuXuX;.%.%.%.;.W F H F L F F H F L H uXuXuX$.,.$.$.$.@.$.$.$.~ H F R H uX",
"uXuX-.$.@.K K H K K H K T K uXuXuXuXuX$.q.%.$.$.~ F F F F F F F F H F uXuXuXuX$.$.,.$.$.$.$.$.$. .H J H uX",
"uXuX$.$.@.H H H H K H I H uXuXuXuXuXuXuX$.%.$.$.$.H F F H F F F F T uXuXuXuXuXuXuX@.,.$.$...$.@.$. .F T uX",
"uXuX$.$. .H H H H H T H uXuXuXuXuXuXuXuX$.;.$.$.$.K G F F F F F L F uXuXuXuXuXuXuXuXuX$.$.$.q.,.,.,.-. .uX",
"uXuX@.%.K F F F F T H uXuXuXuXuXuXuXuXuXuX$...$.$. .C F F F G F R uXuXuXuXuXuXuXuXuXuXuXuXuX$.$.$.$.$.,...",
"uXuXuX>.K F F J F uXuXuXuXuXuXuXuXuXuXuXuX$.,.$.$.$.W B F G F F L uXuXuXuXuXuXuXuXuXuXuXuXuXuXuXuXuXuXuXuX",
"uXuXuX>.L F F F uXuXuXuXuXuXuXuXuXuXuXuXuXuX$.$.$.$. .G G G G J G uXuXuXuXuXuXuXuXuXuXuXuXuXuXuXuXuXuXuXuX",
"uXuXuX,.K A F uXuXuXuXuXuXuXuXuXuXuXuXuXuXuX$.,.$.$.$.H C G G J G uXuXuXuXuXuXuXuXuXuXuXuXuXuXuXuXuXuXuXuX",
"uXuXuX$.L B uXuXuXuXuXuXuXuXuXuXuXuXuXuXuXuXuX$.,.$.$. .B C A F F uXuXuXuXuXuXuXuXuXuXuXuXuXuXuXuXuXuXuXuX",
"uXuXuX;.R uXuXuXuXuXuXuXuXuXuXuXuXuXuXuXuXuXuXuX$.>.$.$.E B C G uXuXuXuXuXuXuXuXuXuXuXuXuXuXuXuXuXuXuXuXuX",
"uXuXuXuXuXuXuXuXuXuXuXuXuXuXuXuXuXuXuXuXuXuXuXuXuX$.$.;.~ B G B uXuXuXuXuXuXuXuXuXuXuXuXuXuXuXuXuXuXuXuXuX",
"uXuXuXuXuXuXuXuXuXuXuXuXuXuXuXuXuXuXuXuXuXuXuXuXuXuXuX$.-.L N R uXuXuXuXuXuXuXuXuXuXuXuXuXuXuXuXuXuXuXuXuX",
"uXuXuXuXuXuXuXuXuXuXuXuXuXuXuXuXuXuXuXuXuXuXuXuXuXuXuXuX$.-.J I uXuXuXuXuXuXuXuXuXuXuXuXuXuXuXuXuXuXuXuXuX",
"uXuXuXuXuXuXuXuXuXuXuXuXuXuXuXuXuXuXuXuXuXuXuXuXuXuXuXuXuX;...uXuXuXuXuXuXuXuXuXuXuXuXuXuXuXuXuXuXuXuXuXuX",
"uXuXuXuXuXuXuXuXuXuXuXuXuXuXuXuXuXuXuXuXuXuXuXuXuXuXuXuXuXuX .uXuXuXuXuXuXuXuXuXuXuXuXuXuXuXuXuXuXuXuXuXuX"
};
