/* XPM */
static char *result[] = {
/* columns rows colors chars-per-pixel */
"53 64 220 2 ",
"   c #000000",
".  c #04030D",
"X  c #16060A",
"o  c #080A13",
"O  c #19171A",
"+  c #281716",
"@  c #3D1F19",
"#  c #232324",
"$  c #513328",
"%  c #3F3F40",
"&  c #565656",
"*  c #595959",
"=  c gray31",
"-  c DimGray",
";  c #717172",
":  c #706F6A",
">  c #874D38",
",  c #B47153",
"<  c #BA7F6B",
"1  c #CC7A57",
"2  c #C7757B",
"3  c #F68C00",
"4  c #F1882A",
"5  c #ED8A4B",
"6  c #EA8347",
"7  c #F4964A",
"8  c #EB8B53",
"9  c #E1825E",
"0  c #EA8C5C",
"q  c #E88759",
"w  c #F4965C",
"e  c #F29454",
"r  c #F08E56",
"t  c #D88967",
"y  c #DD8777",
"u  c #CF8C72",
"i  c #E28662",
"p  c #E68A64",
"a  c #E98E65",
"s  c #E68E6C",
"d  c #EB9166",
"f  c #EC946A",
"g  c #EF986C",
"h  c #F49B65",
"j  c #F3946A",
"k  c #F29B6D",
"l  c #F69966",
"z  c #EF9A72",
"x  c #EB9773",
"c  c #F29E71",
"v  c #FA9E77",
"b  c #F7A069",
"n  c #F5A272",
"m  c #FDA473",
"M  c #F9A877",
"N  c #08139D",
"B  c #081D9E",
"V  c #07039B",
"C  c #07229F",
"Z  c #0013AB",
"A  c #041AA8",
"S  c #0004B7",
"D  c #000BAF",
"F  c #0625A3",
"G  c #0821A1",
"H  c #052AA6",
"J  c #0824AA",
"K  c #042DA9",
"L  c #0729AD",
"P  c #1629AD",
"I  c #0233AC",
"U  c #0039AF",
"Y  c #1337AC",
"T  c #052CB3",
"R  c #062CB9",
"E  c #132FB0",
"W  c #0335B4",
"Q  c #023AB4",
"!  c #0434B9",
"~  c #033CBD",
"^  c #0939B3",
"/  c #1838B5",
"(  c #2529AB",
")  c #252BB1",
"_  c #523CAC",
"`  c #4936B3",
"'  c #0741BD",
"]  c #254AAA",
"[  c #674DBC",
"{  c #7157B6",
"}  c #7079A4",
"|  c #0002DC",
" . c #023CC2",
".. c #013ACD",
"X. c #0138D5",
"o. c #0026D0",
"O. c #0018E2",
"+. c #003AE8",
"@. c #0241C6",
"#. c #0D43C1",
"$. c #0044CB",
"%. c #0448CE",
"&. c #0A4CCD",
"*. c #0748C7",
"=. c #1647CB",
"-. c #0045D3",
";. c #054BD2",
":. c #094ED4",
">. c #0046DA",
",. c #014ADC",
"<. c #0A51D6",
"1. c #0D55DA",
"2. c #0F58DD",
"3. c #0451DC",
"4. c #105ADE",
"5. c #1856D9",
"6. c #1550D1",
"7. c #2549CD",
"8. c #224ED1",
"9. c #245ADC",
"0. c #3555D3",
"q. c #014CE2",
"w. c #0043E3",
"e. c #0052E4",
"r. c #0054E9",
"t. c #005EED",
"y. c #045BE4",
"u. c #135DE2",
"i. c #195EE4",
"p. c #005AF6",
"a. c #0048F3",
"s. c #205FE0",
"d. c #0164EC",
"f. c #1661E6",
"g. c #1B62E6",
"h. c #1664E9",
"j. c #1966EA",
"k. c #1C6AED",
"l. c #1169EE",
"z. c #006CF3",
"x. c #006CF9",
"c. c #0368F4",
"v. c #1E6DF1",
"b. c #1A6DFD",
"n. c #1569F4",
"m. c #0072F9",
"M. c #1D72F5",
"N. c #1775FA",
"B. c #1971EA",
"V. c #2362E4",
"C. c #246AEC",
"Z. c #2C69EA",
"A. c #2765E6",
"S. c #336AE7",
"D. c #216FF2",
"F. c #2A6FF0",
"G. c #2372F5",
"H. c #2B74F5",
"J. c #2476F9",
"K. c #2779FB",
"L. c #2A7AFC",
"P. c #387BF9",
"I. c #3B70EC",
"U. c #6860CD",
"Y. c #535EE2",
"T. c #4970E2",
"R. c #6472E2",
"E. c #965B9B",
"W. c #99609C",
"Q. c #BB7696",
"!. c #8A5CAF",
"~. c #A76EA7",
"^. c #A972AC",
"/. c #AF77B2",
"(. c #C67A8B",
"). c #C27B94",
"_. c #885EC1",
"`. c #8070D1",
"'. c #3784FB",
"]. c #548EFA",
"[. c #6687ED",
"{. c #738CE8",
"}. c #6394FA",
"|. c #989898",
" X c #A2A094",
".X c #B481AF",
"XX c #ACACAC",
"oX c #A3A3A3",
"OX c #8A91B8",
"+X c #CD828B",
"@X c #ED9580",
"#X c #F0AD91",
"$X c #C285A8",
"%X c #EDBAA4",
"&X c #F4CCBD",
"*X c #8D9FED",
"=X c #9FACEC",
"-X c #91ADF7",
";X c #AAB6EF",
":X c #B7C3FA",
">X c #AACAFE",
",X c #DCDBDB",
"<X c #D1D1D2",
"1X c #CCCDCD",
"2X c #F4CDC0",
"3X c #C2CBF5",
"4X c #C8D6F7",
"5X c #D9DEF7",
"6X c #DADFF9",
"7X c #E7E7E7",
"8X c #F9EBE6",
"9X c #E6E9F7",
"0X c #E8EAF7",
"qX c #F7F7F6",
"wX c #F6F6F9",
"eX c #F7FAFB",
"rX c #FBFBFB",
"tX c #F9F6F4",
"yX c #F9F1EF",
"uX c None",
/* pixels */
"uXuXuXuXuXuXuXuXuXuXuXuXuXuXuXuXuXuXuXuXuXuX .uXuXuXuXuXuXuXuXuXuXuXuXuXuXuXuXuXuXuXuXuXuXuXuXuXuXuXuXuXuX",
"uXuXuXuXuXuXuXuXuXuXuXuXuXuXuXuXuXuXuXuXuXuX..%.uXuXuXuXuXuXuXuXuXuXuXuXuXuXuXuXuXuXuXuXuXuXuXuXuXuXuXuXuX",
"uXuXuXuXuXuXuXuXuXuXuXuXuXuXuXuXuXuXuXuXuXT J -.$.uXuXuXuXuXuXuXuXuXuXuXuXuXuXuXuXuXuXuXuXuXuXuXuXuXuXuXuX",
"uXuXuXuXuXuXuXuXuXuXuXuXuXuXuXuXuXuXuXuXuX^ N L -.%.uXuXuXuXuXuXuXuXuXuXuXuXuXuXuXuXuXuXuXuXuXuXuXuXuXuXuX",
"uXuXuXuXuXuXuXuXuXuXuXuXuXuXuXuXuXuXuXuXuXB A B ~ -.$.$.uXuXuXuXuXuXuXuXuXuXuXuXuXuXuXuXuXuXuXuXuXuXuXuXuX",
"uXuXuXuXuXuXuXuXuXuXuXuXuXuXuXuXuXuXuXuXuXG C B K $.$.,.$.uXuXuXuXuXuXuXuXuXuXuXuXuXuXuXuXuXuXuX! $.uXuXuX",
"uXuXuXuXuXuXuXuXuXuXuXuXuXuXuXuXuXuXuXuXG J C G B  .$.$.>.$.uXuXuXuXuXuXuXuXuXuXuXuXuXuXuXuXuXA T $.uXuXuX",
"uXuXuXuXuXuXuXuXuXuXuXuXuXuXuXuXuXuXuXuXG J C G G K -.$.$.,.$.uXuXuXuXuXuXuXuXuXuXuXuXuXuXuXG G L ,.uXuXuX",
"uXuXuXuXuXuXuXuXuXuXuXuXuXuXuXuXuXuXuXuXG J G F G C  .$...$.$.uXuXuXuXuXuXuXuXuXuXuXuXuXuXF F G H ;.uXuXuX",
"uXuXuXuXuXuXuXuXuXuXuXuXuXuXuXuXuXuXuXuXL F C F F A I $.@.$.,.$.uXuXuXuXuXuXuXuXuXuXuXuXF F F G K >.uXuXuX",
"..,.$.$.$.$...uXuXuXuXuXuXuXuXuXuXuXuXuXL J F G F F C  .$.$.@.;.uXuXuXuXuXuXuXuXuXuXF R F F H C L -.$.uXuX",
"uX .-.,.,.,.q.$.$.$.uXuXuXuXuXuXuXuXuXF L J F F G F F K $.$.$.-.$.uXuXuXuXuXuXuXuXH T H H H H H  .-.$.uXuX",
"uXL J  .$.$.$.$.$.-.>.@.uXuXuXuXuXuXuXL F F F J F F F H $.$.$.-.$.uXuXuXuXuXuXuXH T H H L H H H @.;.$.uXuX",
"uXH L H  .$.$.$.$.$.@.,.$.$.uXuXuXuXH L F F F F F H F F ~ $.$.%.q.$.uXuXuXuXuXH W K K H K K K I @.$.-.uXuX",
"uXF R F H ~ @.$.$.$.$.$.$.,.$.uXuXuXF L H F F H H F H C W ;.%.$.%.,.uXuXuXuXK W K K K H K K H ' $.@.,.$.uX",
"uXuXF H H G I $.$.$.$.$.@.$.>.$.uXuXH F H H F H H H H F ! ;.;.;.;.:.;.uXI I W K K I I I I I H ' $.$.,.$.uX",
"uXuXH K H H H F Q @.$.$.$.$.$.>.Q J H F H H H H H H H F W %.;.;.;.<.;.K ~ I I I I I I I I K Q %.;.$.;.$.uX",
"uXuXuXK H H H H F H W $.$.$.$.~ H H H H H H H H H H H H C *.:.:.;.<.;.@.I U I I I I I I I I Q ;.%.%.-.e.uX",
"uXuXuXT K H H H H H F H K H K H H H H H H H H H H H H K F %.<.:.:.<.<.<.' Q I U I U I U I Q ;.;.&.%.%.,.uX",
"uXuXuXT K H H K I H H H H H H K H K K K K K K H K K K K F *.<.<.<.<.<.<.<.:.U U U Q U U I %.<.;.;.:.;.q.uX",
"uXuXuXL K K K K H H K I K H K H K K K H F H F F H F F K H *.1.1.1.1.1.<.<.1.<.' Q U U ' ;.:.<.:.;.:.;.3.uX",
"uXuXuX .H K H K I H K H K H I K H F K ~ ~ ~ ~ ' ' ~ ' K F H <.1.1.1.1.1.1.1.1.1.1.*.&.1.1.<.<.:.:.:.:.;.:.",
"uXuXuXW T K K K K K K K K I H H W $.*.<.<.<.1.1.1.1.1.<.&.&.1.1.2.2.2.2.2.2.1.2.1.2.1.1.<.1.2.<.<.:.:.:.;.",
"uXuXuXuX! K I K K H I H I H Q @.;.;.:.:.;.<.<.<.<.1.1.1.2.u.4.4.2.2.4.2.4.2.4.2.2.1.1.1.1.2.<.<.1.:.<.:.:.",
"uXuXuXK ! K I K K K I H H ~ ;.;.;.;.:.<.:.1.1.1.1.1.1.2.4.4.4.4.4.4.u.2.2.u.2.2.u.2.2.2.2.2.<.1.1.<.<.<.:.",
"uXuXuXK ! K K I I I K I  .;.;.;.:.:.<.<.:.1.1.1.1.1.4.4.4.u.4.4.u.u.u.i.f.f.f.u.u.u.u.2.2.2.2.2.1.1.1.:.<.",
"uXuXuXuX! I I K I K Q %.;.;.;.:.;.<.<.<.1.1.2.4.4.4.4.4.4.u.u.u.u.i.=.#.#.' #.u.f.u.u.u.u.u.2.u.2.1.1.1.<.",
"uXuXuXI I K I I K Q $.%.$.;.;.:.<.<.<.1.1.2.2.4.4.4.4.4.u.u.u.u.u.f.F V N N Z K E E E E 5.5.6.<.2.2.2.1.<.",
"uXuXuX! I I I I Q $.;.%.;.;.;.:.<.<.1.1.1.2.4.4.u.u.u.u.g.u.f.f.f.f.&.P ( ( ( ( F Z Z Z Z Z A A 1.4.2.1.1.",
"uXuXuX! I I K Q %.7.=.7.7.8.8.:.<.1.1.1.1.4.4.4.4.u.u.f.f.f.f.j.f.f.V.D S S S S ) _ _ _ _ _ ` T 2.4.2.2.2.",
"uXuXuXQ I I ^ =.$...X.-.>.>.;.5.1.<.1.2.4.4.4.4.f.u.f.f.f.f.j.f.j.C.t.[ E.E.W.E.+Xw f d i 8 2 ..A.4.4.2.2.",
"uXuXuXQ I / =.-.0.Q.(.).).(.~.q.9.1.2.2.4.4.4.g.u.f.f.f.j.j.j.j.j.Z.c./.3 0 w l h g j j d a (.-.A.4.4.4.2.",
"uXuXuXQ Y $.X.~.q q 8 8 5 8 5 ^.q.5.2.4.4.u.u.u.f.f.j.f.j.j.j.j.k.Z.c.U.s s f x k n c k g d ` ;.g.u.u.u.2.",
"uXuXuX/  .{ (.0 p p p i i i t 5 ^.y.5.u.u.u.f.f.f.f.h.h.j.k.k.k.k.n.S.c.+Xw f g k M n c h Q.X.i.i.i.u.u.u.",
"uXuXY  .7.p 8 p a a a p a p p q (.e.0.f.V.V.V.V.A.C.A.C.C.k.k.v.C.v.D.z.R.0 f g n n m n h [ w.Z.f.i.u.u.u.",
"uXuXY X.~.r s d a a p t p a p 0 y U.q.,.,.q.e.e.e.r.t.t.d.C.C.k.v.v.D.D.m.Q.7 x k n k l !.w.Z.j.f.u.u.u.u.",
"uXuX! ^.e d d d d i 9 i a a a s 4 .XB.;XwX9X9X9X9X0X0X*X[.z.k.C.D.D.D.G.M.x.$X7 g k z _.w.S.h.j.f.f.f.u.n.",
"uXuX{ w d d d f d 9 i j f d a a x 8XrXrXrXrXrXrXrXrXrXrXrX3Xp.G.G.G.G.G.H.J.x.$Xe 7 ^.w.I.j.j.j.h.f.u.h.u.",
"uXuX+Xh f f f g a 9 f f f f f q %XrXrXrXqXrXwXqXrXwXrXrXwXrX3Xz.H.G.J.J.J.H.J.x.$Xy Y.n.D.k.k.j.h.h.f.n.uX",
"uXo.x h g f g f 9 g k j g f g 6 &XrXrXrXrXrXrXrXrXrXrXrXrXrXrX-Xp.P.J.J.J.J.L.M.m.G.z.D.k.v.k.j.j.h.f.b.uX",
"uX).v f j g k i d k k k g z 5 2XrXqXrXrXwXrXrXqXrXrXrXrXwXrXrX9XT.N.L.K.'.m.m.J.G.M.F.v.k.k.k.k.j.f.n.f.uX",
"uXw m g g c k 9 d n k k n 5 2XrXrXrXrXrXrXrXrXrXrXrXrXrXwXrXrXrX}.m.L.K.'.'.'.'.J.G.G.v.D.k.k.j.j.f.b.f.uX",
"uXf m g k k c 9 f n n n w &XrXrX7XoXXXXXXXXXXXXXXXoX,XrXqXrXrXqX].m.L.L.'.-X4X}.l.J.G.v.D.k.k.k.j.j.h.uXuX",
"uXk g k k c n k n n n b h tXeXrX-                     7XrXrXrX:Xx.P.L.L.N.>X>X}.N.G.G.G.D.k.k.j.j.k.f.uXuX",
"uXm g g c n n n n n n m 8XrXrXqX#                 O   7XrXeXrX;Xp.P.L.L.L.'.'.J.M.G.G.v.k.k.k.k.j.b.uXuXuX",
"uXm g g k n n n M M b %XrXqXrXqX; = & & * & & & & * = ,XrXrX6XP.K.L.J.L.K.J.b.J.J.G.G.D.v.k.k.j.j.h.uXuXuX",
"uXm g n k n n M M M b yXrXrXqXrXrXrXrXrXrXrXrXrXrXrXrXrXrX6Xc.z.J.J.J.J.J.J.J.J.G.G.D.v.v.k.k.j.b.f.uXuXuX",
"uXm j k k n n n n M b 8XeXrXrXrXrXrXrXrXqXrXrXrXrXrXqXrX6Xc.n.H.J.J.G.J.J.J.J.J.M.M.D.v.k.k.k.v.j.uXuXuXuX",
"uXj m k k n n n n n h yXrXrXrXqXwXrXqXrXrXqXqXrXrXwXrX6Xd.l.H.v.G.G.J.G.J.J.G.D.D.D.D.v.v.k.j.v.j.uXuXuXuX",
"uXf m k g k k n c n l &XrXrXrXrXrXrXrXrXrXrXrXqXrXrX5Xt.l.H.v.v.v.G.G.G.D.D.G.D.D.D.k.v.k.j.k.n.uXuXuXuXuX",
"uXuXk j g k k c k c h #XrXrXrXeXqXrXwXrXwXqXrXrXwX{.d.d.C.v.C.M.D.v.G.v.v.D.D.D.D.k.k.k.j.j.j.uXuXuXuXuXuX",
"uXuXd k g g k k k g g z 8XrXrXqXrXrXrXrXrXrXrX3X[.q.A.C.j.k.k.k.v.v.v.D.v.v.D.k.v.k.k.k.k.b.j.uXuXuXuXuXuX",
"uXuXd j g g f g g j c e %XeXrXrXrXrXwXqXrXrX=XO.t.A.j.j.j.j.k.k.k.k.v.k.v.v.k.k.k.k.j.j.n.j.uXuXuXuXuXuXuX",
"uXuXuXm d f f f g f k ,   ,XrXwXrXrXrXrXrX=XX.S.V.f.f.j.j.j.j.k.k.k.k.k.k.v.k.k.k.j.j.k.j.uXuXuXuXuXuXuXuX",
"uXuXuXd j f f f d g a $   ,XrXrXrXrXrXrX0X| S.y.f.f.f.f.j.j.j.j.j.k.k.k.k.j.k.k.j.j.j.h.uXuXuXuXuXuXuXuXuX",
"uXuXuXuXf j a d a k ,     u rXrXrXrXrXrXrX*X,.V.u.f.f.f.j.f.j.j.j.j.j.j.j.j.j.j.j.f.b.f.uXuXuXuXuXuXuXuXuX",
"uXuXuXuXuXa a a d t $ .   t rXrX7X|.|.|. XOXr.s.u.i.u.i.f.g.f.f.j.j.j.f.j.j.f.f.f.n.j.uXuXuXuXuXuXuXuXuXuX",
"uXuXuXuXuXuXv a d 1   +   2 rXqX&           ] 5.V.s.i.s.g.f.f.f.f.f.f.f.f.j.f.j.j.2.uXuXuXuXuXuXuXuXuXuXuX",
"uXuXuXuXuXuXa j a 1   + o   1XrX#               ..q.q.q.3.S.f.f.f.g.f.f.f.f.f.4.#.K R K uXuXuXuXuXuXuXuXuX",
"uXuXuXuXuXuXuXuXj p @   O     <X,X* ; ; ; ; ; : ; } {.{.T.o.V.u.f.u.u.f.f.f.4.^ F I K W I uXuXuXuXuXuXuXuX",
"uXuXuXuXuXuXuXuXuXj >   X O     rXrXrXrXrXrXrXrXrXrXrXrX0X;Xe.i.u.u.u.i.u.&.^ I I I W I Q ~ uXuXuXuXuXuXuX",
"uXuXuXuXuXuXuXuXuXuXuXX o   o ,XrXrXrXrXrXrXrXrXrXrXrXrXrXrX3XX.s.n.f.4.:.W Q ~ ~ Q I U W uXuXuXuXuXuXuXuX",
"uXuXuXuXuXuXuXuXuXuXuXuX#   |.rXrXrXrXrXrXrXrXrXrXrXrXrXrXrX:Xa.s.2.uXuXU Q Q U Q Q uXuXuXuXuXuXuXuXuXuXuX",
"uXuXuXuXuXuXuXuXuXuXuXuXuXuXuXuXuXuXuXuXrXrXrXrXrXrXuXuXuXuXuXuXuXuXuXuXuXuXuXuXuXuXuXuXuXuXuXuXuXuXuXuXuX"
};
