/* XPM */
static char *result[] = {
/* columns rows colors chars-per-pixel */
"64 53 220 2 ",
"   c #000000",
".  c #04030D",
"X  c #16060A",
"o  c #080A13",
"O  c #19171A",
"+  c #281716",
"@  c #3D1F19",
"#  c #232324",
"$  c #513328",
"%  c #3F3F40",
"&  c #565656",
"*  c #595959",
"=  c gray31",
"-  c DimGray",
";  c #717172",
":  c #706F6A",
">  c #874D38",
",  c #B47153",
"<  c #BA7F6B",
"1  c #CC7A57",
"2  c #C7757B",
"3  c #F68C00",
"4  c #F1882A",
"5  c #ED8A4B",
"6  c #EA8347",
"7  c #F4964A",
"8  c #EB8B53",
"9  c #E1825E",
"0  c #EA8C5C",
"q  c #E88759",
"w  c #F4965C",
"e  c #F29454",
"r  c #F08E56",
"t  c #D88967",
"y  c #DD8777",
"u  c #CF8C72",
"i  c #E38662",
"p  c #E68A64",
"a  c #E98E65",
"s  c #E68E6C",
"d  c #EB9166",
"f  c #EC946A",
"g  c #EF986C",
"h  c #F49B65",
"j  c #F3946A",
"k  c #F29B6D",
"l  c #F59866",
"z  c #EF9A72",
"x  c #EB9773",
"c  c #F29E71",
"v  c #FA9E77",
"b  c #F7A069",
"n  c #F5A272",
"m  c #FDA473",
"M  c #F9A877",
"N  c #08139D",
"B  c #081D9E",
"V  c #07039B",
"C  c #07229F",
"Z  c #0013AB",
"A  c #041AA8",
"S  c #0004B7",
"D  c #000BAF",
"F  c #0625A3",
"G  c #0821A2",
"H  c #052AA6",
"J  c #0824AA",
"K  c #042DA9",
"L  c #0829AE",
"P  c #1629AD",
"I  c #0233AC",
"U  c #0039AF",
"Y  c #1437AC",
"T  c #052CB3",
"R  c #062CB9",
"E  c #132FB0",
"W  c #0335B4",
"Q  c #023AB4",
"!  c #0434B9",
"~  c #033CBD",
"^  c #0939B3",
"/  c #1838B5",
"(  c #2529AB",
")  c #252BB1",
"_  c #523CAC",
"`  c #4936B3",
"'  c #0741BD",
"]  c #254AAA",
"[  c #674DBC",
"{  c #7157B6",
"}  c #7079A4",
"|  c #0002DC",
" . c #023CC2",
".. c #013ACD",
"X. c #0138D5",
"o. c #0026D1",
"O. c #0018E2",
"+. c #003AE8",
"@. c #0241C6",
"#. c #0D43C1",
"$. c #0044CB",
"%. c #0448CE",
"&. c #0A4CCD",
"*. c #0748C7",
"=. c #1647CB",
"-. c #0045D3",
";. c #054BD2",
":. c #094ED4",
">. c #0046DA",
",. c #014ADC",
"<. c #0A51D6",
"1. c #0D55DA",
"2. c #0F58DD",
"3. c #0451DC",
"4. c #105ADE",
"5. c #1856D9",
"6. c #1550D1",
"7. c #2549CD",
"8. c #224ED1",
"9. c #245ADC",
"0. c #3555D3",
"q. c #014CE2",
"w. c #0043E3",
"e. c #0052E4",
"r. c #0054E9",
"t. c #005EED",
"y. c #045BE4",
"u. c #135DE2",
"i. c #195EE4",
"p. c #005AF6",
"a. c #0048F3",
"s. c #205FE0",
"d. c #0164EC",
"f. c #1661E6",
"g. c #1C62E5",
"h. c #1664E9",
"j. c #1965EA",
"k. c #1C6AED",
"l. c #1169EE",
"z. c #006CF4",
"x. c #006CF9",
"c. c #0368F4",
"v. c #1D6DF1",
"b. c #1A6DFD",
"n. c #156AF4",
"m. c #0072F9",
"M. c #1D72F5",
"N. c #1775FA",
"B. c #1971EB",
"V. c #2362E4",
"C. c #246BEC",
"Z. c #2C69EA",
"A. c #2765E6",
"S. c #336AE7",
"D. c #216FF2",
"F. c #2A6FF0",
"G. c #2272F5",
"H. c #2B74F5",
"J. c #2476F9",
"K. c #2779FB",
"L. c #2A7AFC",
"P. c #387BF9",
"I. c #3B70EC",
"U. c #6860CD",
"Y. c #535FE2",
"T. c #4970E2",
"R. c #6472E2",
"E. c #965B9B",
"W. c #99609C",
"Q. c #BB7696",
"!. c #8A5CAF",
"~. c #A76EA7",
"^. c #A972AC",
"/. c #AF77B2",
"(. c #C67A8B",
"). c #C27B94",
"_. c #885EC1",
"`. c #8071D1",
"'. c #3784FC",
"]. c #548EFA",
"[. c #6687ED",
"{. c #738CE8",
"}. c #6394FA",
"|. c #989898",
" X c #A2A094",
".X c #B481AF",
"XX c #ACACAC",
"oX c #A3A3A3",
"OX c #8B91B8",
"+X c #CD828B",
"@X c #ED9580",
"#X c #F0AD91",
"$X c #C285A8",
"%X c #EDBAA4",
"&X c #F4CCBD",
"*X c #8D9FED",
"=X c #9FACEC",
"-X c #91ADF7",
";X c #AAB6EF",
":X c #B7C3FA",
">X c #AACAFE",
",X c #DCDBDB",
"<X c #D1D1D2",
"1X c #CCCDCD",
"2X c #F4CDC0",
"3X c #C3CBF5",
"4X c #C8D6F7",
"5X c #D9DEF7",
"6X c #DADFF9",
"7X c #E7E7E7",
"8X c #F9EBE6",
"9X c #E6E9F7",
"0X c #E8EAF7",
"qX c #F6F6F6",
"wX c #F6F6F9",
"eX c #F7F8F9",
"rX c #FBFBFB",
"tX c #F9F6F4",
"yX c #F9F1EF",
"uX c None",
/* pixels */
"uXuXuXuXuXuXuXuXuXuXuXuXuXuXuXuXuXuXuXuXuXuXuXuXuXuXu.n.u.4.4.4.4.1.1.1.1.<.<.:.;.;.;.uXuXuXuXuXuXuXuXuXuXuXuXuXuXuXuXuXuXuXuXuX",
"uXuXuXuXuXuXuXuXuXuXuXuXuXuXuXuXuXuXuXuXuXuXh.u.b.n.i.u.u.4.u.4.4.4.2.1.1.1.<.<.<.:.;.e.q.3.q.$.$.$.uXuXuXuXuXuXuXuXuXuXuXuXuXuX",
"uXuXuXuXuXuXuXuXuXuXuXuXuXuXuXuXuXuXuXuXf.h.b.k.h.i.u.u.u.f.u.u.4.4.2.1.1.1.<.<.<.<.;.&.:.%.%.>.,.,.;.$.$.$.uXuXuXuXuXuXuXuXuXuX",
"uXuXuXuXuXuXuXuXuXuXuXuXuXuXuXuXuXj.j.b.k.h.h.h.h.h.h.h.f.f.u.4.u.4.u.4.2.1.1.1.<.<.;.:.&.%.%.$.$.@.$.-.$.-.>.-.,.$.-.uXuXuXuXuX",
"uXuXuXuXuXuXuXuXuXuXuXuXuXuXuXh.h.b.j.j.j.j.j.h.h.h.j.h.f.f.f.g.V.V.5.<.2.2.1.1.1.<.:.;.;.%.%.%.$.$.@.@. .K K K K L R uXuXuXuXuX",
"uXuXuXuXuXuXuXuXuXuXuXuXuXuXn.v.v.j.k.j.k.k.j.k.j.j.j.j.h.Z.g.,.>.-.T A <.4.1.1.<.<.<.:.;.;.%.%. . .I H H F F G G A uXuXuXuXuXuX",
"uXuXuXuXuXuXuXuXuXuXuXuXj.j.k.j.k.k.k.k.k.k.k.k.v.j.k.h.Z.w.o.` 2 2 ` A 5.4.2.1.1.1.<.:.<.&.Q Q K H H H H F F J G uXuXuXuXuXuXuX",
"uXuXuX~ uXuXuXuXuXuXuXh.b.j.j.v.k.k.k.v.k.k.C.k.k.k.j.Z.>.[ Q.l a r _ Z 5.4.4.1.1.<.<.<.%.Q I I I I H H H F F F uXuXuXuXuXuXuXuX",
"uXuXI Q I uXuXuXuXuXh.n.k.k.k.k.k.C.M.k.G.k.k.k.v.D.I.a.!.h h g f a _ Z 5.u.4.2.1.<.<.:.I I I I I K K H H F F uXuXuXuXuXuXuXuXuX",
"uXuXQ I K K uXuXh.j.v.j.k.k.k.k.M.k.k.G.M.G.G.D.D.n.+.!.b k c k j d _ Z E u.4.4.2.1.1.~ U U I I K K K H H R uXuXuXuXuXuXuXuXuXuX",
"uXuXI W I R uXh.b.j.j.k.k.k.D.D.k.G.M.G.G.G.C.G.z.Y./.k n n n n k d _ Z E u.4.2.1.1.&.U U I I I K I I H T F uXuXuXuXuXuXuXuXuXuX",
"uXQ ~ I K K 4.v.h.j.j.k.k.k.v.D.G.G.G.G.G.H.G.M.D.y 7 z n n n c g l _ Z E u.u.4.1.2.*.U Q I I I I K H T H uXuXuXuXuXuXuXuXuXuXuX",
"uXQ ~ I C #.n.f.j.j.k.k.D.D.D.D.G.G.J.G.N.m.J.G.m.$Xe g k k n c l +X) A E f.u.2.4.1.1.' U U U I K H W H uXuXuXuXuXuXuXuXuXuXuXuX",
"uXU ~ K ^ u.f.h.j.j.k.k.k.D.D.D.G.G.K.J.}.}.L.G.J.x.$X7 x g g f w E.S ( K u.u.4.4.1.<.' I I I I I ^ H uXuXuXuXuXuXuXuXuXuXuXuXuX",
"uXQ ~ Q u.f.f.h.j.k.k.v.v.D.G.G.G.K.N.'.>X4X].N.H.J.x.$X7 f f f e W.S ( A #.i.4.4.4.1.<.U U I I W K uXuXuXuXuXuXuXuXuXuXuXuXuXuX",
"uXQ W &.f.i.f.h.j.k.k.v.v.v.G.G.K.K.K.'.-X>X'.N.H.H.G.x.$X0 8 s p E.S ( N ~ i.u.4.1.1.1.<.U I I I uXuXuXuXuXuXuXuXuXuXuXuXuXuXuX",
"uXU ;.u.u.f.h.h.j.k.k.M.C.M.G.G.G.K.K.K.N.N.K.K.J.J.H.v.x.R.).i 3 E.S ( N #.f.4.u.2.2.1.<.' I ~ I uXuXuXuXuXuXuXuXuXuXuXuXuXuXuX",
"uXuXu.u.u.h.f.j.j.j.k.k.v.G.G.G.G.K.K.L.'.K.K.K.J.J.D.G.G.z.x.`./.[ D P V #.f.2.2.2.<.<.<.:.@.K uXuXuXuXuXuXuXuXuXuXuXuXuXuXuXuX",
"uXuXh.u.u.f.f.j.j.k.k.v.M.k.G.G.J.J.K.L.L.L.'.N.J.G.G.D.D.G.S.c.x.d.f.&.J =.u.u.2.2.1.1.<.<.:.;.;.uXuXuXuXuXuXuXuXuXuXuXuXuXuXuX",
"uX4.n.u.u.f.f.j.j.k.k.C.k.G.G.G.G.K.L.P.P.m.m.N.P.J.G.G.v.k.k.C.Z.V.h.h.f.u.u.2.2.2.2.<.<.<.:.<.,.;.%.uXuXuXuXuXuXuXuXuXuXuXuXuX",
"uXV.V.u.f.f.f.h.j.j.k.k.k.D.M.G.G.H.J.x.x.].}.T.p.P.D.D.D.D.C.k.j.j.h.i.u.u.u.u.2.2.1.1.<.<.;.;.;.%.q.$.$.uXuXuXuXuXuXuXuXuXuXuX",
"uXa.X.5.u.f.f.f.j.j.k.k.v.v.D.v.H.x.P.;X:XeXrX9X-Xz.D.D.k.k.k.j.j.j.h.f.i.u.u.4.2.1.1.:.<.:.;.;.&.%.%.$.-.-.$.uXuXuXuXuXuXuXuXuX",
"uX:X4X3.V.u.f.f.h.j.j.k.k.k.v.H.n.c.6XrXrXrXeXrXrX3Xt.k.D.k.j.j.j.h.f.f.u.u.u.4.4.1.1.1.<.<.:.;.-.$.%.$.$.$.,.$.$.uXuXuXuXuXuXuX",
"uXrXrX;XO.S.f.f.j.j.j.k.k.v.F.n.c.5XrXwXeXeXrXrXrXrX3Xz.C.k.j.k.h.h.f.u.u.u.4.4.2.:.F *.&.$.*.%.;.;.$.$.$.$.$.$.q.$.uXuXuXuXuXuX",
"uXrXrX0XT.e.g.f.f.h.h.j.j.F.l.t.5XrXrXrXrXrXrXrXrXeXrX[.t.C.j.h.h.f.f.4.i.u.4.4.2.&.F H F F C W ~ Q ~ %.$.$.$.$.$.-.$.uXuXuXuXuX",
"uXrXrXrX{.,.V.f.f.g.j.j.C.d.t.5XrXwX7X7X7XrXrXrXeXeXrX*Xt.C.j.h.h.f.f.u.4.4.4.4.2.:.K K K K H F C C C H K  .$.$.$.$.>.$.uXuXuXuX",
"uXrXrXrX{.,.V.u.f.f.h.j.C.d.5XrXrXrX%     ,XrXeXrXrXrX0Xr.C.h.f.f.f.f.f.4.4.4.1.1.1.' C K H H H H H K G F A W ~ $.$.$.$.uXuXuXuX",
"rXrXrXrX} q.V.f.u.f.f.Z.q.{.rXeXrXrX* O   oXrXrXrXrXrX0Xy.A.f.f.f.4.4.u.4.4.4.1.1.2.' H H H H H H F F F C F C G L  .$.;.$.uXuXuX",
"rXrXrXrX; ..V.4.u.f.V.y.[.wXrXeXrXrX&     XXrXrXrXeXrX0Xr.A.f.f.u.u.u.4.4.4.1.1.1.1.~ H K H H H F F F H F F G G C B T ~ -.$.uXuX",
"rXrXrXrX:   5.V.s.4.I.O.3XrXqXrXrXrX&     XXrXeXeXrXrX9Xr.V.f.f.u.u.u.4.4.1.1.1.:.1.~ F H K H H H F F F F F G F G G B B K -.;.uX",
"rXrXrXrX;   ] r.3.A.X.=XrXqXrXrXeXrX&     XXrXrXrXeXrX9Xe.V.f.f.u.4.4.4.2.1.1.1.<.1.~ F H H H F H F F F F G G G G C G G N J .. .",
"rXrXrXrX;     OX*X| =XrXrXrXrXeXrXrX&     XXrXrXrXeXrX9Xq.V.4.4.u.4.4.2.1.1.1.<.:.1.~ H K H K F K H F F G F F J J J G B T W uXuX",
"rXrXrXrX;      XrX0XrXrXeXrXrXrXrXrX&     XXrXeXrXrXrXwX,.V.4.u.4.4.2.<.2.1.<.<.<.<.~ H H H H H H F F H L R J G G G uXuXuXuXuXuX",
"uXrXrXrX;     |.rXtXrXeXrXrXeXeXrXrX&     XXrXrXrXrXrX;X,.V.4.4.4.2.2.2.<.<.<.:.;.:.~ H H H H F F L J T F uXuXuXuXuXuXuXuXuXuXuX",
"uXrXrXrX;     |.rXrXeXrXrXtXrXrXrXrX&     XXrXrXeXqXrXB.q.0.4.4.2.2.2.<.:.1.:.:.;.%.K H H H H K H H F uXuXuXuXuXuXuXuXuXuXuXuXuX",
"uXrXrXrX*     |.rXeXrXrXrXeXrXeXeXrX&     oXrXrXrXrX8X.XU.r.3.5.1.<.<.<.<.:.:.:.;.*.H I H H K H uXuXuXuXuXuXuXuXuXuXuXuXuXuXuXuX",
"uXrXrXrX,X# & 7XrXrXrXrXrXeXrXrXrXrX: # - 7XrXrX2X#Xx 4 y +X^.q.9.1.<.<.:.:.:.;.;.Q H K H H H ! uXuXuXuXuXuXuXuXuXuXuXuXuXuXuXuX",
"uXrX,X  <XrXrXrXrXrXqXrXeXrXeXeXrXqXrXeXrXrXrX2X6 8 s s a 8 5 ~.>.5.:.<.:.:.;.;.@.K H H H H ~ -.$.uXuXuXuXuXuXuXuXuXuXuXuXuXuXuX",
"uX|.o     1XrXrXrXrXrXrXrXrXeXrXeXrXrXrXrXrX2X6 x f f p p p i 5 ~.>.8.;.:.;.%.;.Q H K K H K $.$.-.$.uXuXuXuXuXuXuXuXuXuXuXuXuXuX",
"uX  . O     < u u ,X,XrXrXeXrXrXeXrXeXrXyX2X8 g f f d f p p i q (.>.8.:.%.%.;. .K K K K H K $.$.$.,.$.uXuXuXuXuXuXuXuXuXuXuXuXuX",
"uX# o X O .           %X8XrXeXrXrXrXrX8Xh w c k f f f a p a i 8 ).>.8.-.%.;. .H I K H K H K $.$.$.$.$.uXuXuXuXuXuXuXuXuXuXuXuXuX",
"uXuXX     + + .   $ , e z #X&XtXyXyX%Xn h n k k k f d i 9 p i 8 (.-.7.%.%.%.I K K K K H H K $.$.$.$.,.$.uXuXuXuXuXuXuXuXuXuXuXuX",
"uXuXuX> @     $ , a k z j h l h h b b n M k c k k f i 9 a a p 8 (.X.7.%.%.Q H I I K K H K F W $.$.$.$.-.uXuXuXuXuXuXuXuXuXuXuXuX",
"uXuXuXj p 1 1 i k f f g k c n n m M M n n n c k g q 9 i d p p 8 Q.-.=.%.Q H I H H H I K H H K @.$.$.$.-.$.uXuXuXuXuXuXuXuXuXuXuX",
"uXuXuXuXj a d d a f f g g c k n n M M n n f f d 9 p a f a a 0 0 0.$.$.Q K I I I I H K H H K H Q $.@.$.;.$.uXuXuXuXuXuXuXuXuXuXuX",
"uXuXuXuXuXj a a d f g g k k n n M M n n k 9 9 p f f f d a a 0 ~...=.Q K I K H I K K K H H H H G ..$.$.$.$.uXuXuXuXuXuXuXuXuXuXuX",
"uXuXuXuXuXp v a f d f g g k c n n n n b c k k g g f f d s r (.X.=.^ I I I I I K K K H K H H K H K $.$.@.,.$.uXuXuXuXuXuXuXuXuXuX",
"uXuXuXuXuXuXuXa j d f g g k k c n b n n c k k k f f f f r p { ../ I I I I K H I I H I H K K H H G ~ $.$.,.$.uXuXuXuXuXuXuXuXuXuX",
"uXuXuXuXuXuXuXuXa j f f j k k k k k k n k k g g g f d e ~.7. ./ I W I I I ! ! ! ! T K K K K H F H H  .$.>.$.uXuXuXuXuXuXuXuXuXuX",
"uXuXuXuXuXuXuXuXuXf m j k f g k k k k k g g g j l f w ^...~ / W Q Q W ! I uXK K uXW  .K T T K K H F K  .,.$.uXuXuXuXuXuXuXuXuXuX",
"uXuXuXuXuXuXuXuXuXuXuXf f k m m j k g k g m m v x +X{ W ^ Y uXuXuXuXuXuXuXuXuXuXuXuXuXuXuXuXuXH F R L F -.$.uXuXuXuXuXuXuXuXuXuX",
"uXuXuXuXuXuXuXuXuXuXuXuXuXuXf j v m m m k f w ).o.uXuXuXuXuXuXuXuXuXuXuXuXuXuXuXuXuXuXuXuXuXuXuXuXF F R  .,.uXuXuXuXuXuXuXuXuXuX",
"uXuXuXuXuXuXuXuXuXuXuXuXuXuXuXuXuXuXuXuXuXuXuXuXuXuXuXuXuXuXuXuXuXuXuXuXuXuXuXuXuXuXuXuXuXuXuXuXuXuXuXuXuX..uXuXuXuXuXuXuXuXuXuX"
};
