/* XPM */
static char *result[] = {
/* columns rows colors chars-per-pixel */
"64 64 55 1 ",
"  c #853700",
". c #863B00",
"X c #873B00",
"o c #883B00",
"O c #883C00",
"+ c #883D00",
"@ c #893D00",
"# c #893E00",
"$ c #8A3F00",
"% c #8B4000",
"& c #8B4200",
"* c #8C4100",
"= c #8D4100",
"- c #8C4200",
"; c #8D4200",
": c #8E4300",
"> c #8F4300",
", c #8E4400",
"< c #944200",
"1 c #904500",
"2 c #914500",
"3 c #974600",
"4 c #984600",
"5 c #984700",
"6 c #984E00",
"7 c #9C5100",
"8 c #9C5200",
"9 c #9D5200",
"0 c #9D5300",
"q c #9E5300",
"w c #AA5900",
"e c #AC6200",
"r c #AC6300",
"t c #AD6300",
"y c #CB7F00",
"u c #CB8000",
"i c #CC8000",
"p c #CC8100",
"a c #D48800",
"s c #D58900",
"d c #D78900",
"f c #D58A00",
"g c #D68A00",
"h c #D68B00",
"j c #D78B00",
"k c #D88B00",
"l c #D88C00",
"z c #D98C00",
"x c #D98D00",
"c c #DA8D00",
"v c #DA8E00",
"b c #E79400",
"n c #E79500",
"m c #E89500",
"M c #E89600",
/* pixels */
"ggggggggggggggggggggggggggggggs7@;******************************",
"ggggggggggggggggggggggggggggggs7@;******************************",
"ggggggggggggggggggggggggggggggs7@;******************************",
"ggggggggggggggggggggggggggggggs7@;******************************",
"ggggggggggggggggggggggggggggggs7@;******************************",
"ggggggggggggggggggggggggggggggs7@;******************************",
"ggggggggggggggggggggggggggggggs7@;******************************",
"ggggggggggggggggggggggggggggggs7@;******************************",
"ggggggggggggggggggggggggggggggs7@;******************************",
"ggggggggggggggggggggggggggggggs7@;******************************",
"ggggggggggggggggggggggggggggggs7@;******************************",
"ggggggggggggggggggggggggggggggs7@;******************************",
"ggggggggggggggggggggggggggggggs7@;******************************",
"ggggggggggggggggggggggggggggggs7@;******************************",
"ggggggggggggggggggggggggggggggs7@;******************************",
"ggggggggggggggggggggggggggggggs7@;******************************",
"ggggggggggggggggggggggggggggggs7@;******************************",
"ggggggggggggggggggggggggggggggs7@;******************************",
"ggggggggggggggggggggggggggggggs7@;******************************",
"ggggggggggggggggggggggggggggggs7@;******************************",
"ggggggggggggggggggggggggggggggs7@;******************************",
"ggggggggggggggggggggggggggggggs7@;******************************",
"ggggggggggggggggggggggggggggggs7@;******************************",
"ggggggggggggggggggggggggggggggs7@;******************************",
"ggggggggggggggggggggggggggggggs7@;******************************",
"ggggggggggggggggggggggggggggggs7@;******************************",
"ggggggggggggggggggggggggggggggs7@;******************************",
"ggggggggggggggggggggggggggggggs7@;******************************",
"gggggggggggggggggggggggggggggga7@-******************************",
"sssssssssssssssssssssssssssssfa7$,::::::::::::::::::::::::::::::",
"cccccccccccccccccccccccccccccvl8.%$$$$$$$$$$$$$$$$$$$$$$$$$$$$$$",
"ttttttttttttttttttttttttttttrte1>2222222222222222222222222222222",
"XooooXooooooooooooXooooooooooO 6ypuiiuiiiiiiiiiiiiuiiiiiiiiiiiii",
"%%%%%%%%%%%%%%%%%%%%%%%%%%%%%*Oqkxzzzzzzzzzzzzzzzzzzzzzzzzzzzzzz",
";;-;;-;-;--;;-;-;;-;;-;;-;;;;;#9sgsggggggggggggggggggggggggggggg",
"*****************************;+9sggggggggggggggggggggggggggggggg",
"*****************************;@9sggggggggggggggggggggggggggggggg",
"*****************************;@9sggggggggggggggggggggggggggggggg",
"*****************************;@9sggggggggggggggggggggggggggggggg",
"*****************************;@9sggggggggggggggggggggggggggggggg",
"*****************************;@9sggggggggggggggggggggggggggggggg",
"*****************************;@9sggggggggggggggggggggggggggggggg",
"*****************************;@9sggggggggggggggggggggggggggggggg",
"*****************************;@9sggggggggggggggggggggggggggggggg",
"*****************************;@9sggggggggggggggggggggggggggggggg",
"*****************************;@9sggggggggggggggggggggggggggggggg",
"*****************************;@9sggggggggggggggggggggggggggggggg",
"*****************************;@9sggggggggggggggggggggggggggggggg",
"*****************************;@9sggggggggggggggggggggggggggggggg",
"*****************************;@9sggggggggggggggggggggggggggggggg",
"*****************************;@9sggggggggggggggggggggggggggggggg",
"*****************************;@9sggggggggggggggggggggggggggggggg",
"*****************************;@9sggggggggggggggggggggggggggggggg",
"*****************************;@9sggggggggggggggggggggggggggggggg",
"*****************************;@9sggggggggggggggggggggggggggggggg",
"*****************************;@9sggggggggggggggggggggggggggggggg",
"*****************************;@9sggggggggggggggggggggggggggggggg",
"*****************************;@9sggggggggggggggggggggggggggggggg",
"*****************************;@9sggggggggggggggggggggggggggggggg",
"*****************************;@9sggggggggggggggggggggggggggggggg",
"*****************************;@9sggggggggggggggggggggggggggggggg",
"*****************************=@0shgggggggggggggggggggggggggggggg",
"344443444434443344344344434335<wbMnmmmmmmmmmmmmmmmmmmmmmmmmmmmmm",
"&&&&&&&&&&&&&&&&&&&&&&&&&&&&&;#9sjdddddddddddddddddddddddddddddd"
};
