/* XPM */
static char *_b550913cc5748e3dfe6e9d9328e2b3eCkVN4CeoeSVWmMGO[] = {
/* columns rows colors chars-per-pixel */
"50 53 232 2 ",
"   c None",
".  c #8C4E00",
"X  c #844500",
"o  c #935500",
"O  c #8A5800",
"+  c #A45600",
"@  c #986100",
"#  c #A46B00",
"$  c #AA6700",
"%  c #B56600",
"&  c #BC7508",
"*  c #B87618",
"=  c #AC7415",
"-  c #A57832",
";  c #C37900",
":  c #CA7D00",
">  c #C47409",
",  c #AD8A00",
"<  c #B7831C",
"1  c #B58437",
"2  c #BF9328",
"3  c #CC8301",
"4  c #CE8B01",
"5  c #C58504",
"6  c #D38500",
"7  c #D28A00",
"8  c #DB8F00",
"9  c #D78B0D",
"0  c #CD9E01",
"q  c #CB9401",
"w  c #D49302",
"e  c #DB9302",
"r  c #D49A01",
"t  c #DE9B00",
"y  c #DC9B0B",
"u  c #D8930A",
"i  c #C88816",
"p  c #D4881A",
"a  c #CC921A",
"s  c #DD9C13",
"d  c #D19718",
"f  c #E49905",
"g  c #E59D16",
"h  c #C9A805",
"j  c #D4A100",
"k  c #D6AE03",
"l  c #DDAD00",
"z  c #D6A308",
"x  c #DDB400",
"c  c #DEB800",
"v  c #DBA115",
"b  c #D5B617",
"n  c #CAB305",
"m  c #E1AB00",
"M  c #E4A406",
"N  c #F1A900",
"B  c #E4B400",
"V  c #EBB400",
"C  c #E3BD00",
"Z  c #EABD0B",
"A  c #E8B906",
"S  c #F3B400",
"D  c #FCBF00",
"F  c #E2A314",
"G  c #E7A919",
"H  c #EBB41D",
"J  c #EDBA1B",
"K  c #E2B619",
"L  c #F8BD19",
"P  c #C98626",
"I  c #D19A37",
"U  c #DAA826",
"Y  c #DABA29",
"T  c #D4A736",
"R  c #D0B02F",
"E  c #ECAD26",
"W  c #EABC24",
"Q  c #F0BE22",
"!  c #ECB937",
"~  c #F2BD3D",
"^  c #DDC100",
"/  c #ECC300",
"(  c #EFC508",
")  c #E6C602",
"_  c #F4C301",
"`  c #FDC300",
"'  c #FCCC00",
"]  c #F3CC0C",
"[  c #F8C80A",
"{  c #EFD00F",
"}  c #FDD302",
"|  c #FFDD01",
" . c #FED50C",
".. c #FFD90D",
"X. c #E8C81B",
"o. c #F2C414",
"O. c #FECC13",
"+. c #F6CD1F",
"@. c #F8C619",
"#. c #FCD314",
"$. c #FFDA15",
"%. c #FED51B",
"&. c #FFDC1C",
"*. c #F7D517",
"=. c #E7D11E",
"-. c #FEE21F",
";. c #DEC536",
":. c #EEC323",
">. c #E8C727",
",. c #F3C424",
"<. c #F5CA23",
"1. c #F6CB2C",
"2. c #FFCB26",
"3. c #EFD621",
"4. c #FAD323",
"5. c #FEDB22",
"6. c #F6D42B",
"7. c #FDD42C",
"8. c #FFDD2C",
"9. c #F4D923",
"0. c #E9C938",
"q. c #F8C839",
"w. c #EAD53A",
"e. c #FCD430",
"r. c #FCDB34",
"t. c #FDDF3D",
"y. c #F9D537",
"u. c #FFE22C",
"i. c #FFEB2D",
"p. c #FEE43B",
"a. c #FFE738",
"s. c #FFF33B",
"d. c #AA8D53",
"f. c #B48A4A",
"g. c #B89C62",
"h. c #D49A4D",
"j. c #D7AB59",
"k. c #DFBE53",
"l. c #C8A754",
"z. c #E9B648",
"x. c #EDB45A",
"c. c #DBBA6B",
"v. c #CEAE71",
"b. c #E0AE6F",
"n. c #E0BF66",
"m. c #F4BB67",
"M. c #F7CD47",
"N. c #EDDA42",
"B. c #E7D345",
"V. c #FCD243",
"C. c #F2DA44",
"Z. c #FDDB43",
"A. c #FDDB4D",
"S. c #F4D349",
"D. c #EED458",
"F. c #FFDE5A",
"G. c #FADA56",
"H. c #EFC450",
"J. c #FDE244",
"K. c #FFE44C",
"L. c #F9E746",
"P. c #FFF243",
"I. c #FFF148",
"U. c #FEE454",
"Y. c #FFE953",
"T. c #FFE45C",
"R. c #FEEB5D",
"E. c #FFF05C",
"W. c #FFF353",
"Q. c #DFCB7E",
"!. c #DECC6B",
"~. c #ECCA68",
"^. c #F8CC65",
"/. c #EBD169",
"(. c #F7D668",
"). c #EACF70",
"_. c #EBD77B",
"`. c #F8DD74",
"'. c #FDE464",
"]. c #FFEB63",
"[. c #FCE36C",
"{. c #FEE96C",
"}. c #F6E567",
"|. c #FFF26F",
" X c #FDE376",
".X c #FEEB74",
"XX c #FDEA7B",
"oX c #F6E478",
"OX c #FDF375",
"+X c #FCF17C",
"@X c #DBC383",
"#X c #EBD08D",
"$X c #CEFD8B",
"%X c #DEF78C",
"&X c #D4FC8C",
"*X c #DBFA8C",
"=X c #DDFA90",
"-X c #FDEC84",
";X c #FCED8B",
":X c #F7E686",
">X c #ECF585",
",X c #ECF986",
"<X c #E5F68B",
"1X c #ECF58B",
"2X c #E4F98B",
"3X c #EBF98C",
"4X c #F5F484",
"5X c #FBF383",
"6X c #F4F38B",
"7X c #FBF48B",
"8X c #F2F988",
"9X c #FBE491",
"0X c #FDEC94",
"qX c #FEEE9C",
"wX c #F5E394",
"eX c #EDF894",
"rX c #FDF294",
"tX c #FEF39B",
"yX c #FBF897",
"uX c #FFEFAB",
"iX c #FFF3A4",
"pX c #FEF2AC",
"aX c #FFFEA5",
"sX c #FCEEB7",
"dX c #FFF4B4",
"fX c #FFFFB6",
"gX c #FDF7BC",
"hX c #FFF8C6",
"jX c #FEFAC8",
"kX c #FFFDD8",
"lX c #FEFDEB",
"zX c #FFFFFB",
/* pixels */
"                                                                                                    ",
"                                                                                                    ",
"                                                                                                    ",
"                                                                                                    ",
"                                                                                                    ",
"                                                                                                    ",
"                                                                                                    ",
"                                                                                                    ",
"                                        T.K.;XlXkXp.8.r.7.y.G.F.                                    ",
"                                  Y.XX|.I.Y.p.T.Y.| u.&.$...} #.7.V.G.                              ",
"                              Y.0XfXtXY.| uX`.A A J :.,.<.&.5.$. .' O.V.'.                          ",
"                            XXfXiXT.} C v h.P P b.P : 3 4 d G @.5.&.} ` @.q.                        ",
"                          +XaX'.' l i > 3 3 4 a c.0 Q.#XT 5 5 4 y J 5.$.' ` !                       ",
"                        W.]...B P & 6 w q j x C C / sXlX/.C k h q 4 v <.&.} ` 2.                    ",
"                      P.u.} v * 3 u z l / 6.Z.U.'..XqXpXXXK.e.] c h 0 w Q 5. ._ %.                  ",
"                    J.u.5.U & 6 y x / y.T..X5X5X4X6X6X6X7X-X X'.Z.( k z r J &. .` 4.                ",
"                  Y.i.8.b 5 3 y C *.F..X5X3X3X2X*X*X*X2X2X2XeX7XXXF.1.c b e Q 5.} ' 9.              ",
"                R.s.5.W i 3 u / 6.{.5X8X2X&X&X$X        $X&X*X2X1X-X XM.Z K y ,.&.' ..a.            ",
"                Y.u.1.U a : V 6.[.5X<X*X&X                    &X&X1X5X XM.A K F 7.$._ {             ",
"              ].P.4.Y U & f 4.(.4X2X&X                          $X&X2X6X XM.V y ,.8.] } u.          ",
"              T.u.0.k.< & V G.4X2X&X                                &X<X-X`.! e F 7.4._ 3.          ",
"              W.&.H.j.$ 4 ! oX1X*X                                    *X1X:XG.M 8 1.8.] *.          ",
"            {.P.4.).1 $ 4 /.4X%X$X                                    $X2X6X X~ 6 Q t.+.{ p.        ",
"            '.r.S.@X# # I `.<X&X                                        &X1X:X(.8 f Z.7.) L.        ",
"            R.#./.v.. # j.6X%X$X                                        &X2X;X XE 8 Z.C.) N.        ",
"            R...:Xg.. @ ~.>X*X                                            *X;X:XH.f Z.U.X.N.        ",
"          5XR.4.1Xd.X = ).<X&X                                            &X6X;X(.N V.{.X.B.OX      ",
"          -XE.7.wXd.O 2 `.<X&X                                            &X1X0X-X@.A.oX>.N.|.      ",
"          -XE.} 6Xl., k.oX<X&X                                            &X1XqX0XZ.A.;X;.w.R.      ",
"          ;XyXsXpX!.n B.XX1X&X                                            &X1XqXqXZ.F.0X;.;.D.      ",
"            pXlXdX_.b w..X>X&X                                            *X6XqXrXr.[.0Xh R         ",
"            ^.(.}._.;.=.'.4X*X$X                                        $X%X6XtX-X5.XX#X@ <         ",
"            #XN [ [.;.^ L.+X%X$X                                        &X<X0XiX{.&.0Xv.X *         ",
"            x.x.9X'.0.^ 3.{.>X&X                                        *X1XqXrXJ.Z.9X- o <         ",
"            z.m.#XA.S.>.^ S.5X2X&X                                    &X2X7XiX.X| {.@XX * v         ",
"              F e ,.;X(.c W }.>X%X$X                                &X%X6X0X7Xp.5.9Xf.. d           ",
"              z.f M S.y./ c 0.+X,X*X$X                            $X=XeXrXrXY.| {.#Xo & J           ",
"                E t J 8.#.( / S.XX,X*X&X                        &X=XeXiXtXR.&.p.oX1 + F             ",
"                z.S F 1.5.' o./ S.OX,X2X*X&X                &X&X2XeXgXkXtXu.8.{.l.+ 9 0.            ",
"                  0.B F 6.&.' [ V q.{.5X3X2X*X&X&X&X&X&X&X*X2XeXyXtXjXzXiX| K.T % ; W               ",
"                    @.m F <.&.} [ S L F..X5X4X8X3X2X3X3X3X6X7XrXdXhXjXsXJ.7.U % : L                 ",
"                    ~.+.m v @.5. .O.D D e.F..X5X5X7X7X7X7X5XOXiXlXzXdX| _ p > 6 O.p.                ",
"                      )._ l s E 7.&.#.#.` ' 2.y.K.U.T.T.U.J.5XhXdXqX%.^.b.> t  .p.                  ",
"                        _.:.l z F J 4.&.5.5.%.%.#.%.%.%.&.8.K.p.} V : h.j.m pXyX                    ",
"                          _.B.m t y s G ,.<.5.5.5.8.8.8.8.7.J M p p 9 7 B .XlX                      ",
"                              /.0.l w w 8 s g G G H G G g 9 9 6 7 w m y.R.                          ",
"                                  D.0.B j w 4 7 6 7 6 6 6 4 w j C 6.A.                              ",
"                                      oXD.0.>.Z x l x B ( >.6.C.T.                                  ",
"                                            5X.XoX'.'.{.].+X                                        ",
"                                                                                                    ",
"                                                                                                    ",
"                                                                                                    ",
"                                                                                                    "
};
