/* XPM */
static char *_e0f4138933c4c539cd558935a75fa95S39OE2EGcpoEkhkD[] = {
/* columns rows colors chars-per-pixel */
"50 39 221 2 ",
"   c None",
".  c #570F0F",
"X  c #680303",
"o  c #7B0101",
"O  c #730000",
"+  c #701717",
"@  c #005101",
"#  c #035E05",
"$  c #0F5F05",
"%  c #005517",
"&  c #1C551D",
"*  c #205705",
"=  c #305F00",
"-  c #0B6708",
";  c #096F0A",
":  c #076305",
">  c #09770B",
",  c #097F0D",
"<  c #097D00",
"1  c #167500",
"2  c #0B7114",
"3  c #236B00",
"4  c #297C00",
"5  c #026B27",
"6  c #047A27",
"7  c #00773A",
"8  c #000042",
"9  c #00006C",
"0  c #003F67",
"q  c #00465C",
"w  c #005369",
"e  c #007C66",
"r  c #860000",
"t  c #8B0606",
"y  c #960303",
"u  c #9A1919",
"i  c #A30000",
"p  c #AD0202",
"a  c #B30000",
"s  c #BD0000",
"d  c #B20E0E",
"f  c #AB1718",
"g  c #BB1518",
"h  c #9F2C1F",
"j  c #AE310C",
"k  c #AF3400",
"l  c #AE3016",
"z  c #853B3B",
"x  c #A82929",
"c  c #B22424",
"v  c #A53434",
"b  c #AD1D2A",
"n  c #C40000",
"m  c #CB0100",
"M  c #D60000",
"N  c #DA0000",
"B  c #DD0018",
"V  c #D41611",
"C  c #E20200",
"Z  c #E80B0B",
"A  c #E80906",
"S  c #E41400",
"D  c #E40816",
"F  c #E4071B",
"G  c #C93635",
"H  c #962551",
"J  c #AA1061",
"K  c #9A275E",
"L  c #8E5656",
"P  c #B55656",
"I  c #B15766",
"U  c #947B7A",
"Y  c #946666",
"T  c #A86B6E",
"R  c #BD6869",
"E  c #974B7B",
"W  c #C87263",
"Q  c #08870F",
"!  c #088F0D",
"~  c #0A8B04",
"^  c #198703",
"/  c #109411",
"(  c #298A00",
")  c #2A9500",
"_  c #1AA600",
"`  c #28A400",
"'  c #30A200",
"]  c #03842D",
"[  c #059626",
"{  c #008A36",
"}  c #009533",
"|  c #008951",
" . c #DD9500",
".. c #D9921B",
"X. c #D7D719",
"o. c #E1DE00",
"O. c #DEE31E",
"+. c #EEED00",
"@. c #E6E804",
"#. c #F5F400",
"$. c #FEFE00",
"%. c #FAFA04",
"&. c #F1F011",
"*. c #D9D93A",
"=. c #E7E725",
"-. c #FEFF35",
";. c #F4F430",
":. c #BABA56",
">. c #A6A75F",
",. c #8B8D76",
"<. c #95986F",
"1. c #B78576",
"2. c #BF9066",
"3. c #BCBE6B",
"4. c #B6B975",
"5. c #C48C57",
"6. c #C19461",
"7. c #DCDD58",
"8. c #C7C94C",
"9. c #E8E848",
"0. c #F6F752",
"q. c #D5D761",
"w. c #CBCD71",
"e. c #E1E46C",
"r. c #003996",
"t. c #00248D",
"y. c #0015BE",
"u. c #005A8C",
"i. c #00439B",
"p. c #04559E",
"a. c #006C92",
"s. c #35659E",
"d. c #0040A6",
"f. c #314FAB",
"g. c #0061A4",
"h. c #3A62A3",
"j. c #536C95",
"k. c #727898",
"l. c #5A6EBB",
"z. c #5762AB",
"x. c #6E77A5",
"c. c #444F86",
"v. c #002BC6",
"b. c #002ADC",
"n. c #0034FF",
"m. c #0048C7",
"M. c #0054D8",
"N. c #004CFF",
"B. c #004CF3",
"V. c #0652F3",
"C. c #1A62FF",
"Z. c #3463F8",
"A. c #3560EB",
"S. c #305AE2",
"D. c #425FDB",
"F. c #5C71C6",
"G. c #4F69D7",
"H. c #6A79C9",
"J. c #4768E7",
"K. c #5B74E7",
"L. c #506DE4",
"P. c #697DE3",
"I. c #8E3684",
"U. c #91508E",
"Y. c #AE7184",
"T. c #907EA4",
"R. c #7681A8",
"E. c #7986BA",
"W. c #7184DA",
"Q. c #7888E4",
"!. c #90918F",
"~. c #A69292",
"^. c #9CA29C",
"/. c #B5B888",
"(. c #8991AA",
"). c #97A0A7",
"_. c #A3A6A7",
"`. c #B5AAA9",
"'. c #ACB3B4",
"]. c #B1B1B2",
"[. c #D38E8E",
"{. c #CD9898",
"}. c #C88B8B",
"|. c #CAADAD",
" X c #BFC4B2",
".X c #C4C98C",
"XX c #CBCE8E",
"oX c #D2D7AE",
"OX c #E7EB91",
"+X c #8D97CA",
"@X c #9CA6D1",
"#X c #A5ADD7",
"$X c #B0B6D8",
"%X c #AEB4CA",
"&X c #8594ED",
"*X c #99A3E3",
"=X c #ACB3F3",
"-X c #CABAC6",
";X c #BBC2FA",
":X c #CDCFD3",
">X c #F4D5D5",
",X c #F6DCDC",
"<X c #FADFDD",
"1X c #EAD5D4",
"2X c #CDD5ED",
"3X c #D6DAE8",
"4X c #C4CAFA",
"5X c #DADFF1",
"6X c #DDE4FD",
"7X c #DCE1F4",
"8X c #DFE1E6",
"9X c #E7E9EB",
"0X c #E5EAFD",
"qX c #EAEEFC",
"wX c #E6E8F6",
"eX c #ECF2FE",
"rX c #F2F5FE",
"tX c #F6FAFF",
"yX c #FEFEFF",
"uX c #F5F3F4",
"iX c #F0EFF0",
/* pixels */
"                                                                                                    ",
"                                                                                                    ",
"                                                                                                    ",
"                                                                                                    ",
"                                                                                                    ",
"                                          N.C.J.L.L.A.N.N.                                          ",
"  7X                                N.J.@X.X7.=.+.&.9.w.'.W.C.                                  6X  ",
"  2XyX6X                          B.'..Xe.$.$.$.$.$.$.$.$..X`.K.N.                          0XtX2X  ",
"    6XeXeX0XeXeX              C.J.q.$.(.R.$.$.0.0.0.-.$.9.y.7.#.+XN.                tXrXeXtXtX0X    ",
"      eX0X0XtXyXyXtXtXyX    Z.K.+.$.-.@.q.oX#XQ.P.W.&X$XoX*.%.&.$.'.n.      yXyXyXyXyXyXeXeXeX      ",
"      %XeXeXeXeXrXyXyXyXyX6XJ.+.$.$.$.oXQ.m.a.| | | | g.M.*XOX$.-.$.).&XyXyXyXyXyXyXrXeXeXeX%X      ",
"          7XyXeXrXtXyXyXeXA.7.-.$.%.#Xb.e ` ` _ _ _ _ ` _ u.B.oX%.-.%.F.4XyXyXyXyXtXyXyX7X          ",
"            :XqXtXtXyXyX=X)./.W.%.@Xv.) ` } } [ [ [ [ } [ ' 7 b.oX7.H.4.K.yXyXyXyXyXqX:X            ",
"        0X    wXyXtXyXrXD.O.w.>.oXv.( / ] Q ~ ! ! ! ! ~ / { ) 7 D..X<.=.(.=XyXyXyXyXiX    0X        ",
"        5XyXyXtXtXtXyX=X(.%.%.9.D.7 ^ ] ~ Q Q Q Q Q Q Q Q ~ { ) u.+X$.$.w.P.yXyXyXtXtXyXyX3X        ",
"          wXeXrXtXtXyX&X4.#.#.].d.( 7 < , , , , , , , , , , , ^ , d.XX#.=.F.0XyXyXtXrXtXwX          ",
"            tXtXrXyXrXH.8.%.&.H.w 1 2 > > > > > > > > > > > > 6 4 d.].%.+.R.2XyXyXtXyXtX            ",
"              rXyXyXqXl.=.9.7.f.5 1 ; ; ; - ; ; ; ; ; 2 ; ; ; 5 3 w (.*.9.!.=XyXyXyXrX              ",
"                3XyX7Xx./.F.4.f.: $ - - - - - $ - - - - - - - 2 3 w x.^.E.!.#XyXtX9X                ",
"              yX  yXwXx.:.>.3.f.# $ # # # # # $ # # : # # # : % 3 q x.:.>.<.#XyXuX  tX              ",
"              3XyXyXiXz.X.+.8.f.& * * * * * * * * * * * * * * & 3 0 x.o.#.,.$XyXyXyX3X              ",
"                :X9XyXl.8.@.X.s.q @ % @ @ @ @ @ @ @ @ @ @ @ @ % # t.!.o.=.j.2XyX9X:X                ",
"                      U.W  . .P H k l j j j j j j j j j j j j j k J W  ...E ].                      ",
"                    i n D B B C A D D D D D D D D D D D D D F F F S N B B S a                       ",
"                  y n m M N M M M M M M M M M M M M M M M M M M M M M N N M m d                     ",
"                  h T |.<X,X,X,X,X,X<X,X,X,X<X,X<X<X,X,X<X,X,X,X,X,X,X,X>X1XY.v t                   ",
"                  `.(.E.9XyXyXyXyXyXyXyXyXyXyXyXyXyXyXyXyXyXyXyXyXyXyXyXyX%Xj.`.U                   ",
"                  ).9 t.rXyXyXyXyXyXyXyXyXyXyXyXyXyXyXyXyXyXyXyXyXyXyXyXyX%X8 T._.                  ",
"                  _.j.T.,X>X>X>X>X>X>X>X,X>X>X>X>X>X>X>X>X>X>X>X>X>X>X>X<X-Xc.).~.                  ",
"      p c c c y L ^.I G M N N M N N N N N N M M M N M M M N N N N N N N N V R ^.,.r x c c d         ",
"      d s a p y z L p m A Z Z Z Z Z Z A A N C C C C C C N A Z Z Z Z Z Z Z C s v L r y a p m f       ",
"        W {.{.|.~.y f V             b K I.Y.T 6.6.6.1.Y.U.K H             V g y Y `.|.{.[.I         ",
"        iXyXyX9X`.r +                     r.p.s.h.s.p.p.r.                    r ~.:XiXyXyX          ",
"          yXyX9X].r .                                                         X 1.:X9XyX            ",
"          yXuX3X~.t +                                                         o T ].9XyXyX          ",
"        }.[.P u t o X                                                         X O r v R }.          ",
"        p s s i u o                                                           X t y p a n           ",
"        f v u u                                                                     u x x p         ",
"                                                                                                    "
};
