/* XPM */
static char *eaddc7165b0c4885b6b409043a207ec9lbiIrJzQcuItp5kS[] = {
/* columns rows colors chars-per-pixel */
"50 49 114 2 ",
"   c #02B700",
".  c #02BC00",
"X  c #0ABE00",
"o  c #16B600",
"O  c #13BD00",
"+  c #1BBD00",
"@  c #24BD00",
"#  c #2CBD00",
"$  c #34BD00",
"%  c #3ABC03",
"&  c #41BE05",
"*  c #4ABE04",
"=  c #04C200",
"-  c #0CC200",
";  c #04C800",
":  c #0ECA00",
">  c #14C400",
",  c #1BC600",
"<  c #15CA00",
"1  c #1CCA00",
"2  c #16D500",
"3  c #1DD200",
"4  c #17DA00",
"5  c #1BDD00",
"6  c #23C200",
"7  c #2BC400",
"8  c #24CC00",
"9  c #2ACE00",
"0  c #34C300",
"q  c #3CC302",
"w  c #33CC00",
"e  c #3BCB01",
"r  c #23D200",
"t  c #2CD100",
"y  c #24DA00",
"u  c #2CDA00",
"i  c #33D300",
"p  c #3BD400",
"a  c #34D900",
"s  c #3CDB00",
"d  c #1BE200",
"f  c #22E300",
"g  c #2DE300",
"h  c #27EA00",
"j  c #2AEB00",
"k  c #35E200",
"l  c #3CE200",
"z  c #35E900",
"x  c #44C303",
"c  c #4BC404",
"v  c #43CA01",
"b  c #4CCB06",
"n  c #4EC308",
"m  c #53C606",
"M  c #5AC707",
"N  c #53CC05",
"B  c #5DCB05",
"V  c #55C508",
"C  c #5AC609",
"Z  c #53CA08",
"A  c #5ACD09",
"S  c #43D500",
"D  c #4BD301",
"F  c #44DC00",
"G  c #49D900",
"H  c #48DC00",
"J  c #49DF00",
"K  c #4EDF00",
"L  c #56D502",
"P  c #57D703",
"I  c #54D105",
"U  c #5DD207",
"Y  c #5ED704",
"T  c #52DB00",
"R  c #50DF00",
"E  c #53DE00",
"W  c #58DB00",
"Q  c #5BDA04",
"!  c #5CD10A",
"~  c #63C60D",
"^  c #64CB08",
"/  c #63CC08",
"(  c #68CB08",
")  c #6BCB09",
"_  c #6BCB0F",
"`  c #62D406",
"'  c #61D905",
"]  c #63D30B",
"[  c #6DCA11",
"{  c #42E000",
"}  c #41E200",
"|  c #45E100",
" . c #46E200",
".. c #40E400",
"X. c #47E400",
"o. c #49E100",
"O. c #4DE000",
"+. c #4EE200",
"@. c #4CE400",
"#. c #4FE600",
"$. c #4FE900",
"%. c #53E300",
"&. c #55E100",
"*. c #51E500",
"=. c #52E600",
"-. c #56E500",
";. c #59E500",
":. c #5BE600",
">. c #54E900",
",. c #55E900",
"<. c #5AEA00",
"1. c #5CE900",
"2. c #5EEA00",
"3. c #60ED00",
/* pixels */
"G K W i i F R ` B M / ^ ) ) ) ^ A P &.R p i G T L m m m m V c c n * % c c x q x & n C C C V n B C ~ ",
"J %.R p i F  .;.L b D R Q ' N D F O.&.R p i F =.G b x % V V 9 w 7 0 $ $ q $ + # # x b b q % % x c M ",
"J &.&.i i F o.%.G 9 a s  .E p t a F &.&.i i F O.F e v 7 q x 9 t 8 @ 7 6 w 7 , . > 8 t t > @ 7 0 w Z ",
"O.;.R i p F { %.F i p o.>.;.p i s F %.-.i i F -. .r w 7 6 6 8 t 8 .   < r i > . . : r 2 :   > 8 w Z ",
"=.;.T i p F  .=.F w a =.<.;.i i s @.-.K i u F <. .9 9 7 @ 6 8 t 1 X   > t t , . . < t 8 > . = 8 9 Z ",
"=.;.G i p  .>.=.s 9 p @.<.;.p t F >.2.O.i i F <.l 9 9 > + > 1 t 1 X   > 9 t ,   . < t 8 > . = 8 8 b ",
"-.<.J i t F >.>.s t a @.<.&.i 8 a >.<.K i u F <.{ t 9 -   - r t 1 X   > t 9 < . . < t 8 > . = 8 3 b ",
"-.2.O.t < l >.>.p i i =.<.-.i < u >.<.O.t i F <.{ 9 9 -   - 8 t 1 =   > t 9 > . . , 9 9 >   - 8 1 b ",
"J O.p t 1 l >.<.F i 8 s ;.K i 1 u <.2.O.i r t O.s t 9 > . - 8 i 8 . . < t t , .   , i 9 >   X 8 r Z ",
"F K i 1 3 { >.-.p 9 < i &.F 8 > u <.2.F i 1 1 %.s 8 w 8 . - i a 8 >   > 9 9 8 - . 9 a i 1 . X 9 r b ",
"D %.i > <  .<.F 8 , < a =.F < = u -.@.a 1 , 8 &.s i i 8 - = p F i , - < i i 8 > . 8 J p 8 > > 9 u b ",
"G F w > = i >.J 8 < < i o.p > = 1 O.@.i 6 < 9 F a F e 8 X = a =.p 8 , 2 F s 9 - . 1 -.J 8 8 1 e F b ",
"G G 9 , . 8 @.F 8 < < i F i < . ;  .-.i 8 1 9 G i o.S 9 X 3  .-.p < , 1 F F 9 : ; a >.o.9 < 1 S J I ",
"D K i > < s <.F 8 > : a =.s > = t >.@.i , < 9 R F G i 8 X = a =.p 1 < 1 s F 9 - . r -.O.9 8 1 i F Z ",
"G R i < 1  .<.O.w 8 < i -.F 1 : u <.>.s 9 1 8 %.s p w 8 X = i o.i 1 > < a i 8 :   8 o.F 8 > > w i b ",
"F o.i 8 3 l >.-.F t 1 i &.G t 1 t <.<.o.i 8 < =.a 8 i 8 . - i F r >   , 8 t 8 - . 8 s i 8 . . 8 r b ",
"%.;.F 9 1 l >.>.F w t o.;.-.i , u >.<.K i t a >.F 8 9 ,   - 9 i 8 -   > t t 1 . . < i t <   - 8 3 b ",
"-.2.R i 3 l >.-.p t a >.<.-.i < i >.<.O.i i F <.{ t 9 X   X 1 t 1 X   > t 9 ,   . > 9 9 >   - 8 1 b ",
"=.-.G i i  .>.>.s 9 a =.<.-.i 9 s 2.3.K i t  .2...9 9 :   = 8 t 8 .   > 8 r , .   < 9 8 >   . 8 3 b ",
">.;.O.i p F @.=.F t i @.<.-.p t s @.;.O.i u F -.l 9 9 O X X 1 t 1 .   > t t > . . < t 8 >   . 8 3 b ",
"@.:.K i p F F =.S i p @.<.&.p i a o.%.J i u F &.F r 8 6 @ + , 9 8 X   : t t >   . < t 1 X   . 8 8 Z ",
"o.&.W i i F o.>.F w a F @.-.p i a o.&.%.e i F K F r 9 6 + 8 , 8 ,     > 9 t >   = : r 2 -   . 1 t Z ",
"F &.R w i F { O.F w i F O.&.p i a { =.K i i F G u u u > 1 u r 1 , o @ , i 9 O X 1 5 f 4 ; < 1 y t Z ",
"F o.F t t a a G S 0 x I N b c e v F o.F 9 9 a s a l r > u k f y , 6 8 i a 9 , < 5 g k u < 2 u k p C ",
"v p p i w i a e $ # % c q % $ % % b G F w 0 S s a X.w 8 i a g a 8 , r u l a , 1 y a X.p 8 i a { I ~ ",
"c e 7 0 Z e u 6 # $ # 0 # + O @ 6 e S w 7 0 q u k @.i 9 i a { s w , r s @.a 8 r a s  .p 9 i a o.I ~ ",
"e e 0 # 0 7 9 8 , @ , 9 w 8 . = > r r < O @ 6 f l O.i 9 s a @.F i 9 s >.;.F t i a o.O.p 8 a @.>.U ~ ",
"w 9 w @ 6 8 9 8 -   . 8 w 8 . . = r r < .   < d z -.G i F o.>.o.i i o.>.<.G i i o.<.&.s i a -.<.] [ ",
"e 9 6 7 @ 1 t 9 :   X 8 t 8 . . - t t < . - , d z O.p i s >.>.F i t F >.2.F t i @.3.;.s t a >.<.] [ ",
"q 9 < X . , 8 8 >   . 8 t 8 =   - r 9 , . . > d j %.s 1 a @.2.o.i t O.>.<.F 1 3 @.>.;.p t s ;.2.] [ ",
"w 9 8   . 1 t 8 >   . 8 9 8 . . - 9 9 1 . . < 5 h o.p < u $.<.J i t s ;.;.s 8 < @.<.-.s t t o.>.! [ ",
"e 9 , . . < t 8 >   X 8 i 8 =   - 9 9 , . . , 4 f a t 1 u $.<.O.i 9 8 K %.i r 1 @.3.;.p 9 < s @.U [ ",
"w w 8 . = 1 i 9 > . X 8 t 8 -   X t i 8 . . 1 2 f s 8 > i >.>.p 8 < 8 O.%.9 > < @.<.o.i 8 < F &.! [ ",
"w 9 t > . 9 F i 8 . - r 9 t < . > s p 8 > . , 2 g s 8 . u >.=.t > < r @.o.9 = < X.>.a 8 > < F %.! [ ",
"S p 9 , . 1 F F 8 > - t p t 1 . = s O.i < > 6 y y e 8 . ; F =.i < < 3 F s 8 = = i <.F 8 8 1 p s A [ ",
"D S w , = r =.o.8 , < a F i 1 . : o.-.i 8 8 8 u z i 8 . 1  .O.w , < r F F 8 = ; a >.F 8 , , G F I [ ",
"G J w > - a -.F 8 1 < u o.a 1 = 8 @.=.i 1 , 9 u z F 8 - a >.=.i < > r o.@.8 = < @.>.s 8 , < G =.! [ ",
"G S 9 , . 8 O.F 8 < : i F i <   ; F =.i , 8 8 y j p r 1 i $.<.F i 8 8 K -.i 8 1 @.2.=.p 8 < F O.! [ ",
"p w 9 > = 8 F s 1 - - t i t <   - s F t , > 8 5 g F t 1 u $.>.O.i 9 i %.&.i 8 1 @.2.-.s t 8 F @.! [ ",
"w 9 9 > . 8 s t , . X 8 9 8 < . > a i 8 -   , 5 j =.p < u @.<.o.w t  .>.<.F 1 < @.>.;.p t a =.>.] [ ",
"w 9 1 . . , i t > . = 8 i 8 .   - 8 i 8   . , d h -.p 8 a =.2.J i t  .<.:.F r t X.2.&.s t s -.<.] [ ",
"e t ,   . 1 r 8 >   . 8 t 8 =   = 8 9 < . = < d h O.S i s =.>.J t t  .>.:.F r i X.2.;.s t a >.<.! [ ",
"w 9 1   . 1 t 8 >   - 8 t 8 -   - 8 t 1 . . < d h O.S i F @.=.J i t F >.2.G t i $.<.-.s t s =.<.Y [ ",
"e 9 1 + O < t r -   . 8 t 1 .   - r 9 , . . < d h %.S i s s =.J i i  .<.2.G i a { >.=.p t a =.<.Y [ ",
"e 9 7 7 @ 8 t 8 >   . 8 t 8 .   - r t 1 . . < d g -.S i F F @.K i i F @.;.G i i F K %.S t F J ;.' [ ",
"w t 0 , 6 8 8 8 X . = 8 t 9 . = = 2 3 < . X 1 5 k &.F 9 F F O.J e i s F -.F i i s %.&.G t F G K -._ ",
"v e 0 0 x 9 9 9 6 # 6 9 7 6 . X , t t 1 + 7 7 d g %.D i s F @.D 0 w S F O.e 9 i  .=.%.F i a J ;.;.( ",
"m x $ n C x 9 9 0 $ $ q 0 @ @ 7 q b b v % % x r u K D t p R %.G 0 $ e S G 0 0 e S O.W G i D G W ;.] ",
"C M m V V n x n * % % m x x & * x V V C V n V x x B N N N ` B N c * M M b c c c c B U N c B L L ;.( "
};
