/* XPM */
static char *_55e3a6772ab430a96d18050ad3bc792RagWDT8HiqUDslc6[] = {
/* columns rows colors chars-per-pixel */
"41 50 214 2 ",
"   c None",
".  c #000000",
"X  c #000010",
"o  c #341B16",
"O  c #231E22",
"+  c #272527",
"@  c #5C3A2F",
"#  c #504F44",
"$  c #595959",
"%  c #48484A",
"&  c #675957",
"*  c #595C70",
"=  c #6B6B6B",
"-  c #727272",
";  c #936049",
":  c #B56F50",
">  c #D57D5A",
",  c #F5933E",
"<  c #EC8A49",
"1  c #F2924E",
"2  c #EB8B53",
"3  c #EA8C5C",
"4  c #E2835F",
"5  c #F1945D",
"6  c #F49758",
"7  c #F19153",
"8  c #DB8371",
"9  c #E58A64",
"0  c #E98E65",
"q  c #E58B6A",
"w  c #E48763",
"e  c #EB9166",
"r  c #EC946A",
"t  c #EF986C",
"y  c #F49B64",
"u  c #F29B6E",
"i  c #FB9A6C",
"p  c #F39665",
"a  c #EE9C76",
"s  c #F29E71",
"d  c #F5A272",
"f  c #FCA574",
"g  c #F8A778",
"h  c #FAA260",
"j  c #07029B",
"k  c #081E9E",
"l  c #15149E",
"z  c #0000AF",
"x  c #0008A5",
"c  c #091DA2",
"v  c #0016AC",
"b  c #001EB1",
"n  c #161AA1",
"m  c #0625A3",
"M  c #0821A4",
"N  c #052AA6",
"B  c #0626AA",
"V  c #042DAA",
"C  c #0825AE",
"Z  c #0233AC",
"A  c #0038AE",
"S  c #062EB4",
"D  c #062CB8",
"F  c #0433B3",
"G  c #033AB4",
"H  c #0434BA",
"J  c #033BBA",
"K  c #0B3BB7",
"L  c #1538B7",
"P  c #1035AA",
"I  c #2438B4",
"U  c #3739B8",
"Y  c #563CAD",
"T  c #4738B1",
"R  c #0740BD",
"E  c #5045B9",
"W  c #6348BE",
"Q  c #023EC2",
"!  c #0539C8",
"~  c #0039D4",
"^  c #0341C2",
"/  c #0045CD",
"(  c #0143CA",
")  c #0549CE",
"_  c #0A4CCC",
"`  c #0A47C7",
"'  c #104ECE",
"]  c #0146D1",
"[  c #0044D4",
"{  c #054AD1",
"}  c #074CD2",
"|  c #074ED5",
" . c #054AD1",
".. c #094FD5",
"X. c #094FD4",
"o. c #0045DC",
"O. c #0149DA",
"+. c #014CDC",
"@. c #154FD3",
"#. c #0A51D6",
"$. c #0B52D6",
"%. c #0255DC",
"&. c #0B52D8",
"*. c #0C54D9",
"=. c #0D55DB",
"-. c #0E57DC",
";. c #0D55DC",
":. c #0D55DB",
">. c #0F58DD",
",. c #0F58DD",
"<. c #0750D6",
"1. c #1059DE",
"2. c #105ADF",
"3. c #1A5ADD",
"4. c #1753D6",
"5. c #214ACE",
"6. c #2044C7",
"7. c #2558D9",
"8. c #324DCD",
"9. c #0045E1",
"0. c #004BE2",
"q. c #004CE9",
"w. c #0253E3",
"e. c #015CE3",
"r. c #0F5AE0",
"t. c #0055EA",
"y. c #135DE2",
"u. c #0044F2",
"i. c #0064ED",
"p. c #0D64E9",
"a. c #1661E6",
"s. c #1D61E4",
"d. c #1562EA",
"f. c #1965EA",
"g. c #1C6AED",
"h. c #0063F2",
"j. c #006BF5",
"k. c #0067F9",
"l. c #006EF9",
"z. c #1D6DF2",
"x. c #1A6CFC",
"c. c #1667F7",
"v. c #0071FC",
"b. c #0874FB",
"n. c #1A73F8",
"m. c #2562E3",
"M. c #256BED",
"N. c #2A6CED",
"B. c #2966E7",
"V. c #216FF2",
"C. c #2B6FF0",
"Z. c #2272F5",
"A. c #2C73F4",
"S. c #2476F9",
"D. c #2579FC",
"F. c #2B7AFB",
"G. c #2B77F8",
"H. c #3275F5",
"J. c #337CFB",
"K. c #3167E4",
"L. c #5B5BD0",
"P. c #665BC7",
"I. c #7572DC",
"U. c #5F7DE4",
"Y. c #BD7488",
"T. c #AE719B",
"R. c #B87497",
"E. c #AA6C96",
"W. c #8D64B6",
"Q. c #9868B0",
"!. c #AA6EA2",
"~. c #AD71AC",
"^. c #AA77B4",
"/. c #C77C89",
"(. c #977CCF",
"). c #8977D2",
"_. c #3882FD",
"`. c #4684F8",
"'. c #5683F3",
"]. c #5B95FE",
"[. c #688AEB",
"{. c #6894F7",
"}. c #76A6FC",
"|. c #8A8A8B",
" X c #888784",
".X c #9B9B9B",
"XX c #888EAE",
"oX c #BC87AC",
"OX c #A9A9A9",
"+X c #B5B5B6",
"@X c #CD838E",
"#X c #EA9285",
"$X c #D2A191",
"%X c #F5B799",
"&X c #F9CBB8",
"*X c #F6C2AC",
"=X c #899AE7",
"-X c #8CA4F5",
";X c #AAB6EE",
":X c #D7D6D5",
">X c #E0DEDD",
",X c #F6E0D8",
"<X c #DADFF5",
"1X c #D4D7F1",
"2X c #C7D1F9",
"3X c #DDE0F5",
"4X c #C8E0FE",
"5X c #F7EAE6",
"6X c #E2E6F8",
"7X c #E5E8F9",
"8X c #F3F3F4",
"9X c #FCFCFB",
"0X c #F8F7F7",
"qX c #E4E8E9",
/* pixels */
"                                  Q                                               ",
"                                  ! /                                             ",
"                                F c ( (                                           ",
"                                c c S [ (                                         ",
"                                M M k Q / +.(                             H       ",
"                                C M k Z ( ( +.                          k D /     ",
"                                C m M M Q ] ( (                       m c F /     ",
"                              m m M m k V ( ( o.                    m m m S /     ",
"J ] / ( ( (                   m B m m m M Q ( ( (               N S N N m F +.    ",
"  D ( ] ] ] O.( (             B m m m m m F / ( O.            N F N N N N ^ +.    ",
"  m m Q / ( ( ( O.( (       N C m N m N m N ^ / ] )         V F N N V V V ^ ] (   ",
"  N B N H ( ( ( ( ( +.(     N N N m B m N m ) ) ) 0.      V H V V Z V N F / ] (   ",
"    D N m F Q ( ( ( ( +.( m C N N m N B N m ) { { | }   Z F Z V Z Z V V Q )  .(   ",
"    N N N m N F Q ( ( / J C N N N N N N N N J } } | | G Z Z Z Z Z Z Z Z ) { ] |   ",
"    N S N N V N N V V V N N N N N N N N N m J #.....#.<.R A Z G A Z Z ^ { { ) 0.  ",
"    N V N N N V N N N V N V V N N N N N N N J ;.#.&.#.&.*.` A A A A J ....{ { w.  ",
"    V V V N V V V V V V N m N F F Z F F F m V X.:.:.;.*.*.;.$.` R _ #.#.#.<._ | } ",
"    J F V V V V V V V N Z Q ) ..$.$.$.&.&.` ` $.1.:.,.;.:.:.,.,.;.,.#.#.#.#.#.<.<.",
"      F V V N V V N V ^ } ....X.$.$.:.;.:.,.2.1.1.1.1.1.,.,.,.,.,.;.,.;.,.#.#.#.| ",
"      G V V Z V N A ) | { ..X.&.$.*.:.:.,.1.2.2.1.1.y.a.y.a.2.1.1.1.,.,.*.*.;.#.<.",
"      H P Z Z Z J )  . ...X.&.&.;.:.:.1.1.y.y.y.y.a.4.' ' ' y.a.a.y.y.2.1.1.*.;.&.",
"    Z F Z Z N J ) ) } } X.X.&.&.:.,.,.1.y.y.y.y.y.f.K j n l P I I I 7.5.@.:.:.;.*.",
"    Z F Z V K 5.5.5.5.4...&.&.;.,.1.y.y.y.y.a.a.a.d.2.C b b v z z z z z x @.r.;.;.",
"    Z F V R ] ~ [ [ O.+.4.&.,.,.1.2.y.y.y.a.a.a.f.f.p.U Y Y T E./.Y.Y.Y.E %.3.1.;.",
"    Z K L ~ 8.T.T.!.T.P.0.7.;.,.2.2.a.a.a.f.f.f.f.B.h.^.< q e y y 6 y 1 P.e.3.y.,.",
"    P J ~ W.w 2 2 2 < w P.%.3.,.a.2.a.a.a.f.f.f.f.N.h.).2 0 r s u a y R.~ m.y.2.1.",
"    A 6./.3 3 9 0 9 q 2 8 e.m.m.m.m.B.B.M.B.M.f.g.g.M.j.@X5 a s g d y W w.s.a.y.y.",
"    ~ Q.1 q 0 e w w 0 9 8 L.9.o.+.0.q.q.t.t.i.A.z.V.A.j.I.1 t u s h ~.0.m.a.a.y.y.",
"    W.e r e e w 4 0 e q < oX{.1X<X3X3X3X3X-X'.t.H.z.V.A.v.(.6 r y ~.0.M.f.a.a.y.y.",
"    #Xp r r 9 w e r e e r 5X9X9X9X9X9X9X9X9X0X{.h.A.Z.Z.H.v.(., @Xq.N.M.f.a.a.c.y.",
"  T.i r p u w r t t t 3 a 9X0X0X0X0X9X9X0X0X9X8X'.l.G.S.G.H.v.).I.j.M.g.g.f.a.x.  ",
"  @Xp r u 0 9 u u t e r 5X9X9X0X9X0X9X0X9X9X0X9X2Xk.J.D.S.l.G.v.l.C.z.g.g.f.d.d.  ",
"  y u u d 3 0 d u t d 5X9X9X9X9X9X9X9X9X9X9X0X9X8Xv.J.D._.].`.A.A.z.z.V.f.f.c.a.  ",
"  r u u d e t d d 1 ,X9X>X- - - = - - = +X9X9X9X2Xl.J.b.].4X}.j.A.z.V.g.g.f.x.    ",
"  f u u d d d g y *X0X9X.X. . . . . . . . 8X0X9X-Xk._.D._.}.`.n.Z.V.V.g.g.g.f.    ",
"  f u u d d d g g 0X9X9X+X$ = = = = = = - 8X9X6X`.n.F.F.D.b.n.Z.z.V.z.g.g.z.f.    ",
"  f u s d d g h &X9X0X9X9X9X9X9X9X9X9X9X9X9X6XA.k.F.Z.D.G.G.Z.Z.Z.V.V.g.f.z.      ",
"  t u s d d g 6 &X9X9X0X9X9X0X9X0X9X9X0X9X6XC.j.H.Z.Z.Z.S.Z.Z.Z.V.z.g.f.z.f.      ",
"  p s t u d d y %X0X9X9X9X0X9X9X0X9X0X9X6XN.h.A.z.Z.Z.Z.Z.Z.z.Z.g.V.g.f.x.        ",
"  r i u u u u d 5 5X0X9X0X9X9X0X9X9X9X;Xi.i.N.g.z.Z.z.Z.z.Z.z.g.g.g.g.n.d.        ",
"    f r u s r s 5 &X9X9X9X9X0X0X9X3X[.w.p.M.g.g.V.g.V.V.z.z.M.g.g.f.z.f.          ",
"    r r r r r r r ; qX9X9X9X9X9X6Xe.0.K.f.f.f.g.f.g.g.g.g.g.g.g.f.f.d.            ",
"      i r r r i : . :X9X0X9X9X9XU.o.K.a.a.f.f.f.f.g.g.g.g.g.f.f.f.z.              ",
"      0 i 0 0 9 @ . $X9X9X0X8X0X;X0.s.a.y.a.a.f.f.f.f.f.f.f.f.f.x.f.              ",
"        0 e p : X . $X9X:X% % # * 3.m.m.m.m.a.a.a.a.f.f.f.a.f.c.a.                ",
"          i e : . . & 9XOX. . . . . j 9.o.9.s.m.a.a.a.a.a.a.y.' N N               ",
"            0 > . + . - >X|. X|.|.|. XXX=X=X%.0.m.y.a.a.a.y.J m Z S V             ",
"                o . + . :X9X9X9X9X9X9X9X9X9X6X=X0.y.a.p.$.J Z G F J Q Z           ",
"                  + . +X9X9X9X9X9X9X9X9X9X9X9X7Xu.m.y._ G A G A A                 ",
"                              9X9X9X9X9X                                          "
};
