/* XPM */
static char *_5f900971fdf40c9827ada16b5efb9dfFKQ70N3hKKqtONCg[] = {
/* columns rows colors chars-per-pixel */
"41 50 210 2 ",
"   c None",
".  c #000000",
"X  c #000010",
"o  c #341B16",
"O  c #231E22",
"+  c #272527",
"@  c #5C3A2F",
"#  c gray26",
"$  c #504F44",
"%  c #4E4E51",
"&  c #595959",
"*  c #675957",
"=  c #595C70",
"-  c #6B6B6B",
";  c #727272",
":  c #936049",
">  c #B86F4F",
",  c #B46F51",
"<  c #D57D5A",
"1  c #F5933E",
"2  c #EC8A49",
"3  c #F28F4D",
"4  c #F2924E",
"5  c #EB8B53",
"6  c #EA8C5C",
"7  c #E2835F",
"8  c #F1945D",
"9  c #F49758",
"0  c #EF9259",
"q  c #DB8371",
"w  c #E58A64",
"e  c #E98E65",
"r  c #E58B6A",
"t  c #E48763",
"y  c #EB9166",
"u  c #EC946A",
"i  c #EF986C",
"p  c #F49B64",
"a  c #F29B6E",
"s  c #FB9A6C",
"d  c #F39665",
"f  c #EE9C76",
"g  c #F29E71",
"h  c #F5A272",
"j  c #FCA574",
"k  c #F8A778",
"l  c #FAA260",
"z  c #07029B",
"x  c #081E9E",
"c  c #15149E",
"v  c #0000AF",
"b  c #0008A5",
"n  c #091DA2",
"m  c #0016AC",
"M  c #001EB1",
"N  c #161AA1",
"B  c #0625A3",
"V  c #0821A4",
"C  c #052AA6",
"Z  c #0626AA",
"A  c #042DAA",
"S  c #0825AE",
"D  c #0233AC",
"F  c #0038AE",
"G  c #062EB4",
"H  c #062CB8",
"J  c #0433B3",
"K  c #033AB4",
"L  c #0434BA",
"P  c #033BBA",
"I  c #0B3BB7",
"U  c #1538B7",
"Y  c #1035AA",
"T  c #2438B4",
"R  c #3739B8",
"E  c #563CAD",
"W  c #4738B1",
"Q  c #0740BD",
"!  c #5045B9",
"~  c #6348BE",
"^  c #023EC2",
"/  c #0539C8",
"(  c #0035D5",
")  c #003DD3",
"_  c #0341C2",
"`  c #0144CB",
"'  c #0549CE",
"]  c #0A4CCC",
"[  c #0A47C7",
"{  c #104ECE",
"}  c #0045D2",
"|  c #064CD2",
" . c #094FD4",
".. c #0045DC",
"X. c #014BDC",
"o. c #154FD3",
"O. c #0A51D6",
"+. c #0255DC",
"@. c #0D55DA",
"#. c #0F58DD",
"$. c #0750D6",
"%. c #1059DE",
"&. c #1A5ADD",
"*. c #1753D6",
"=. c #214ACE",
"-. c #2044C7",
";. c #255EDF",
":. c #2454D5",
">. c #324DCD",
",. c #0045E1",
"<. c #004BE2",
"1. c #004FEA",
"2. c #0047E8",
"3. c #0253E3",
"4. c #015CE3",
"5. c #0F5AE0",
"6. c #0055EA",
"7. c #135DE2",
"8. c #0044F2",
"9. c #0064ED",
"0. c #0D64E9",
"q. c #1661E6",
"w. c #1D61E4",
"e. c #1562EA",
"r. c #1965EA",
"t. c #1C6AED",
"y. c #0063F2",
"u. c #006BF5",
"i. c #0067F9",
"p. c #006EF9",
"a. c #1D6DF2",
"s. c #1A6CFC",
"d. c #1667F7",
"f. c #0071FC",
"g. c #0874FB",
"h. c #1A73F8",
"j. c #2562E3",
"k. c #256BED",
"l. c #2A6CED",
"z. c #2966E7",
"x. c #216FF2",
"c. c #2B6FF0",
"v. c #2272F5",
"b. c #2C73F4",
"n. c #2476F9",
"m. c #2579FC",
"M. c #2B7AFB",
"N. c #2B77F8",
"B. c #3275F5",
"V. c #337CFB",
"C. c #3167E4",
"Z. c #5B5BD0",
"A. c #665BC7",
"S. c #6D6DDE",
"D. c #7D76D9",
"F. c #5F7DE4",
"G. c #BD7488",
"H. c #AE719B",
"J. c #B87497",
"K. c #AA6C96",
"L. c #8D64B6",
"P. c #9868B0",
"I. c #AA6EA2",
"U. c #AD71AC",
"Y. c #AA77B4",
"T. c #C77C89",
"R. c #977CCF",
"E. c #8977D2",
"W. c #3882FD",
"Q. c #4684F8",
"!. c #5683F3",
"~. c #5B95FE",
"^. c #688AEB",
"/. c #6894F7",
"(. c #6FA2FC",
"). c #7DA9FB",
"_. c #888782",
"`. c #8A8A8B",
"'. c gray53",
"]. c #9B9B9B",
"[. c #888EAE",
"{. c #BC87AC",
"}. c #A9A9A9",
"|. c #B5B5B6",
" X c #C5808F",
".X c #D2848D",
"XX c #EA9285",
"oX c #D2A191",
"OX c #F5B799",
"+X c #F9CBB8",
"@X c #F6C2AC",
"#X c #899AE7",
"$X c #8CA4F5",
"%X c #AAB6EE",
"&X c #D7D6D5",
"*X c #E0DEDD",
"=X c #F6E0D8",
"-X c #DADFF5",
";X c #D4D7F1",
":X c #C7D1F9",
">X c #C8E0FE",
",X c #DDE0F5",
"<X c #F7EAE6",
"1X c #E2E6F8",
"2X c #E5E8F9",
"3X c #F3F3F4",
"4X c #F7F8FA",
"5X c #FCFCFB",
"6X c #F8F6F7",
"7X c #E4E8E9",
/* pixels */
"                                          5X5X5X5X5X                              ",
"                F F K D F ] 7.;.8.2X5X5X5X5X5X5X5X5X5X5X5X|.. +                   ",
"          D ^ L J K D P @.r.e.w.X.#X2X5X5X5X5X5X5X5X5X5X&X. + . o                 ",
"            A D D B P q.q.7.7.7.w.<.3.#X#X[._._.`.`.`.`.&X; . + . < e             ",
"              C C ] 7.q.q.q.q.q.q.j.w.....,.b . . . . . }.5X* . . , e s           ",
"                q.t.r.q.q.r.q.r.q.r.r.j.j.j.j.&.= $ % # &X5XoX. X > d e e         ",
"              q.s.r.r.r.r.r.t.r.r.r.r.q.q.7.j.<.%X5X3X4X5X5XoX. @ u u y s e       ",
"              d.r.r.t.r.t.t.t.t.r.r.r.q.q.q.C...F.5X5X5X5X5X&X. > a y y u i       ",
"            r.r.t.r.t.a.t.t.k.t.t.t.r.r.r.C.<.4.1X5X5X5X6X5X7X: y i i i i i y     ",
"          r.a.t.t.a.t.a.a.t.a.a.t.t.t.k.e.3.^.,X5X6X6X5X5X6X5X+X8 i i i i i j     ",
"        r.a.t.t.t.t.a.v.t.v.v.t.a.t.c.9.9.%X5X5X6X6X5X5X4X5X5X<X9 h g a i i h i   ",
"        s.t.t.t.a.v.a.v.v.v.v.v.a.b.9.l.1X5X4X4X5X5X5X6X5X5X5X5XOXp h g g a a d   ",
"      r.d.t.t.v.v.v.v.v.v.n.n.v.B.u.c.1X5X4X5X5X4X5X5X5X5X5X3X5X+X9 h h h a a i   ",
"      a.t.t.t.a.v.v.n.M.n.n.n.N.u.v.2X5X5X5X5X5X5X5X5X5X5X4X5X5X+Xl k k g a a j   ",
"    r.d.t.t.t.v.v.v.h.f.n.M.M.h.Q.1X5X3X; - - - - - ; & |.5X4X6Xk j j h h a a j   ",
"    r.t.t.t.k.a.v.a.Q.(.W.m.W.i.$X5X6X3X. . . . . . . . ].5X6X@Xp k h j h a a j   ",
"    s.r.t.t.a.x.N.u.).>X~.g.V.p.;X5X5X5X|.& ; ; ; ; ; - &X5X=X4 h h i u h i a i   ",
"  q.r.r.t.t.x.x.b.N.Q./.W.m.M.u.2X5X5X5X5X5X5X5X5X5X5X5X5X<Xg g a h y t h i g 9   ",
"  q.r.r.r.t.a.x.u.f.b.p.m.M.V.i.:X5X4X5X3X5X6X5X5X5X4X5X<Xi d a i a w y i i p  X  ",
"  s.q.r.r.t.k.p.S.E.f.B.n.n.N.p.!.4X5X4X5X4X5X5X5X4X4X5Xf 6 i u a y t i u u s H.  ",
"7.d.q.q.r.k.k.1.XX2 [.g.B.v.v.B.y./.3X5X5X5X5X5X5X5X5X<Xr y y i y 7 e i u p XX    ",
"7.e.q.q.r.k.2.U.d u 8 R.p.N.s.a.b.6.!.$X,X,X-X-X1X;X/.{.2 r e e 7 t y y e y L.    ",
"5.7.q.q.j.,.U.l g g i 3 E.p.l.a.a.c.9.6.6.3.1.<.....,.Z.r t e t t y e e 3 P.(     ",
"7.7.7.j.<.A.p g k g i 8  Xu.k.a.t.t.k.k.z.z.z.j.j.j.;.3.q 5 r r w r e 6 T.-.F     ",
"5.7.7.C.( J.p g h g i e 5 E.u.z.t.r.r.r.q.q.7.7.%.%.&.+.A.q 2 2 3 5 t L./ L Y     ",
"@.7.7.4.A.2 8 p p p u r 2 Y.y.z.r.r.r.r.q.q.7.7.7.%.#.:.3.A.J.I.I.I.Z.( U J D     ",
"@.#.7.4.! G.T.G.T.K.W E E R 0.r.r.q.w.q.7.7.7.%.%.@.@.O.:.X.....} ) ' U D J D     ",
"@.@.%.o.b v v v v v m M m M &.q.q.q.q.7.7.7.7.#.#.@.@.@.$.o.:.=.=.o.I D D J D     ",
"@.@.#.@.o.:.:.T T T Y c N z Q r.7.7.7.7.7.#.#.#.@.@.@. . . .| ' ' P D D D J D     ",
"O.@.@.@.#.5.7.7.7.q.7.{ {  .*.7.7.%.7.7.7.%.#.@.@.O.O. . .' | ` Q C D C D J       ",
" .O.@.@.@.#.#.#.%.%.7.7.7.w.7.7.7.%.%.%.@.@.@.@.@. . . . .| ` D C D D A A J       ",
" . .O.O.@.@.@.@.@.%.%.@.%.%.%.%.@.%.%.@.@.O.@.@. . .| | | _ D A A A A A A L       ",
"$. . .O.O.O.@.#.@.#.#.@.#.#.#.@.@.@.[ ] O.@.@.O. . .[ ^ D A C D C C A D A J L     ",
"| $.|  . .O.@.] Q ' O.@.O.@.@.@.@.O.C B D J D D J D A C C A A C C D C C A A D     ",
"  3.| | $. .Q F F D F [ @.O.O.O.O.@.P C A C B A C C C A A C C C C A A A C G C     ",
"  <.' | ' Q D D F F D F Q O.$.O.| O.I B A C C C C A C C C A G A C B A C C A C     ",
"  $.` ' ' D D D D D D D D K $. .| | I B C C C C C C C A L ` ` ` Q J C C C C C     ",
"  ` | } P A D D D D D J D    .| | | ` C C C C B C C A B ` ..` ^ ` ` ^ A V C G     ",
"  ` ` } K A A A A A L A       X.' | ` B C V C C C C C     ` <.` ` ` ` ` L C Z C   ",
"  ` } _ A A A A A J A         ' } ' _ A V C B B V S B       ` ` X.` ` ` ` _ C V   ",
"    X.^ C C C C G C             ..` ` J x C B B V Z             ` ` X.} } } ^ L   ",
"    X.J B C C H C               ` ` ` ^ V B B B Z C                   ` ` ` } ` P ",
"    ` G V C B                     X.` ` D x B B Z V                               ",
"    ` J V V                       ` ` ` ^ n B V S                                 ",
"    ` L x                           X.` ` A x V S                                 ",
"      H                             ` <.` ^ x S V                                 ",
"                                        ` } A n V                                 ",
"                                          ` / x J                                 ",
"                                            } /                                   ",
"                                              ^                                   "
};
