/* XPM */
static char *_be2561a186f4186e1f739dc609777e28e2xb5GcnNQlx25a[] = {
/* columns rows colors chars-per-pixel */
"50 41 210 2 ",
"   c None",
".  c #000000",
"X  c #000010",
"o  c #341B16",
"O  c #231E22",
"+  c #272527",
"@  c #5C3A2F",
"#  c gray26",
"$  c #504F44",
"%  c #4E4E51",
"&  c #595959",
"*  c #675957",
"=  c #595C70",
"-  c #6B6B6B",
";  c #727272",
":  c #936049",
">  c #B86F4F",
",  c #B46F51",
"<  c #D57D5A",
"1  c #F5933E",
"2  c #EC8A49",
"3  c #F28F4D",
"4  c #F2924E",
"5  c #EB8B53",
"6  c #EA8C5C",
"7  c #E2835F",
"8  c #F1945D",
"9  c #F49758",
"0  c #EF9259",
"q  c #DB8371",
"w  c #E58A64",
"e  c #E98E65",
"r  c #E58B6A",
"t  c #E48763",
"y  c #EB9166",
"u  c #EC946A",
"i  c #EF986C",
"p  c #F49B64",
"a  c #F29B6E",
"s  c #FB9A6C",
"d  c #F39665",
"f  c #EE9C76",
"g  c #F29E71",
"h  c #F5A272",
"j  c #FCA574",
"k  c #F8A778",
"l  c #FAA260",
"z  c #07029B",
"x  c #081E9E",
"c  c #15149E",
"v  c #0000AF",
"b  c #0008A5",
"n  c #091DA2",
"m  c #0016AC",
"M  c #001EB1",
"N  c #161AA1",
"B  c #0625A3",
"V  c #0821A4",
"C  c #052AA6",
"Z  c #0626AA",
"A  c #042DAA",
"S  c #0825AE",
"D  c #0233AC",
"F  c #0038AE",
"G  c #062EB4",
"H  c #062CB8",
"J  c #0433B3",
"K  c #033AB4",
"L  c #0434BA",
"P  c #033BBA",
"I  c #0B3BB7",
"U  c #1538B7",
"Y  c #1035AA",
"T  c #2438B4",
"R  c #3739B8",
"E  c #563CAD",
"W  c #4738B1",
"Q  c #0740BD",
"!  c #5045B9",
"~  c #6348BE",
"^  c #023EC2",
"/  c #0539C8",
"(  c #0035D5",
")  c #003DD3",
"_  c #0341C2",
"`  c #0144CB",
"'  c #0549CE",
"]  c #0A4CCC",
"[  c #0A47C7",
"{  c #104ECE",
"}  c #0045D2",
"|  c #064CD2",
" . c #094FD4",
".. c #0045DC",
"X. c #014BDC",
"o. c #154FD3",
"O. c #0A51D6",
"+. c #0255DC",
"@. c #0D55DA",
"#. c #0F58DD",
"$. c #0750D6",
"%. c #1059DE",
"&. c #1A5ADD",
"*. c #1753D6",
"=. c #214ACE",
"-. c #2044C7",
";. c #255EDF",
":. c #2454D5",
">. c #324DCD",
",. c #0045E1",
"<. c #004BE2",
"1. c #004FEA",
"2. c #0047E8",
"3. c #0253E3",
"4. c #015CE3",
"5. c #0F5AE0",
"6. c #0055EA",
"7. c #135DE2",
"8. c #0044F2",
"9. c #0064ED",
"0. c #0D64E9",
"q. c #1661E6",
"w. c #1D61E4",
"e. c #1562EA",
"r. c #1965EA",
"t. c #1C6AED",
"y. c #0063F2",
"u. c #006BF5",
"i. c #0067F9",
"p. c #006EF9",
"a. c #1D6DF2",
"s. c #1A6CFC",
"d. c #1667F7",
"f. c #0071FC",
"g. c #0874FB",
"h. c #1A73F8",
"j. c #2562E3",
"k. c #256BED",
"l. c #2A6CED",
"z. c #2966E7",
"x. c #216FF2",
"c. c #2B6FF0",
"v. c #2272F5",
"b. c #2C73F4",
"n. c #2476F9",
"m. c #2579FC",
"M. c #2B7AFB",
"N. c #2B77F8",
"B. c #3275F5",
"V. c #337CFB",
"C. c #3167E4",
"Z. c #5B5BD0",
"A. c #665BC7",
"S. c #6D6DDE",
"D. c #7D76D9",
"F. c #5F7DE4",
"G. c #BD7488",
"H. c #AE719B",
"J. c #B87497",
"K. c #AA6C96",
"L. c #8D64B6",
"P. c #9868B0",
"I. c #AA6EA2",
"U. c #AD71AC",
"Y. c #AA77B4",
"T. c #C77C89",
"R. c #977CCF",
"E. c #8977D2",
"W. c #3882FD",
"Q. c #4684F8",
"!. c #5683F3",
"~. c #5B95FE",
"^. c #688AEB",
"/. c #6894F7",
"(. c #6FA2FC",
"). c #7DA9FB",
"_. c #888782",
"`. c #8A8A8B",
"'. c gray53",
"]. c #9B9B9B",
"[. c #888EAE",
"{. c #BC87AC",
"}. c #A9A9A9",
"|. c #B5B5B6",
" X c #C5808F",
".X c #D2848D",
"XX c #EA9285",
"oX c #D2A191",
"OX c #F5B799",
"+X c #F9CBB8",
"@X c #F6C2AC",
"#X c #899AE7",
"$X c #8CA4F5",
"%X c #AAB6EE",
"&X c #D7D6D5",
"*X c #E0DEDD",
"=X c #F6E0D8",
"-X c #DADFF5",
";X c #D4D7F1",
":X c #C7D1F9",
">X c #C8E0FE",
",X c #DDE0F5",
"<X c #F7EAE6",
"1X c #E2E6F8",
"2X c #E5E8F9",
"3X c #F3F3F4",
"4X c #F7F8FA",
"5X c #FCFCFB",
"6X c #F8F6F7",
"7X c #E4E8E9",
/* pixels */
"                                 .O. . .O.@.@.@.%.%.7.7.e.7.                                        ",
"                    ` ` ` X.<.3. . .O.O.O.@.#.#.%.%.7.7.7.e.s.e.q.                                  ",
"          ` ` ` <.X.} ` } ` | '  . .O.@.@.#.%.7.&.7.7.7.q.q.e.e.r.s.r.q.                            ",
"        L G J G J ^ ` ` ' ' | |  .O.O.@.#.@.*.+.4.z.j.r.r.q.r.r.r.t.t.a.d.r.                        ",
"          n V B B C A D Q ' | |  .O.@.@.5.o.b ! A.( 6.j.r.r.r.t.t.t.t.t.r.a.s.r.                    ",
"            V Z C C A A D D _ | O.O.@.@.7.:.v G.5 G.~ <.k.t.t.t.t.t.t.t.a.t.t.a.r.            J     ",
"              B C C A A D D D Q @.@.@.#.7.:.v G.8 p p U.2.c.k.t.t.a.x.a.a.t.t.t.a.r.        A ^     ",
"                J C C A D D D F | @.@.%.7.T v G.p f h l U.1.u.c.x.v.a.a.a.a.t.t.r.t.a.q.  C D L     ",
"                C G A A D D D F P @.%.%.&.T v T.p h h h p q S.f.b.n.v.v.k.a.t.x.t.r.r.s.q.Z D P F   ",
"                  C G D D D F D ] @.%.%.q.T v K.p a h h i 3 R.f.N.f.h.v.v.v.v.t.t.t.r.r.t.] B J K   ",
"                    A L D D D D O.@.%.%.%.Y m W u i i u 9 R.f.n.Q.).Q.h.n.v.a.a.a.t.r.r.e.7.P D K   ",
"                      A J D F ] #.@.%.7.{ c M E r y 0 4 R.f.B.f./.>X(.f.N.v.v.v.a.t.t.r.r.q.q.P D   ",
"                        D D _ @.@.#.%.7.{ N M E 2 5  XD.p.B.n.n.W.~.W.m.n.v.v.a.x.x.t.r.q.q.q.O.F   ",
"                          K O.O.@.@.#.q.{ z M R Y.E.p.u.b.v.n.n.M.g.m.M.n.n.v.a.t.t.t.r.r.q.q.e.]   ",
"                         . .$.O.@.#.#.7.*.[ &.0.y.y.k.b.a.v.N.V.M.V.W.M.n.n.v.x.t.t.t.q.r.q.7.e.7.  ",
"                    ` <. . . .O.O.#.%.#.7.e.e.r.z.k.t.x.a.B.u.i.f.u.i.h.N.v.v.v.t.t.t.t.q.q.5.j.;.  ",
"                ` X.} ' | | O.O.@.#.#.%.&.7.q.r.r.t.t.t.b.y.!.:X3X:X$XQ.p.B.a.a.t.t.t.r.q.q.7.<.8.  ",
"            ` ..` ` ' ` |  .O.@.O.O.%.%.7.7.q.q.q.t.t.c.9./.6X5X5X5X5X2Xb.u.b.a.t.t.r.r.q.j.<.#X2X  ",
"        ` X.` ` ` ` ` ` ` I I P C [ %.%.7.7.7.q.q.r.k.9.!.6X5X6X4X4X5X5X1Xc.9.l.r.t.r.q.q.j.+.2X5X  ",
"        ..` ` ` ^ J A B C B B C B ] #.%.7.%.q.q.q.t.k.6.$X5X4X4X4X5X3X3X5X1Xl.9.k.r.r.q.z.,.#X5X5X  ",
"      ` ` ` ^ D B x B C C C C C J O.@.@.%.7.7.q.q.r.z.3.-X5X5X5X5X}.. ; 5X5X1X9.0.w.q.q.j...#X5X5X  ",
"    ` } ^ D V n B B C Z C B C C D @.@.@.%.%.%.7.q.q.z.1.-X5X6X5X6X- . - 5X5X5X%X6.z.q.7.j.,.[.5X5X5X",
"  } ` A x x B B B B B B C C C C J @.@.@.#.%.%.7.7.q.z.1.,X5X4X5X5X; . - 5X5X4X5X^.3.C.;.z.z _.5X5X5X",
"^ / n n V B x V B B B C C C C C D O.O.@.@.%.%.7.7.7.j.<.,X5X4X6X5X; . - 5X5X4X4X,X+.<.<.&.. '.5X5X5X",
"    J n V S S Z Z B B C C C C A J  . .@.O.#.#.%.%.7.j.,.-X5X5X5X5X; . - 5X5X5X6X5X1XF.%X= . `.5X6X5X",
"              V B Z S C C C C C D  . .O.O.#.O.#.#.%.;...;X5X6X5X5X; . - 5X5X5X4X6X5X5X6X$ . `.5X5X5X",
"                    Z C S C A C A [  . .O.O.#.#.@.&.;.,./.5X5X6X5X; . ; 5X6X5X5X5X6X5X3X% . `.5X5X  ",
"                        B A C A Z ^  . . .O.O.O.&.+.+.Z.{.<X5X4X5X- . & 5X5X5X6X5X5X5X5X# . `.5X5X  ",
"                        ` L C A C D ' | O. .$.*.X.A.q r 2 u f <X5X*X].|.5X5X5X5X6X5X5X5X&X}.&X&X5X  ",
"                      ` X.` A A A C _  .| | o.X.A.q 6 w e y 6 u <X5X5X5X6X5X6X5X6X5X5X5X5X5X; . |.  ",
"                    ` ..` ` A C A A D ' | ' =...H.3 r w e u i y g =X5X5X6X6X5X5X5X7X&XoXoX* . + .   ",
"                    ` ` ` ` A C A A C D ' | =...H.5 w w e u u i a 3 @X6X5X5X6X=X=X: . . . . + . +   ",
"                  ` } ` ` ^ C A C A A A Q ' =.) I.5 e w 7 y i a a h p k @X+XOX0 8 y > @ X . . o     ",
"                  ` ` ` ` J Z C A A A A A P =.` I.5 w e t 7 y a h h h k l l p h g i i y > , 7       ",
"                  X.` ` P C C A A A A A D A Q [ >.t 6 e y e w w y i k k k k h g i i y y u d w       ",
"                ` } ` ` J B A C C A D A A D A Q ` L.6 r y u i y 6 u h h h h g g i i u y e s         ",
"                ` } ` K B C C C A A A A D D D D U ) T.4 u u u a g g h g h g g i i u u s e           ",
"                ` } ^ C C C G A A J L J L J J J U P -.P.e d u i i a g a g s g i i a d e             ",
"                ` ` Z Z G C C C D L       D D D D Y D ( L.XXs p g a a a p a h s j y                 ",
"                ` H B C                                     H. X9 i j j j i u u                     ",
"                P                                                                                   "
};
