/* XPM */
static char *e4cb7de661024354f9f0f17ece04fb19bqNIVa3W7UGH1wcO[] = {
/* columns rows colors chars-per-pixel */
"41 50 210 2 ",
"   c None",
".  c #000000",
"X  c #000010",
"o  c #341B16",
"O  c #231E22",
"+  c #272527",
"@  c #5C3A2F",
"#  c gray26",
"$  c #504F44",
"%  c #4E4E51",
"&  c #595959",
"*  c #675957",
"=  c #595C70",
"-  c #6B6B6B",
";  c #727272",
":  c #936049",
">  c #B86F4F",
",  c #B46F51",
"<  c #D57D5A",
"1  c #F5933E",
"2  c #EC8A49",
"3  c #F28F4D",
"4  c #F2924E",
"5  c #EB8B53",
"6  c #EA8C5C",
"7  c #E2835F",
"8  c #F1945D",
"9  c #F49758",
"0  c #EF9259",
"q  c #DB8371",
"w  c #E58A64",
"e  c #E98E65",
"r  c #E58B6A",
"t  c #E48763",
"y  c #EB9166",
"u  c #EC946A",
"i  c #EF986C",
"p  c #F49B64",
"a  c #F29B6E",
"s  c #FB9A6C",
"d  c #F39665",
"f  c #EE9C76",
"g  c #F29E71",
"h  c #F5A272",
"j  c #FCA574",
"k  c #F8A778",
"l  c #FAA260",
"z  c #07029B",
"x  c #081E9E",
"c  c #15149E",
"v  c #0000AF",
"b  c #0008A5",
"n  c #091DA2",
"m  c #0016AC",
"M  c #001EB1",
"N  c #161AA1",
"B  c #0625A3",
"V  c #0821A4",
"C  c #052AA6",
"Z  c #0626AA",
"A  c #042DAA",
"S  c #0825AE",
"D  c #0233AC",
"F  c #0038AE",
"G  c #062EB4",
"H  c #062CB8",
"J  c #0433B3",
"K  c #033AB4",
"L  c #0434BA",
"P  c #033BBA",
"I  c #0B3BB7",
"U  c #1538B7",
"Y  c #1035AA",
"T  c #2438B4",
"R  c #3739B8",
"E  c #563CAD",
"W  c #4738B1",
"Q  c #0740BD",
"!  c #5045B9",
"~  c #6348BE",
"^  c #023EC2",
"/  c #0539C8",
"(  c #0035D5",
")  c #003DD3",
"_  c #0341C2",
"`  c #0144CB",
"'  c #0549CE",
"]  c #0A4CCC",
"[  c #0A47C7",
"{  c #104ECE",
"}  c #0045D2",
"|  c #064CD2",
" . c #094FD4",
".. c #0045DC",
"X. c #014BDC",
"o. c #154FD3",
"O. c #0A51D6",
"+. c #0255DC",
"@. c #0D55DA",
"#. c #0F58DD",
"$. c #0750D6",
"%. c #1059DE",
"&. c #1A5ADD",
"*. c #1753D6",
"=. c #214ACE",
"-. c #2044C7",
";. c #255EDF",
":. c #2454D5",
">. c #324DCD",
",. c #0045E1",
"<. c #004BE2",
"1. c #004FEA",
"2. c #0047E8",
"3. c #0253E3",
"4. c #015CE3",
"5. c #0F5AE0",
"6. c #0055EA",
"7. c #135DE2",
"8. c #0044F2",
"9. c #0064ED",
"0. c #0D64E9",
"q. c #1661E6",
"w. c #1D61E4",
"e. c #1562EA",
"r. c #1965EA",
"t. c #1C6AED",
"y. c #0063F2",
"u. c #006BF5",
"i. c #0067F9",
"p. c #006EF9",
"a. c #1D6DF2",
"s. c #1A6CFC",
"d. c #1667F7",
"f. c #0071FC",
"g. c #0874FB",
"h. c #1A73F8",
"j. c #2562E3",
"k. c #256BED",
"l. c #2A6CED",
"z. c #2966E7",
"x. c #216FF2",
"c. c #2B6FF0",
"v. c #2272F5",
"b. c #2C73F4",
"n. c #2476F9",
"m. c #2579FC",
"M. c #2B7AFB",
"N. c #2B77F8",
"B. c #3275F5",
"V. c #337CFB",
"C. c #3167E4",
"Z. c #5B5BD0",
"A. c #665BC7",
"S. c #6D6DDE",
"D. c #7D76D9",
"F. c #5F7DE4",
"G. c #BD7488",
"H. c #AE719B",
"J. c #B87497",
"K. c #AA6C96",
"L. c #8D64B6",
"P. c #9868B0",
"I. c #AA6EA2",
"U. c #AD71AC",
"Y. c #AA77B4",
"T. c #C77C89",
"R. c #977CCF",
"E. c #8977D2",
"W. c #3882FD",
"Q. c #4684F8",
"!. c #5683F3",
"~. c #5B95FE",
"^. c #688AEB",
"/. c #6894F7",
"(. c #6FA2FC",
"). c #7DA9FB",
"_. c #888782",
"`. c #8A8A8B",
"'. c gray53",
"]. c #9B9B9B",
"[. c #888EAE",
"{. c #BC87AC",
"}. c #A9A9A9",
"|. c #B5B5B6",
" X c #C5808F",
".X c #D2848D",
"XX c #EA9285",
"oX c #D2A191",
"OX c #F5B799",
"+X c #F9CBB8",
"@X c #F6C2AC",
"#X c #899AE7",
"$X c #8CA4F5",
"%X c #AAB6EE",
"&X c #D7D6D5",
"*X c #E0DEDD",
"=X c #F6E0D8",
"-X c #DADFF5",
";X c #D4D7F1",
":X c #C7D1F9",
">X c #C8E0FE",
",X c #DDE0F5",
"<X c #F7EAE6",
"1X c #E2E6F8",
"2X c #E5E8F9",
"3X c #F3F3F4",
"4X c #F7F8FA",
"5X c #FCFCFB",
"6X c #F8F6F7",
"7X c #E4E8E9",
/* pixels */
"                                              ^                                   ",
"                                            ` /                                   ",
"                                          ` ) n J                                 ",
"                                        ` } A n n                                 ",
"      L                             ` ..` ^ x V V                                 ",
"    ` H x                           X.` ` A x B S                                 ",
"    ` J V B                       ` ` ` ^ B B x S                                 ",
"    ` A B Z B                     X.` ` J n V B Z B                               ",
"    <.J B C C G C               ` ` ` ^ B B B B Z B                   ` ` ` ` ` P ",
"    X.^ C C C C G C             ..` ` J V Z B B B Z             ` ` X.} ` } / L   ",
"  ` .._ A C A A A H A         ` ` ' ` C B B B B B S C       ` ` ..` ` ` ` ` B B   ",
"  ` ` ` K C A A A D J A       <.| } [ B C C C B C C C     ` X.` ` ` ` ` L C B C   ",
"  ` } ' ^ D D D D D D D D   }  .| | [ C C C B C C B A C ` X.` ` ` ` ^ J B C H     ",
"  X.' } [ D D D D D F D D K  . .|  .K B C C C C C C C S L ` ` ` ^ D C B C C C     ",
"  <.] ] | _ D F D F F D Q  .$.| O.$.L C C C A C C C C A C A A A C C C C C A C     ",
"  3.| | |  .P F F D D ] @.@.@.@.O.@.P B C C C C C C C A A C C C C A A A C G C     ",
"|  .| | O.O.O. .Q [ O.@.@.@.@.@.@.O.A B J D J D J J C C C A A A C C C C C D D     ",
" . .O.O.O.O.@.@.@.#.@.@.@.%.@.@.#.O.[ [ @.O.@.O. . .] P J C A A A A D A D D L     ",
" .$.O.@.@.@.@.@.#.#.%.%.%.%.%.%.#.#.#.#.@.@.@.O.O. . . .' _ D C D A A A A J       ",
" .@.@.@.@.@.%.%.#.#.7.7.7.7.7.7.7.%.#.#.@.@.@.@.O.O. . .| | ` D A A A A A J       ",
"@.O.@.@.5.7.5.7.q.q.#.{ { { *.7.7.7.%.%.%.%.#.#.@.O.O. .O.' | ' P A D D D J       ",
"@.@.@.@.o.:.:.T T T Y c N z Q r.7.q.7.%.q.%.%.#.@.@.O.O.O.| | ' } ^ A D D J D     ",
"@.@.5.o.b v v v v v m M M M &.q.q.q.q.q.7.7.%.%.#.@.@.@.O.o.=.=.=.=.I D D J D     ",
"@.#.&.4.! G.G.G.T.K.W E E R 0.r.q.q.q.q.q.%.7.%.%.#.@.O.*.X.X...) } ` U D J D     ",
"#.7.&.4.A.5 d p p p y r 2 Y.y.l.r.q.r.q.q.7.q.%.%.%.@.:.<.A.J.U.H.I.>./ U I J     ",
"#.7.7.z.( G.p g h g i y 5 D.y.z.t.t.r.q.q.q.q.q.7.%.&.+.A.q 2 5 5 5 w L.) P Y     ",
"%.7.7.w.3.~ p h k h i 0 T.p.k.a.t.t.k.l.z.z.z.j.j.j.;.+.q 5 w w e w e 6 T.-.D     ",
"7.7.q.q.k.<.I.l h i i 4 D.p.c.a.a.l.9.6.6.6.<.<.,...,.Z.r w e w t y e r 4 P.(     ",
"e.7.q.q.q.k.2.U.a i 9 R.p.b.x.a.B.4.!.$X,X,X,X,X1X;X/.{.2 r y e 7 t y y y e L.    ",
"7.d.q.r.r.t.c.1.q 3 R.f.B.v.v.B.y./.4X5X5X5X5X5X5X5X5X<Xr u y u e t e u u p XX    ",
"  s.q.r.t.t.k.u.S.R.f.B.n.n.N.p.!.3X5X5X4X4X5X4X4X5X4X5Xf 6 i u a y t i u u s H.  ",
"  7.q.r.t.t.t.v.f.f.b.p.n.n.N.i.:X5X4X5X5X6X4X4X4X4X4X5X<Xu u i p a t u a u p  X  ",
"  e.t.e.r.t.x.a.b.b.W.(.W.m.M.f.3X5X4X5X5X5X5X5X5X5X5X5X5X<Xh g g h y t a p a p   ",
"    s.r.t.t.x.x.b.u.$X>X~.g.V.p.;X5X4X5X}.- ; ; ; ; ; - *X5X=X3 h h u u h a a i   ",
"    q.a.t.t.t.x.v.h.Q.(.W.m.V.i.$X5X4X3X. . . . . . . . ].5X5X@Xp j h h h a a j   ",
"    q.d.t.t.a.x.h.v.h.f.m.M.M.h.Q.1X5X3X; - - - - - ; % |.5X4X3Xj k k h h a a j   ",
"      a.t.t.a.x.v.v.v.N.m.n.n.N.u.v.2X5X5X5X5X5X5X5X5X5X5X5X4X5X+Xl k h h g a k   ",
"      r.d.t.t.a.a.v.v.v.n.v.v.v.B.u.l.1X5X4X6X5X5X5X4X5X5X6X5X5X+X9 h h h a a u   ",
"        s.t.a.t.t.v.v.v.v.v.v.v.a.b.9.l.1X5X5X5X5X6X5X5X5X5X5X4XOXp h h g a h u   ",
"        r.a.t.t.t.t.a.x.a.x.v.a.a.a.l.9.9.%X5X5X4X5X5X6X4X6X5X<X8 h i h i i a d   ",
"          r.t.t.t.x.t.t.v.x.t.x.t.t.t.k.0.3.^.,X5X4X6X5X5X5X5X+Xy i g i i i j     ",
"            r.t.t.t.t.t.t.t.t.t.t.t.r.r.r.z.<.4.,X5X5X5X5X5X7X: y i i u u d u     ",
"              d.q.t.r.t.r.t.t.t.t.r.r.q.q.q.C.,.F.5X5X5X6X5X&X. < u y u u d       ",
"              q.s.r.q.t.q.t.t.q.r.r.q.q.q.7.j.,.%X5X3X5X5X5XoX. @ r u y s e       ",
"                q.d.r.q.q.t.q.q.w.q.w.z.j.j.z.&.= $ % # &X5XoX. X , y e e         ",
"              C C { 7.q.q.q.q.q.7.j.w.<...,.z . . . . . }.5X* . . , 8 s           ",
"            A A D B P q.q.q.q.q.7.<.3.#X#X[._.`.`.`.`.`.&X; . O . < e             ",
"          J ^ P K J D P O.e.7.w.+.#X1X5X5X5X5X5X5X5X5X5X&X. + . o                 ",
"                F K K D F ] 7.;.8.2X5X5X5X5X5X5X5X5X5X5X5X|.. +                   ",
"                                          5X5X5X5X4X                              "
};
