/* XPM */
static char *dcdc987be4814539b8c0a14bc1224e98hMJp5Qr0cqAKHbDZ[] = {
/* columns rows colors chars-per-pixel */
"50 41 211 2 ",
"   c None",
".  c #000000",
"X  c #000010",
"o  c #341B16",
"O  c #231E22",
"+  c #272527",
"@  c #5C3A2F",
"#  c gray26",
"$  c #504F44",
"%  c #4E4E51",
"&  c #595959",
"*  c #675957",
"=  c #595C70",
"-  c #6B6B6B",
";  c #727272",
":  c #936049",
">  c #B86F4F",
",  c #B46F51",
"<  c #D57D5A",
"1  c #F5933E",
"2  c #EC8A49",
"3  c #F28F4D",
"4  c #F2924E",
"5  c #EB8B53",
"6  c #EA8C5C",
"7  c #E2835F",
"8  c #F1945D",
"9  c #F49758",
"0  c #EF9259",
"q  c #DB8371",
"w  c #E58A64",
"e  c #E98E65",
"r  c #E58B6A",
"t  c #E48763",
"y  c #EB9166",
"u  c #EC946A",
"i  c #EF986C",
"p  c #F49B64",
"a  c #F29B6E",
"s  c #FB9A6C",
"d  c #F39665",
"f  c #EE9C76",
"g  c #F29E71",
"h  c #F5A272",
"j  c #FCA574",
"k  c #F8A778",
"l  c #FAA260",
"z  c #07029B",
"x  c #081E9E",
"c  c #15149E",
"v  c #0000AF",
"b  c #0008A5",
"n  c #091DA2",
"m  c #0016AC",
"M  c #001EB1",
"N  c #161AA1",
"B  c #0625A3",
"V  c #0821A4",
"C  c #052AA6",
"Z  c #0626AA",
"A  c #042DAA",
"S  c #0825AE",
"D  c #0233AC",
"F  c #0038AE",
"G  c #062EB4",
"H  c #062CB8",
"J  c #0433B3",
"K  c #033AB4",
"L  c #0434BA",
"P  c #033BBA",
"I  c #0B3BB7",
"U  c #1538B7",
"Y  c #1035AA",
"T  c #2438B4",
"R  c #3739B8",
"E  c #563CAD",
"W  c #4738B1",
"Q  c #0740BD",
"!  c #5045B9",
"~  c #6348BE",
"^  c #023EC2",
"/  c #0539C8",
"(  c #0035D5",
")  c #003DD3",
"_  c #0341C2",
"`  c #0144CB",
"'  c #0549CE",
"]  c #0A4CCC",
"[  c #0A47C7",
"{  c #104ECE",
"}  c #0045D2",
"|  c #064CD2",
" . c #094FD4",
".. c #0045DC",
"X. c #014BDC",
"o. c #154FD3",
"O. c #0A51D6",
"+. c #0255DC",
"@. c #0D55DA",
"#. c #0F58DD",
"$. c #0750D6",
"%. c #1059DE",
"&. c #1A5ADD",
"*. c #1753D6",
"=. c #214ACE",
"-. c #2044C7",
";. c #255EDF",
":. c #2454D5",
">. c #324DCD",
",. c #0045E1",
"<. c #004BE2",
"1. c #004FEA",
"2. c #0047E8",
"3. c #0253E3",
"4. c #015CE3",
"5. c #0F5AE0",
"6. c #0055EA",
"7. c #135DE2",
"8. c #0044F2",
"9. c #0064ED",
"0. c #0D64E9",
"q. c #1661E6",
"w. c #1D61E4",
"e. c #1562EA",
"r. c #1965EA",
"t. c #1C6AED",
"y. c #0063F2",
"u. c #006BF5",
"i. c #0067F9",
"p. c #006EF9",
"a. c #1D6DF2",
"s. c #1A6CFC",
"d. c #1667F7",
"f. c #0071FC",
"g. c #0874FB",
"h. c #1A73F8",
"j. c #2562E3",
"k. c #256BED",
"l. c #2A6CED",
"z. c #2966E7",
"x. c #206FF2",
"c. c #226FF2",
"v. c #2B6FF0",
"b. c #2272F5",
"n. c #2C73F4",
"m. c #2476F9",
"M. c #2579FC",
"N. c #2B7AFB",
"B. c #2B77F8",
"V. c #3275F5",
"C. c #337CFB",
"Z. c #3167E4",
"A. c #5B5BD0",
"S. c #665BC7",
"D. c #6D6DDE",
"F. c #7D76D9",
"G. c #5F7DE4",
"H. c #BD7488",
"J. c #AE719B",
"K. c #B87497",
"L. c #AA6C96",
"P. c #8D64B6",
"I. c #9868B0",
"U. c #AA6EA2",
"Y. c #AD71AC",
"T. c #AA77B4",
"R. c #C77C89",
"E. c #977CCF",
"W. c #8977D2",
"Q. c #3882FD",
"!. c #4684F8",
"~. c #5683F3",
"^. c #5B95FE",
"/. c #688AEB",
"(. c #6894F7",
"). c #6FA2FC",
"_. c #7DA9FB",
"`. c #888782",
"'. c #8A8A8B",
"]. c gray53",
"[. c #9B9B9B",
"{. c #888EAE",
"}. c #BC87AC",
"|. c #A9A9A9",
" X c #B5B5B6",
".X c #C5808F",
"XX c #D2848D",
"oX c #EA9285",
"OX c #D2A191",
"+X c #F5B799",
"@X c #F9CBB8",
"#X c #F6C2AC",
"$X c #899AE7",
"%X c #8CA4F5",
"&X c #AAB6EE",
"*X c #D7D6D5",
"=X c #E0DEDD",
"-X c #F6E0D8",
";X c #DADFF5",
":X c #D4D7F1",
">X c #C7D1F9",
",X c #C8E0FE",
"<X c #DDE0F5",
"1X c #F7EAE6",
"2X c #E2E6F8",
"3X c #E5E8F9",
"4X c #F3F3F4",
"5X c #F7F8FA",
"6X c #FCFCFB",
"7X c #F8F6F7",
"8X c #E4E8E9",
/* pixels */
"                                        q.e.5.5.5.#.#.@.O.O.O.O.$.|                                 ",
"                                  q.q.s.e.q.7.7.7.%.#.@.@.O.O.O. .$.3.X.X.` ` `                     ",
"                            r.q.s.r.r.q.q.q.q.q.7.7.7.7.#.@.O.O. . .| ' ' | ` ..X.<.` ` `           ",
"                        r.d.a.d.r.r.r.r.q.q.q.w.j.4.#.o.@.#.@.@.$. . .' | ` ` ^ ^ J G J H L         ",
"                    r.s.a.r.r.t.t.t.r.t.r.r.z.3.( S.! b o.5.@.O.@. .| | ` Q J A C B x V x           ",
"    D             q.a.t.t.t.t.t.t.t.t.t.t.k.<.~ H.3 H.v :.5.#.#.O. . .Q F D C A C C Z C             ",
"    ^ A         r.a.r.t.t.a.x.x.a.a.t.k.k.2.Y.p d y H.v :.7.#.@.@.@.Q A F A A A C C B               ",
"    L D C   q.d.t.t.t.x.a.a.a.a.b.a.n.u.1.Y.l h g p H.v T 7.#.#.@.] F F F A A A C H                 ",
"  F K A C q.s.r.t.t.t.b.b.b.b.b.m.n.f.D.XXp g j h p R.v T 7.#.#.#.P F F D D A A H C                 ",
"  K K B { d.q.r.t.t.a.k.b.b.b.a.u.n.f.E.1 i g h a p L.v T q.#.#.#.[ F F D A A L C                   ",
"  K J P 7.r.r.r.t.x.a.a.b.m.h.!._.!.n.f.E.4 i f i y W m U 7.7.#.#.| F F F D J C                     ",
"  F P 7.e.r.r.t.t.a.a.b.b.B.f.).,X(.f.V.f.E.4 8 y r E M c ] 7.#.#.#.[ F D J A                       ",
"  F @.7.r.r.r.t.x.x.x.b.b.m.M.Q.^.Q.M.m.V.p.F..X5 2 E M c { 7.&.#.O.@.^ D D                         ",
"  ] r.7.7.r.r.r.t.t.x.b.m.m.M.M.g.M.M.m.b.n.i.u.F.T.R Z z { 7.%.#.@.O. .P                           ",
"  7.e.q.q.r.r.r.t.x.x.b.b.m.B.Q.C.C.N.B.x.x.v.k.9.y.0.&.Q *.7.%.#.@.O. .| ]                         ",
"  ;.7.7.q.q.r.k.t.x.x.x.b.B.h.u.p.p.i.u.V.a.x.a.z.z.r.e.r.q.%.%.#.O.@. . . .3.`                     ",
"  8.<.w.q.r.r.r.t.t.x.a.n.u.!.%X>X4X>X~.y.v.t.t.r.r.r.q.7.&.7.#.@.@.O.O.' ' ' } X.`                 ",
"  3X$XX.j.q.q.r.t.t.t.n.u.n.2X6X6X6X6X5X(.y.v.t.t.r.q.q.7.7.%.#.O.O.@.O.$.| ' ' ` ` ..`             ",
"  6X2X3.w.q.e.r.r.t.v.9.l.3X6X5X5X5X5X6X5X~.4.k.r.r.q.q.7.7.%.5.[ A P K P [ ` ` ` ` ` ` X.`         ",
"  6X6X$X..j.q.r.r.k.9.l.3X6X4X4X6X6X6X5X6X%X6.l.r.q.q.7.7.7.#.#.] B B B B B B A K ^ ` ` ` <.        ",
"  6X6X$X,.j.q.q.r.0.9.2X6X6X; .  X6X5X5X6X<X3.l.r.q.7.7.%.%.#.@.@.J C A C C C B n B A ^ ` } `       ",
"6X6X6X{.,.j.7.q.Z.3.&X6X7X6X- . & 6X5X5X6X<X1.l.q.7.7.7.%.#.#.@.*.J C A C B C B C B B x A ^ } `     ",
"6X7X6X`.z j.;.Z.<./.6X5X6X6X- . ; 6X6X5X6X<X1.j.7.7.7.%.#.#.O.O.O.J C C C C C V B B B x x n A ` }   ",
"6X6X6X'.. &.<.<.4.<X6X6X5X6X- . ; 6X6X6X6X<X<.j.7.7.7.#.#.#.#.O. .J C C C B C V B B V B V V n n / ^ ",
"6X5X6X'.. = &X/.<X6X5X7X6X6X- . ; 6X6X5X6X;X,.j.7.7.#.#.O.@.O.O.O.D C C C C C C B Z Z S S B n J     ",
"6X6X6X'.. $ 6X6X6X5X6X6X6X6X- . ; 6X7X5X6X:X,.j.#.&.#.#.@.O.O.O. .J C C C C C S Z B V               ",
"  6X6X'.. % 4X6X7X6X6X7X5X6X; . ; 6X5X6X6X(.,.;.&.O.#.#.O.O. . .[ A A C C Z C C                     ",
"  6X6X'.. # 7X6X6X7X6X6X6X6X% . - 6X6X6X1X}.A.3.+.&.O.O.O.O.|  ._ B C A Z C                         ",
"  6X*X=X|.*X6X7X6X6X5X7X6X6X X[.=X6X1Xf u 2 r q S.X.:.O. . .| | F C C C L `                         ",
"   X. ; 6X6X6X6X6X7X6X6X6X6X6X6X6X1Xi 6 y r w 5 r S.X.*. .} | ^ C A C A ` X.`                       ",
"  . + . * OXOX*X=X6X6X6X5X6X5X7X-Xg u i y y w r 2 J...=.| | ' A A A C A ` ` X.`                     ",
"  + . + . . . . : -X1X5X6X6X7X#X3 a a u u w w w 3 U...=.' } D A A A C A ` ` ` `                     ",
"    o . . X @ > i d 8 +X@X@Xk p h a a a y 7 w r 5 J.} =.' P A A A C A C ^ ` ` X._                   ",
"      < , > e p u f g p 9 l k k h h a y 7 t y w 5 U.) o.P A D A A A C C J ` ` ` `                   ",
"      e d u e y u p g h k k h h u y w t w y e e w >.` U A A A A A C C A C ^ ` ` X.                  ",
"        s e y u p f g g h h j h u w y a i y e 6 P.} U A D D A D A A A C B J ` ` } `                 ",
"          e s u i i i h h h h h g a a u u y 4 R.( U D D D D A A C A C C C B L ` ` `                 ",
"            e i p i i a a a a a a i i u d y I.-.P U J J J J L J D D G A C C C _ } `                 ",
"                y j a s a a a a g g p s oXP.( J Y F D D A       K D C C C H Z B ` `                 ",
"                    u u p j j j i 9 .XJ.                                    C B L `                 ",
"                                                                                  L                 "
};
