/* XPM */
static char *d06d9611cd644c85f97b3e541a35d796OfRNXqyJpj2GZbe7[] = {
/* columns rows colors chars-per-pixel */
"41 50 215 2 ",
"   c None",
".  c #000000",
"X  c #000010",
"o  c #341B16",
"O  c #231E22",
"+  c #272527",
"@  c #5C3A2F",
"#  c #504F44",
"$  c #4E4E51",
"%  c #595959",
"&  c gray26",
"*  c #675957",
"=  c #595C70",
"-  c #6B6B6B",
";  c #727272",
":  c #936049",
">  c #B86F4F",
",  c #B46F51",
"<  c #D57D5A",
"1  c #F5933E",
"2  c #EC8A49",
"3  c #F28F4D",
"4  c #F2924E",
"5  c #EB8B53",
"6  c #EA8C5C",
"7  c #E2835F",
"8  c #F1945D",
"9  c #F49758",
"0  c #EF9259",
"q  c #DB8371",
"w  c #E58A64",
"e  c #E98E65",
"r  c #E58B6A",
"t  c #E48763",
"y  c #EB9166",
"u  c #EC946A",
"i  c #EF986C",
"p  c #F49B64",
"a  c #F29B6E",
"s  c #FB9A6C",
"d  c #F39665",
"f  c #EE9C76",
"g  c #F29E71",
"h  c #F5A272",
"j  c #FCA574",
"k  c #F8A778",
"l  c #FAA260",
"z  c #07029B",
"x  c #081E9E",
"c  c #15149E",
"v  c #0000AF",
"b  c #0008A5",
"n  c #091DA2",
"m  c #0016AC",
"M  c #001EB1",
"N  c #161AA1",
"B  c #0625A3",
"V  c #0821A4",
"C  c #052AA6",
"Z  c #0626AA",
"A  c #042DAA",
"S  c #0825AE",
"D  c #0233AC",
"F  c #0038AE",
"G  c #062EB4",
"H  c #062CB8",
"J  c #0433B3",
"K  c #033AB4",
"L  c #0434BA",
"P  c #033BBA",
"I  c #0B3BB7",
"U  c #1538B7",
"Y  c #1035AA",
"T  c #2438B4",
"R  c #3739B8",
"E  c #563CAD",
"W  c #4738B1",
"Q  c #0740BD",
"!  c #5045B9",
"~  c #6348BE",
"^  c #023EC2",
"/  c #0539C8",
"(  c #0035D5",
")  c #003DD3",
"_  c #0341C2",
"`  c #0144CB",
"'  c #0549CE",
"]  c #0A4CCC",
"[  c #0A47C7",
"{  c #104ECE",
"}  c #0045D2",
"|  c #064CD2",
" . c #094FD4",
".. c #0045DC",
"X. c #014BDC",
"o. c #154FD3",
"O. c #0A51D6",
"+. c #0255DC",
"@. c #0D55DA",
"#. c #0F58DD",
"$. c #0750D6",
"%. c #1059DE",
"&. c #1A5ADD",
"*. c #1753D6",
"=. c #214ACE",
"-. c #2044C7",
";. c #2558D9",
":. c #324DCD",
">. c #0045E1",
",. c #004BE2",
"<. c #004FEA",
"1. c #0047E8",
"2. c #0253E3",
"3. c #015CE3",
"4. c #0F5AE0",
"5. c #0055EA",
"6. c #135DE2",
"7. c #0044F2",
"8. c #0064ED",
"9. c #0D64E9",
"0. c #1661E6",
"q. c #1D61E4",
"w. c #1562EA",
"e. c #1965EA",
"r. c #1C6AED",
"t. c #0063F2",
"y. c #006BF5",
"u. c #0067F9",
"i. c #006EF9",
"p. c #1D6DF2",
"a. c #1A6CFC",
"s. c #1667F7",
"d. c #0071FC",
"f. c #0874FB",
"g. c #1A73F8",
"h. c #2562E3",
"j. c #256BED",
"k. c #2A6CED",
"l. c #2966E7",
"z. c #216FF2",
"x. c #2B6FF0",
"c. c #2272F5",
"v. c #2C73F4",
"b. c #2476F9",
"n. c #2579FC",
"m. c #2B7AFB",
"M. c #2B77F8",
"N. c #3275F5",
"B. c #337CFB",
"V. c #3167E4",
"C. c #5B5BD0",
"Z. c #665BC7",
"A. c #6D6DDE",
"S. c #7D76D9",
"D. c #5F7DE4",
"F. c #BD7488",
"G. c #AE719B",
"H. c #B87497",
"J. c #AA6C96",
"K. c #8D64B6",
"L. c #9868B0",
"P. c #AA6EA2",
"I. c #AD71AC",
"U. c #AA77B4",
"Y. c #C77C89",
"T. c #977CCF",
"R. c #8977D2",
"E. c #3882FD",
"W. c #4684F8",
"Q. c #5683F3",
"!. c #5B95FE",
"~. c #688AEB",
"^. c #6894F7",
"/. c #6FA2FC",
"(. c #7DA9FB",
"). c #888782",
"_. c #8A8A8B",
"`. c gray53",
"'. c #9B9B9B",
"]. c #888EAE",
"[. c #BC87AC",
"{. c #A9A9A9",
"}. c #B5B5B6",
"|. c #C5808F",
" X c #D2848D",
".X c #EA9285",
"XX c #D2A191",
"oX c #F5B799",
"OX c #F9CBB8",
"+X c #F6C2AC",
"@X c #899AE7",
"#X c #8CA4F5",
"$X c #AAB6EE",
"%X c #D7D6D5",
"&X c #E0DEDD",
"*X c #F6E0D8",
"=X c #DADFF5",
"-X c #D4D7F1",
";X c #C7D1F9",
":X c #DDE0F5",
">X c #C8E0FE",
",X c #F7EAE6",
"<X c #E2E6F8",
"1X c #E5E8F9",
"2X c #F3F3F4",
"3X c #F7F8FA",
"4X c #FAFAFA",
"5X c #F9F9F9",
"6X c #FFFEFB",
"7X c white",
"8X c #FFFEFE",
"9X c #FEFEFD",
"0X c #FCFCFB",
"qX c #F8F6F7",
"wX c #E4E8E9",
/* pixels */
"                              5X7X5X7X5X                                          ",
"                  + . }.7X7X7X7X5X5X5X5X7X7X7X1X7.h.4.] F D K K F                 ",
"                o . + . %X7X7X7X7X7X7X7X7X0X<X@X,.h.6.s.O.P D K L P ^ D           ",
"            e < . + . ; %X_.`._._.).).].@X@XX.,.q.6.0.6.0.0.K B A J A             ",
"          s d , . . * 7X{.. . . . . z >.>.>.h.h.0.0.0.0.0.0.0.] C C               ",
"        e e e , X . XX7X%X& $ # = &.l.h.h.h.0.0.0.0.e.e.0.0.w.p.0.                ",
"      e s y e e @ . XX7X5XqX2X4X$X,.h.6.6.0.0.e.e.e.e.e.e.e.e.e.a.0.              ",
"      i y y y s > . %X7X5X5X0X0XD.X.V.6.e.e.e.e.e.r.e.r.r.r.e.e.e.p.              ",
"    u a i i i i y : wX7X5X5X5X0X=X3.2.l.q.e.r.r.r.r.r.r.r.r.r.r.r.e.e.            ",
"    s i i i i i 9 OX9X5X0X5X0X5X0X=X~.2.9.j.r.r.p.r.p.j.p.z.z.r.r.r.p.w.          ",
"  u s g i g h h 8 ,X9X3X5X0X0X5X5X0X0X$X8.8.k.r.z.p.c.p.z.z.z.r.r.r.r.p.e.        ",
"  u g g g g h p oX5X4X4X5X0X5X5X4X4X4X0X<Xk.8.x.p.c.c.c.c.c.g.p.p.p.r.r.a.        ",
"  i a a h h k 9 OX0X5X5X5X0X5X0X4X4X4X5X0X1Xv.y.N.g.b.c.c.c.c.g.z.r.r.r.p.e.      ",
"  j a a h j k l OX0X5X5X0X0X7X0X0X0X7X4X5X0X<Xc.y.M.b.M.M.M.c.c.c.p.p.r.r.p.      ",
"  j a a g h j h k 2X4X7X}.$ ; - - - - - ; 2X0X<XW.g.M.n.n.f.g.c.c.z.p.p.r.s.0.    ",
"  j a a g j h k p +X3X7X'.. . . . . . . . 2X0X0X#Xy.E.n.E./.W.g.c.p.r.r.r.r.e.    ",
"  u a a h u u h h 3 *X7X&X- ; ; ; - ; - {.7X5X0X;Xd.B.f.!.>X#Xd.c.z.z.r.r.e.a.    ",
"  p a i a w y h g a g ,X7X0X0X0X0X7X5X5X7X7X5X7X2Xi.m.n.E.^.W.M.v.z.z.r.r.e.e.0.  ",
"  |.p i i u w a i i y i ,X5X5X5X5X5X5X5X5X5X3X7X;Xu.m.m.b.d.b.d.d.x.r.r.e.e.e.0.  ",
"  G.s u u i t y i i i 6 f 0X5X5X5X5X3X5X5X3X0X3XQ.u.M.b.M.N.d.R.A.y.j.r.e.e.0.a.  ",
"    .X8 u u e t y u y y r ,X7X0X7X0X7X0X0X0XqX~.t.M.c.c.N.d.T.1  X<.x.r.e.e.0.e.0.",
"    K.y y y y t t w y r 2 [.^.-X:X:X:X:X=X#XQ.t.N.p.c.v.i.T.0 i p I.1.j.e.0.0.0.w.",
"    ( L.4 e e y w w e w r C.>...,.,.,.<.2.5.8.x.r.p.x.u.S.4 u g h l I.X.l.0.0.6.#.",
"    K -.Y.6 w r t t r 5 q 2.;.h.h.h.l.l.l.k.j.r.r.r.x.i.|.0 i h h h p ~ 3.q.6.6.4.",
"    Y P ) K.t 5 3 5 2 t C.+.&.#.6.6.0.0.0.e.e.e.r.l.y.R.7 r u g h f d H.( h.6.6.6.",
"    D I U ` :.P.G.P.H.Z.,.;.#.%.%.6.6.6.0.0.e.e.e.k.t.U.1 t y d l 9 d 4 ~ 8.&.4.#.",
"    D J D U ` ) } ....X.*.$.#.#.%.%.6.6.0.0.0.e.e.e.9.R E E W J.Y.F.F.F.! +.q.#.@.",
"    D J D D I =.=.=.=.o. .@.@.@.%.%.6.6.6.6.6.6.0.0.&.Z M M m v v v v v b o.4.@.@.",
"    D J A D A P | ' | |  . . .@.@.#.%.%.6.6.6.6.6.e.I z N c U T T T ;.;.o.@.#.@.@.",
"      J D A D D P ' | |  . .O.@.@.@.@.%.#.6.6.6.6.6.&.{ { { %.6.6.6.%.%.4.@.@.@.O.",
"      J A D A A A D ` |  . . .O.O.@.@.#.#.#.%.%.6.6.6.6.6.6.6.%.%.%.#.@.@.@.@.O. .",
"      J A A A A A A A ^  .|  . . .O.@.@.@.#.4.#.#.#.%.%.%.#.#.#.#.#.@.@.@.O.O.O. .",
"    P J A C D D C D A C D P [  . .O.@.@.@.[ [ O.%.#.#.@.@.@.#.@.#.#.@.$.O. . . .$.",
"    A A C C C C C A A A A C A J J Y D J J B C  .@.O.@.@.@.@.$.[ Q ' @.O.|  . . .| ",
"    A G A A C C A C C C A A C C C C C C C C P #.O.O.O.@.@.] F D F F Q '  .|  .2.  ",
"    A A C C A C C A D A C C C C A C C C A B K O. . .O. .Q F D J F F F Q  .' ' +.  ",
"    C A B B B J P ` ` ` L A B A C C C C C B P  .|  .| K D D D D D D D D [ ' ' X.  ",
"    H B B J ^ ` ` ` ` ..` C A B C C B Z C B ` | |  . .  D J D D D D D D Q ' } `   ",
"  C C A L ` ` ` ` ` ,.`     B A C B C B C B ` ' ` ,.      D J A A A A A J ` ` `   ",
"  V B _ ' ` ` ` ..` `       B S B B B C B A ` ` } '         A G A A A C A _ } `   ",
"  L ` } ` } ..` `             Z B B B C V J ` ` ..            A H C A A B ` X.    ",
"L ` ` ` ` `                   B Z B B B V ^ ` ` `               B H B B B J ,.    ",
"                              B B V B x D ` ` ..                    B A B A `     ",
"                                S B V V ^ ` ` `                       B n J `     ",
"                                S V x A ` ` X.                          n H `     ",
"                                V Z x ^ ` X.`                             L       ",
"                                n n A } `                                         ",
"                                G n ` `                                           ",
"                                  / }                                             ",
"                                  ^                                               "
};
