/* XPM */
static char *e2ce21fd4dfb40abe1fd1bdfcef4611bTL54YmIHlKlFMo0W[] = {
/* columns rows colors chars-per-pixel */
"50 29 212 2 ",
"   c None",
".  c #010000",
"X  c #0A0000",
"o  c #190000",
"O  c #01001B",
"+  c #080012",
"@  c #18001C",
"#  c #000024",
"$  c #02002B",
"%  c #0B012E",
"&  c #000031",
"*  c #00003C",
"=  c #030C3D",
"-  c #080936",
";  c #160036",
":  c #04133B",
">  c #08133B",
",  c #04183F",
"<  c #091635",
"1  c #1C0D31",
"2  c #281128",
"3  c #1B253D",
"4  c #28242F",
"5  c #000142",
"6  c #010B41",
"7  c #00004B",
"8  c #0A0041",
"9  c #051941",
"0  c #0A1942",
"q  c #001647",
"w  c #101141",
"e  c #000054",
"r  c #00005C",
"t  c #052347",
"y  c #05284C",
"u  c #0A244A",
"i  c #172542",
"p  c #092B52",
"a  c #022F56",
"s  c #063357",
"d  c #000062",
"f  c #00006D",
"g  c #001865",
"h  c #000273",
"j  c #000E77",
"k  c #001775",
"l  c #033B65",
"z  c #043E69",
"x  c #073A6A",
"c  c #002F7A",
"v  c #002173",
"b  c #003B73",
"n  c #00337C",
"m  c #00406E",
"M  c #054B76",
"N  c #02497A",
"B  c #144C76",
"V  c #0C507C",
"C  c #294F73",
"Z  c #003F82",
"A  c #004B8B",
"S  c #035184",
"D  c #0A5284",
"F  c #03598B",
"G  c #08598C",
"H  c #075589",
"J  c #14598B",
"K  c #004494",
"L  c #004A92",
"P  c #004C9C",
"I  c #005492",
"U  c #025C93",
"Y  c #0B5F95",
"T  c #005B9C",
"R  c #005698",
"E  c #175F92",
"W  c #2F5B83",
"Q  c #076196",
"!  c #08659D",
"~  c #0055A3",
"^  c #005BA9",
"/  c #0569A1",
"(  c #0D6AA5",
")  c #0066AD",
"_  c #036CAB",
"`  c #0A6EAB",
"'  c #0A66A3",
"]  c #0472AD",
"[  c #0C72AB",
"{  c #1473AF",
"}  c #086EB5",
"|  c #0376B3",
" . c #0A74B2",
".. c #0B77B9",
"X. c #057CBC",
"o. c #0B7ABA",
"O. c #0072BA",
"+. c #177EBB",
"@. c #1566A8",
"#. c #2D72A8",
"$. c #0069C4",
"%. c #0579C4",
"&. c #117EC5",
"*. c #0077D1",
"=. c #007BD6",
"-. c #007ED8",
";. c #2581BB",
":. c #4387B6",
">. c #0584C5",
",. c #0983C5",
"<. c #0586CB",
"1. c #0A86CC",
"2. c #0A89CE",
"3. c #0389CD",
"4. c #1586C7",
"5. c #0083D2",
"6. c #068BD2",
"7. c #0A8CD4",
"8. c #018DDA",
"9. c #0489D9",
"0. c #1A8DD1",
"q. c #0695DE",
"w. c #0990D8",
"e. c #1D91D6",
"r. c #228CC4",
"t. c #3692C4",
"y. c #248ED4",
"u. c #3596D5",
"i. c #3BAAD7",
"p. c #36AFD8",
"a. c #0499E5",
"s. c #0093EB",
"d. c #0B9AE6",
"f. c #009DF5",
"g. c #0097F0",
"h. c #02A7FA",
"j. c #01AEFF",
"k. c #00A0F6",
"l. c #16A9FA",
"z. c #03B1FF",
"x. c #3EA7E1",
"c. c #26B5FD",
"v. c #4B98CE",
"b. c #5996C6",
"n. c #40A8D9",
"m. c #5EAAD4",
"M. c #44BEDC",
"N. c #67A9CE",
"B. c #72A8CA",
"V. c #68ADD1",
"C. c #78AED1",
"Z. c #6DB2DD",
"A. c #76B3DE",
"S. c #46B9E3",
"D. c #5AB1E2",
"F. c #5DBEF7",
"G. c #45A8E8",
"H. c #6BB6E4",
"J. c #77BEE8",
"K. c #37C4FF",
"L. c #47C2DC",
"P. c #4BC7E8",
"I. c #57C5EC",
"U. c #55C6FF",
"Y. c #47D4FF",
"T. c #4ED9FF",
"R. c #4FD1F2",
"E. c #56D8F9",
"W. c #66CFFF",
"Q. c #6DD2FF",
"!. c #63DBF8",
"~. c #74D8FF",
"^. c #7ED9FF",
"/. c #7AC9EF",
"(. c #55E2FF",
"). c #5CE5FB",
"_. c #5CEBFF",
"`. c #64E7FB",
"'. c #72EAFF",
"]. c #66F4FF",
"[. c #65FEFF",
"{. c #6BFEFE",
"}. c #6AF5FF",
"|. c #7EF6FF",
" X c #73FEFE",
".X c #7CFEFE",
"XX c #75F5FF",
"oX c #87CCF1",
"OX c #85DDFF",
"+X c #9DDBFA",
"@X c #94D5F4",
"#X c #8CE3FF",
"$X c #83E7FF",
"%X c #9FE3F8",
"&X c #84FEFE",
"*X c #8CFFFF",
"=X c #94FEFF",
"-X c #99FFFE",
";X c #9BF3FF",
":X c #A8E9FD",
">X c #B9EFFF",
",X c #A5FEFF",
"<X c #ABFEFF",
"1X c #A7F1FF",
"2X c #BCF1FF",
"3X c #B4FEFE",
"4X c #BCFEFE",
"5X c #B6F2FF",
"6X c #C3FEFE",
"7X c #CBFEFE",
"8X c #C3F5FF",
"9X c #D4FFFF",
/* pixels */
"                                                      1.                                            ",
"                                                      ,.z.a.w.5.$.$.                                ",
"                                                        X.l.z.Q.#X~.Q.F.G.8.$.                      ",
"                                                    w.2.<.1.X.x.<X3X3X3X<X;XU.*.                    ",
"                                          7.w.7.0.4.{ E B i o 5 u.,X<X,X,X<X<XW.*.                  ",
"                                  y.e.0.0.+.Q s . . . . . . # 4 7 D.3X<X<X,X,X<XQ.*.                ",
"                          4.,.4.| T m $ . . o J C.B.N.V.N.V.:.7 2 h /.3X<X,X,X,X,XQ.=.              ",
"              @.&.w.2. .Q H m # C W H F Y I O b +X9X7X6X4X4X3Xm.e 2 P OX3X<X<X,X,X3XQ.=.            ",
"              J ( ..o.,.| - @ . +.>X8X>X2X>Xb.. n +X7X3X4X3X4X3XV.d ; O.1X3X<X<X,X,X<X~.=.          ",
"                  D o.1./ p 9 i X B.9X9X9X9X8X:.. { 1X6X3X3X3X4X3XZ.f 7 u.3X4X3X3X<X3X3X^.-.        ",
"              2.2. .M X X - < q 1 # A.9X7X6X7X>X#.. v.4X6X4X6X3X6X6XH.k d H.6X4X3X3X3X<X3XOX=.      ",
"  { 1.w.2.X.| F t X O 9 0 > > = q 1 r @X7X6X4X7X:XY & H.6X6X4X6X4X6X6XJ.h h oX6X4X3X3X3X3X3XOX-.    ",
"  ! ..6.>.] F s : , , : : > > 6 = 0 . R :X6X4X3X6X:XE k oX6X4X6X4X4X6X6X/.Z K +X4X3X<X<X,X<X3X$X8.  ",
"        % ` 1.a.8.M $ , : : : 6 6 q i & I.-X=X=X=X-Xt.* n.-X-X-X=X=X*X-X$X_ 7 n.*X&X.X.X.X X.XXXl.  ",
"    &.1.X./ F M m y , , : : : 6 6 u . t. X X X.X.Xp.7 ;.|.&X.X&X&X&X*X'.| 7 r.|..X{.[.[.[.{._.h./   ",
"  ( ..<.>.X.! N < . . 9 t : 6 5 p . [ }..X{..X.Xn.5 I '.*X&X*X&X&X*X'. .5 ) '.&X X{.{.[.{._.l.T     ",
"          H ` ,.,.| N . . , = u . L `.{.{.{..XP.e k !.&X.X&X&X&X*X'.) 5 K !.&X X{.{.[.{._.k.T       ",
"                  Q >.3.F - t . U _..X{.{..XR.g $ S..X.X.X.X|.&X!.~ 8 j I.&X{.[.{.{.{._.f.I         ",
"                ` ] ] >.U . < O r.P.M.M.L.p.N . i..X X.X.X&X&XE.P w r i..X{.{.{.{. X(.f.Y           ",
"              ` 1.q.3.] ! S a $ . . . . # & . ] (.).).).).`.R.A - * r. X{.{.{.{.{.E.g.F             ",
"                    M ! ..>.>.>.| ! V p + X . y b v n n c c d 0 . _ ]. X{.{.{.{.T.s.D               ",
"                            t G  .<.6.6.3.| U l X X X . X % % . ~ (.{.[.[.{.{.T.s.D                 ",
"                                      S [ >.<.7.8.3.| Q z $ y } T. X{.{. X{.T.s.V                   ",
"                                              z Q  .,.3.8.q.s.K.]._._.(.Y.c.5.V                     ",
"                                                      H h.j.h.l.d.8.=.$.^ A                         ",
"                                                      6.7.' H x 6                                   ",
"                                                                                                    ",
"                                                                                                    ",
"                                                                                                    "
};
