/* XPM */
static char *_41d5c10b1834242afee56b644daa79dkZ1uOPimvek6ExLz[] = {
/* columns rows colors chars-per-pixel */
"50 50 83 1 ",
"  c None",
". c #803100",
"X c #843500",
"o c #843600",
"O c #853600",
"+ c #843700",
"@ c #853700",
"# c #853800",
"$ c #863900",
"% c #873A00",
"& c #883C00",
"* c #893C00",
"= c #8A3E00",
"- c #8A3F00",
"; c #903B00",
": c #844500",
"> c #8B4000",
", c #8C4000",
"< c #8C4100",
"1 c #8D4100",
"2 c #8D4200",
"3 c #8D4300",
"4 c #8E4300",
"5 c #8F4300",
"6 c #8E4400",
"7 c #8F4500",
"8 c #914500",
"9 c #914600",
"0 c #924700",
"q c #984600",
"w c #974C00",
"e c #9A4900",
"r c #945200",
"t c #965400",
"y c #9A5000",
"u c #9B5100",
"i c #9C5100",
"p c #9D5300",
"a c #985600",
"s c #975A00",
"d c #975B00",
"f c #985A00",
"g c #985C00",
"h c #A75E00",
"j c #A85E00",
"k c #A85F00",
"l c #AA5F00",
"z c #A96000",
"x c #AB6100",
"c c #B66C00",
"v c #B76C00",
"b c #B76D00",
"n c #C57500",
"m c #CD8200",
"M c #CE8200",
"N c #CE8300",
"B c #D38800",
"V c #D48800",
"C c #D48900",
"Z c #D58900",
"A c #D58A00",
"S c #D68A00",
"D c #D78A00",
"F c #D68B00",
"G c #D78B00",
"H c #D88B00",
"J c #D88C00",
"K c #D98C00",
"L c #D98D00",
"P c #DA8D00",
"I c #DA8E00",
"U c #DB8E00",
"Y c #DC8E00",
"T c #DD8E00",
"R c #DD8F00",
"E c #DE8F00",
"W c #DD9000",
"Q c #E09100",
"! c #E59400",
"~ c #E79500",
"^ c #E89600",
"/ c #EB9700",
"( c #EC9900",
/* pixels */
"SSSSSSSSSSSSSSSSSSSSSSSN9-22>2>222--22-222-2-228*y",
"SSSSSSSSSSSSSSSSSSSSSBKN9-2>2>2>-2222-22-2-222-8-t",
"SSSSSSSSSSSSSSSSSSSSSSJN9-22>2>2-22222--2-22-----t",
"SSSSSSSSSSSSSSSSSSSSSSJN9-2>2>2>22---222222-8-28-t",
"SSSSSSSSSSSSSSSSSSSSSSJN9-22>2>2-222222--22-22-8-t",
"SSSSSSSSSSSSSSSSSSSSSSKN9-2>2>2>22-2--22-22-2--8-t",
"SSSSSSSSSSSSSSSSSSSSSBSN9-22>2>22-2-22-2222222-8-t",
"SSSSSSSSSSSSSSSSSSSSSSKN9-2>2>2>2-222-222--2-228*t",
"SSSSSSSSSSSSSSSSSSSSSSJN9-22>2>2-222-22-222-2----t",
"SSSSSSSSSSSSSSSSSSSSSSJN9-2>2>2>22-2-22---222228-t",
"SSSSSSSSSSSSSSSSSSSSSBJN9-22>2>22-2-222222-2-2-8*t",
"SSSSSSSSSSSSSSSSSSSSSSJN9-2>2>2>2-222--22-22-2-8-t",
"SSSSSSSSSSSSSSSSSSSSSSSN9-22>2>22-222--222-2-228-t",
"SSSSSSSSSSSSSSSSSSSSSBKN9-2>2>2>2-2-2222-2-222-8*t",
"SSSSSSSSSSSSSSSSSSSSSSJN9-22>2>222-2-22-2-222--2-t",
"SSSSSSSSSSSSSSSSSSSSSSJN9-2>2>2>-222-22-222-2-28-t",
"SSSSSSSSSSSSSSSSSSSSSSSN9-22>2>2>2>2>2>2>2>222-2-t",
"SSSSSSSSSSSSSSSSSSSSSBKN9-2>2>2>2>2>2>2>2>2>-228-a",
"SSSSSSSSSSSSSSSSSSSSSSHN9-22>2>2>2>2>2>2>2>2-222-t",
"SSSSSSSSSSSSSSSSSSSSSSKN9-2>2>2>2>2>2>2>2>2>22-8-t",
"SSSSSSSSSSSSSSSSSSSSSSKN9-2>>2>2>2>2>2>2>2>2>222-t",
"SSSSSSSSSSSSSSSSSSSSSVSN9-222>2>2>2>2>2>2>2>2>22*y",
"SSSSSSSSSSSSSSSSSSSSSSHN9262222222222222222222662t",
"SVSVSVSVSVSVSVSSSBSVSBSN2o$$$$$$$$$$$$$$$$$$$$$-or",
"wiiiiiiiyiiyiiyiiiiiiypwyzhhhjjjhhjjjjzhjjjjjjjjz:",
"*-$*-$$--$**$--$-$-$-&>.bWJKKKKKKJKKKKKKKKKHKKHYQg",
"22222222222222222222226$bKBSBSSSSSBSSSSBSSSSSSSHYf",
"22-22>222>2>22>22>2>2-2obKSSSSSSSSSSSSSSSSSSSSSHYf",
">2>2>2>2>2>2>2>2>2>22>6obKBSSSSSSSSSSSSSSSSSSSHHWf",
"2>2>2>2>2>2>2>2>2>2>>22$bKSSSSSSSSSSSSSSSSSSSSHHYf",
">2>2>2>2>2>2>2>2>2>22>6+cKSSSSSSSSSSSSSSSSSSSSHHWf",
"2>2>2>2>2>2>2>2>2>2>>22obKSSSSSSSSSSSSSSSSSSSSHKYf",
">2>2>2>2>2>2>2>22>2>2>2$cKSSSSSSSSSSSSSSSSSSSSSSYf",
"2>2>2>2>2>2>2>2>>2>2>26ocKSSSSSSSSSSSSSSSSSSSSSHYf",
">2>2>2>2>2>2>2>22>2>2>6obKSSSSSSSSSSSSSSSSSSSSHHQf",
"2>2>2>2>2>2>2>2>>2>2>22$bKBSSSSSSSSSSSSSSSSSSSSHYf",
">2>2>2>2>2>2>2>22>2>2>6+cKSSSSSSSSSSSSSSSSSSSSHHWf",
"2>2>2>2>2>2>2>2>>2>2>22obKSSSSSSSSSSSSSSSSSSSSSHYf",
">2>2>2>2>2>2>2>22>2>2>6@bKSSSSSSSSSSSSSSSSSSSSHHYf",
"2>2>2>2>2>2>2>2>>2>2>22ocKSSSSSSSSSSSSSSSSSSSHVHQf",
"2--2-222>2>2>2>22-222-2$cYVSSSSSSSSSSSSSSSSSSSHHYf",
"222222--2>2>2>2>2-2-222ocHSSSSSSSSSSSSSSSSSSSSVHWf",
"-22-2-22>2>2>2>222-2--8@cKSSSSSSSSSSSSSSSSSSSHHHYf",
"-22-22-22>2>2>2>-222222@vKVSSSSSSSSSSSSSSSSSSVHHWf",
"222---222--2>2>222--2>2obKSSSSSSSSSSSSSSSSSSSSHHYf",
"2-228-2-22222>2>-222>26@cKSSSSSSSSSSSSSSSSSSSSVHWf",
";--88--2-22-2-22-222226$vKSHHSSHJSSKSHHSSHSHHSHHYg",
"28----82-22-222-22->2>6@bKSSSSSSSSSSSSSSSSSSSSHSYs",
"qqqqqqqqqqqqqqqqqqqqqqe=n(^^^^^^~^^^^^^^^^^~^^~/!f",
"222>>22>2>>22>2>2>2>>28OvKSSSHSHHSHSSHHSHSSHVHHVY "
};
